<?xml version="1.0" encoding="UTF-8"?> <svg xmlns="http://www.w3.org/2000/svg" width="409" height="324" viewBox="0 0 409 324" fill="none"><path d="M246.931 200.091C246.451 199.979 248.309 206.456 249.208 208.577C249.687 209.694 250.047 210.922 250.047 212.151C250.047 212.765 249.927 213.267 249.387 213.77C247.71 215.445 245.493 216.394 243.335 217.343C240.639 218.515 237.763 219.129 234.767 219.464C234.467 219.576 234.168 219.464 233.868 219.576C233.748 219.576 233.628 219.52 233.568 219.52C232.31 219.576 231.531 219.129 231.112 218.069C230.992 217.734 230.812 217.343 230.692 217.008C230.213 215.668 229.674 214.384 229.194 213.044C229.014 212.597 228.835 212.151 228.176 212.709C227.576 213.211 226.797 213.602 226.138 214.049C224.101 215.389 222.243 216.896 220.206 218.18C219.008 218.906 217.869 219.744 216.731 220.637C215.293 221.754 213.855 222.87 212.417 223.987C210.918 225.103 209.42 226.22 207.982 227.337C206.784 228.23 205.645 229.235 204.447 230.128C202.53 231.468 200.792 232.976 198.994 234.483C197.436 235.767 195.819 236.996 194.201 238.224C192.523 239.508 190.665 240.625 189.107 242.076C188.209 242.914 187.19 243.584 186.111 244.254C185.752 244.477 185.452 244.477 185.093 244.365C184.613 244.198 184.134 244.03 183.655 243.807C181.977 243.025 180.359 242.188 178.561 241.685C177.123 241.295 175.745 240.904 174.367 240.345C170.832 238.838 167.836 236.661 164.78 234.539C161.664 232.417 158.608 230.296 155.732 227.895C153.814 226.276 152.017 224.657 150.459 222.759C149.021 221.028 147.643 219.129 146.384 217.231C143.868 213.49 141.89 209.582 140.272 205.451C139.733 203.999 139.493 202.492 138.595 201.208C138.475 200.649 138.655 200.035 138.475 199.477C138.475 199.309 138.475 199.086 138.415 198.918C138.295 198.304 138.295 197.69 138.415 197.076C138.654 196.462 138.954 195.904 139.493 195.457C141.77 193.67 143.568 191.493 145.545 189.483C148.961 185.966 152.197 182.392 155.312 178.652C157.709 175.804 159.986 172.845 161.904 169.663C164.72 165.029 167.296 160.283 169.514 155.37C170.233 153.751 170.832 152.076 170.652 150.289C170.832 149.787 170.652 149.284 170.772 148.838C170.952 147.553 171.131 146.269 171.311 144.929C171.79 141.803 172.809 138.844 174.667 136.164C178.921 130.078 184.074 124.774 189.467 119.582C190.665 118.465 191.864 117.293 192.942 116.064C194.44 114.445 195.759 112.603 197.496 111.207C197.796 110.984 197.796 110.76 197.676 110.425C195.759 103.446 193.841 96.5234 191.924 89.5444C191.444 87.7578 191.025 85.9712 190.366 84.1846C190.246 83.9054 190.246 83.5704 190.366 83.2913C191.325 82.5096 192.343 81.8955 193.542 81.6163C198.096 80.4997 202.59 78.9923 207.323 78.3223C207.743 78.2664 208.222 78.2106 208.642 78.3223C209.361 78.4339 209.6 78.9923 209.78 79.5506C210.08 80.5555 210.319 81.6163 210.799 82.6213C211.218 83.6821 211.578 84.7429 211.937 85.8037C212.596 87.6461 213.016 89.5444 213.615 91.331C214.214 93.006 214.933 94.6809 215.532 96.3559C215.892 97.4725 216.491 97.975 217.809 97.9192C219.427 97.8633 220.626 98.5891 221.285 100.097C221.944 101.548 222.483 102.944 222.603 104.507C222.663 105.177 222.663 105.847 222.603 106.517C222.363 107.578 222.184 108.583 221.944 109.644C221.764 110.705 221.345 111.765 221.524 112.826C221.764 114.11 222.184 115.394 222.483 116.623C222.543 116.958 222.783 116.902 222.962 116.79C222.962 116.79 232.01 107.522 236.504 110.09C240.999 112.659 243.755 117.404 246.931 121.703C250.106 126.002 256.877 127.175 257.117 132.981C257.357 138.788 258.795 141.524 261.611 144.371C264.427 147.218 264.967 153.527 265.806 157.826C266.644 162.125 270 165.42 270 168.49C270 171.561 269.161 173.348 264.547 177.647C259.933 181.946 258.076 188.701 256.398 191.214C254.72 193.726 248.608 197.188 248.608 197.188L246.931 200.091Z" fill="black"></path><path d="M187.909 53.086C188.208 54.7051 188.568 56.3242 188.628 57.9992C188.628 58.3342 188.568 58.6692 188.448 58.9483C188.388 59.395 188.388 59.8975 188.448 60.3441C188.628 61.0699 188.867 61.8516 188.807 62.6332C188.987 62.9124 188.807 63.1915 188.927 63.4149C188.927 63.5823 188.927 63.8057 188.987 63.9732C189.167 64.2523 188.987 64.5315 189.107 64.7548C189.467 66.7089 190.066 68.663 190.605 70.6171C190.725 71.0638 190.785 71.5663 190.605 72.0129C189.766 74.0229 189.167 76.0886 188.807 78.266C188.748 78.5452 188.748 78.8802 188.807 79.1594C188.927 79.3269 189.047 79.4385 189.107 79.606C189.347 80.1643 189.706 80.1643 190.186 79.941C191.504 79.3268 192.822 78.601 194.26 78.0986C197.017 77.0936 199.773 76.1444 202.709 75.7536C203.608 75.642 204.507 75.4186 205.405 75.4745C205.885 75.307 206.424 75.4745 206.963 75.3628C208.042 75.0837 208.162 74.637 207.622 73.6879C206.963 72.5154 205.765 71.9012 204.746 71.0638C203.548 70.1146 202.469 69.1097 201.151 68.2722C200.971 68.1605 200.792 67.9372 200.732 67.7139C200.192 66.0389 199.234 64.4757 198.634 62.8007C198.395 62.2424 198.215 61.7399 197.496 61.5166C196.897 61.3491 196.897 60.6233 196.657 60.1208C196.238 59.2275 195.878 58.2783 195.519 57.385C195.519 57.3292 195.459 57.2175 195.399 57.2175C193.721 56.2126 193.781 54.3701 193.062 52.9185C192.582 51.9694 192.043 51.0202 191.144 50.4061C189.527 49.4011 188.568 50.0153 188.088 51.5786C188.029 51.746 188.208 52.0252 187.909 52.1369C187.909 52.5277 187.789 52.8627 187.909 53.086Z" fill="black"></path><path d="M234.767 219.464C234.467 219.464 234.167 219.464 233.868 219.575C234.167 219.575 234.467 219.686 234.767 219.464Z" fill="#EFBB00"></path><path d="M209.181 169.327C208.821 171.058 208.522 172.621 208.222 174.185C207.923 175.636 207.563 177.032 207.024 178.428C206.844 178.874 206.664 178.93 206.305 178.595C205.885 178.26 205.706 177.869 205.766 177.367C205.825 176.306 205.825 175.19 205.945 174.129C206.305 171.226 206.125 168.378 205.646 165.531C204.927 161.008 204.268 156.486 202.829 152.075C201.991 149.507 201.152 146.939 200.313 144.426C199.953 143.31 200.313 142.361 200.852 141.411C202.77 138.341 204.687 135.326 206.604 132.255C207.803 130.357 208.941 128.459 210.26 126.616C211.218 125.276 211.638 123.657 212.357 122.205C213.855 119.19 215.473 116.176 217.15 113.216C218.229 111.262 218.708 109.085 219.367 107.019C219.427 106.908 219.367 106.74 219.367 106.573C218.948 106.628 218.828 106.907 218.648 107.131C215.652 110.034 212.656 112.937 209.6 115.729C207.923 117.292 206.005 118.52 204.028 119.581C202.53 120.363 200.912 120.14 199.654 119.023C198.815 118.241 198.216 117.292 197.736 116.231C197.556 115.841 197.497 115.673 197.077 116.064C192.703 120.028 188.389 123.992 184.374 128.291C181.618 131.25 179.401 134.488 177.244 137.838C175.086 141.244 174.248 145.04 174.068 148.949C174.008 149.73 173.948 150.568 174.008 151.349C174.128 153.471 173.289 155.369 172.57 157.323C171.132 161.343 169.274 165.14 166.877 168.713C163.282 173.961 159.447 179.042 155.133 183.843C151.717 187.64 148.122 191.269 144.467 194.898C143.928 195.401 143.329 195.903 142.789 196.406C142.25 196.908 141.95 197.466 142.19 198.136C143.029 200.258 143.269 202.491 143.928 204.669C144.647 207.181 145.725 209.526 147.164 211.703C149.381 214.997 151.418 218.403 154.294 221.251C158.129 224.991 162.204 228.509 166.817 231.468C172.15 234.874 177.843 237.609 183.535 240.345C184.973 241.071 185.333 240.959 186.531 239.898C190.845 236.213 195.459 232.752 199.953 229.235C204.567 225.605 209.241 222.032 213.915 218.571C215.832 217.175 217.81 215.779 219.607 214.216C221.644 212.485 224.101 211.313 226.498 210.084C227.517 209.526 227.577 209.526 227.217 208.521C224.521 201.43 222.184 194.228 219.907 187.026C219.667 186.3 219.427 185.742 218.529 185.574C218.109 185.518 217.81 185.239 217.57 184.904C215.592 182.336 213.555 179.768 213.016 176.53C212.776 175.245 212.596 174.017 213.316 172.845C213.495 172.51 213.375 172.342 213.076 172.175C211.758 171.337 210.499 170.5 209.181 169.327Z" fill="#F7B821"></path><path d="M216.31 168.434C217.808 167.876 219.067 167.15 220.205 166.312C225.658 162.293 231.171 158.384 236.384 154.085C240.758 150.456 245.072 146.827 249.386 143.142C250.705 141.97 251.843 140.63 253.101 139.402C254.18 138.341 254.54 137.168 253.761 135.828C253.521 135.493 253.401 135.103 253.221 134.712C252.143 131.474 249.806 129.129 246.93 127.175C245.731 126.393 244.773 126.393 243.634 127.286C241.896 128.626 240.219 130.078 238.601 131.529C234.107 135.717 229.373 139.681 224.879 143.868C223.321 145.32 221.523 146.492 219.846 147.776C216.79 150.177 213.674 152.466 210.858 155.09C210.618 155.314 210.378 155.425 210.798 155.76C213.075 157.491 214.812 159.613 215.891 162.125C216.191 162.907 216.49 163.688 216.79 164.47C217.209 165.81 217.149 166.536 216.31 168.434Z" fill="#F7B821"></path><path d="M224.82 181.778C225.359 181.722 225.778 181.443 226.258 181.164C228.295 179.88 230.452 178.763 232.609 177.702C233.448 177.311 234.227 176.865 235.006 176.306C240.938 172.175 246.631 167.764 252.203 163.242C254.66 161.232 256.997 159.054 259.034 156.654C259.933 155.593 260.652 154.309 261.491 153.192C261.79 152.745 261.671 152.243 261.611 151.74C261.371 150.121 260.832 148.614 259.813 147.33C259.394 146.771 259.034 146.157 258.794 145.487C258.135 143.924 256.877 142.752 255.679 141.523C255.439 141.3 255.199 141.3 254.959 141.523C254.9 141.635 254.78 141.691 254.66 141.802C249.746 147.274 244.054 151.964 238.242 156.486C232.669 160.841 226.857 164.917 220.745 168.546C219.187 169.495 219.187 169.495 220.745 170.444C221.883 171.114 222.662 172.007 223.202 173.18C223.801 174.464 224.52 175.636 224.82 177.032C225.119 178.428 225.059 179.824 224.64 181.22C224.58 181.443 224.58 181.666 224.82 181.778Z" fill="#F7B821"></path><path d="M210.139 151.741C210.499 151.518 210.858 151.294 211.218 151.015C217.03 146.213 223.142 141.691 228.415 136.387C231.351 133.428 234.647 130.916 237.523 127.957C239.38 126.058 241.298 124.16 243.635 122.764C244.054 122.485 244.234 122.15 243.874 121.815C241.238 119.414 239.201 116.511 235.905 114.78C235.006 114.334 234.167 114.278 233.209 114.501C230.932 115.059 229.134 116.399 227.396 117.851C224.34 120.363 221.464 123.043 218.228 125.332C216.97 126.226 215.712 127.063 214.453 127.789C213.914 128.124 213.435 128.571 213.015 129.073C210.259 132.702 207.503 136.331 205.106 140.184C204.986 140.351 204.866 140.519 204.746 140.742C204.327 141.356 204.447 141.747 205.226 141.97C205.885 142.138 206.484 142.584 206.903 143.087C208.102 144.427 209.24 145.823 210.019 147.442C210.738 148.726 210.858 150.178 210.139 151.741Z" fill="#F7B821"></path><path d="M234.049 193.838C234.888 193.838 235.487 193.558 236.086 193.279C243.936 189.929 250.647 185.072 257.358 180.047C259.695 178.316 262.151 176.809 264.308 174.911C265.207 174.129 266.106 173.292 266.825 172.342C267.424 171.449 267.664 170.5 267.364 169.495C266.825 167.82 266.406 166.145 265.687 164.47C264.908 162.572 263.589 161.12 261.732 160.06C261.133 159.725 260.773 159.725 260.234 160.227C257.597 162.572 255.26 165.14 252.564 167.429C248.19 171.17 243.636 174.743 238.663 177.758C235.846 179.489 233.15 181.387 230.334 183.174C229.914 183.453 230.034 183.62 230.214 183.9C231.053 185.016 231.891 186.189 232.73 187.361C233.27 188.087 233.749 188.869 234.168 189.706C234.768 191.102 235.067 192.442 234.049 193.838Z" fill="#F7B821"></path><path d="M234.886 216.673C236.624 216.673 238.002 215.947 239.38 215.5C241.358 214.83 243.155 213.937 245.013 213.044C245.732 212.709 246.211 212.151 246.691 211.592C246.99 211.257 246.87 210.866 246.751 210.476C245.852 207.796 244.953 205.116 244.114 202.436C243.395 200.203 242.616 198.025 242.017 195.792C241.837 195.178 241.537 194.564 241.298 194.005C241.058 193.447 240.639 193.67 240.279 193.894C238.182 195.122 236.025 196.015 233.688 196.741C231.531 197.355 229.374 197.467 227.157 196.853C226.917 196.797 226.617 196.518 226.378 196.741C226.138 196.964 226.438 197.299 226.557 197.523C227.456 199.7 228.355 201.822 229.194 203.999C230.692 207.852 231.89 211.76 233.448 215.612C233.748 216.338 234.107 216.896 234.886 216.673Z" fill="#020304"></path><path d="M193.663 84.8544C194.022 87.9252 194.681 90.9401 195.7 93.8433C195.999 94.6808 196.419 94.7925 197.258 94.6808C200.793 94.1225 204.149 93.1175 207.504 92.0009C208.343 91.7217 209.242 91.4426 210.081 91.1634C210.5 91.0518 210.68 90.9401 210.5 90.4934C209.482 87.4785 208.463 84.4636 207.504 81.4487C207.384 81.1137 207.264 80.9462 206.785 81.0579C202.89 82.0629 198.995 83.1237 195.041 83.9053C194.681 83.9611 194.322 84.1845 193.962 84.2961C193.723 84.4078 193.543 84.5195 193.663 84.8544Z" fill="#0154D4"></path><path d="M197.196 98.3101C197.436 99.1475 197.675 100.041 197.975 100.878C198.814 103.279 199.713 105.624 200.432 108.025C200.671 108.806 200.791 108.806 201.45 108.304C201.99 107.857 202.589 107.411 203.128 106.908C204.746 105.512 206.304 104.005 207.922 102.609C209.48 101.269 210.918 99.7617 212.955 98.8684C213.255 98.7567 213.434 98.5334 213.315 98.1984C212.895 96.6351 212.176 95.1835 211.637 93.676C211.517 93.2852 211.157 93.2294 210.738 93.3969C209.12 93.9552 207.502 94.4577 205.884 94.9602C203.248 95.8535 200.671 96.8026 197.975 97.5284C197.555 97.6401 197.136 97.7517 197.196 98.3101Z" fill="#020304"></path><path d="M217.509 100.375C215.412 100.766 213.375 101.492 211.817 103.055C209.839 104.954 207.982 106.908 205.825 108.583C204.087 109.923 202.23 111.263 200.432 112.602C199.533 113.272 199.533 113.552 200.132 114.389C200.612 115.003 201.091 115.673 201.57 116.287C202.11 117.013 202.589 117.069 203.368 116.567C207.143 114.11 210.319 111.039 213.495 107.913C214.813 106.628 216.131 105.344 217.449 104.06C217.929 103.558 218.408 103.055 218.768 102.441C219.127 101.883 218.887 100.878 218.408 100.487C218.108 100.375 217.869 100.375 217.509 100.375Z" fill="#E9E7C4"></path><path d="M222.543 179.488C222.543 179.321 222.543 179.042 222.423 178.707C221.644 176.474 220.505 174.408 218.708 172.677C218.348 172.342 217.989 172.23 217.569 172.51C217.21 172.733 216.79 172.9 216.431 173.124C215.712 173.515 215.352 174.129 215.472 174.854C216.011 177.534 217.15 179.991 218.828 182.224C219.427 183.006 220.206 183.006 220.985 182.392C221.884 181.666 222.543 180.828 222.543 179.488Z" fill="#E9E7C4"></path><path d="M257.237 184.402C256.458 184.681 255.919 185.239 255.32 185.686C252.264 188.086 248.848 189.985 245.553 192.051C245.493 192.106 245.433 192.106 245.313 192.162C243.935 192.721 243.935 192.721 244.234 194.116C244.534 195.456 244.834 196.796 245.373 198.025C249.747 193.726 253.222 188.868 257.237 184.402Z" fill="#F7B821"></path><path d="M224.34 190.153C224.28 191.66 224.939 192.442 225.898 193.056C225.958 193.112 226.138 193.168 226.198 193.168C227.756 192.833 229.433 193.112 230.991 192.442C231.59 192.163 231.77 191.94 231.351 191.325C230.452 189.874 229.733 188.311 228.834 186.859C228.535 186.412 228.295 186.356 227.815 186.636C226.797 187.25 225.838 187.808 225.059 188.701C224.58 189.204 224.4 189.818 224.34 190.153Z" fill="#E9E7C4"></path><path d="M207.982 158.998C208.341 160.338 208.701 161.678 209.12 163.018C209.54 164.526 210.199 165.977 211.397 167.15C211.757 167.485 211.936 168.043 212.655 167.82C213.434 167.541 213.974 166.871 213.974 166.201C213.974 165.866 213.854 165.587 213.734 165.307C212.715 163.577 211.757 161.734 210.558 160.059C210.139 159.501 209.659 158.943 209.06 158.496C208.88 158.328 208.701 158.049 208.401 158.217C208.042 158.44 207.982 158.719 207.982 158.998Z" fill="#E9E7C4"></path><path d="M203.128 145.599C203.128 145.766 203.128 145.878 203.188 145.99C203.847 147.944 204.506 149.842 205.165 151.796C205.285 152.243 205.585 152.187 205.944 152.02C206.903 151.517 207.263 150.68 207.802 149.898C207.922 149.675 207.802 149.507 207.682 149.284C206.963 147.385 205.465 146.046 204.147 144.594C203.847 144.259 203.548 144.315 203.368 144.761C203.248 145.041 203.188 145.32 203.128 145.599Z" fill="#E9E7C4"></path><path d="M224.82 181.778C224.76 181.61 224.7 181.443 224.641 181.275C224.461 181.443 224.341 181.61 224.401 181.833C224.461 181.945 224.7 181.833 224.82 181.778Z" fill="#D0A300"></path><path d="M204.028 73.5208C202.889 72.6275 201.93 71.8458 200.972 71.12C199.773 70.2825 198.994 69.2217 198.515 67.9376C198.095 66.7651 197.496 65.6485 197.017 64.5319C196.837 64.1411 196.717 64.0852 196.298 64.2527C194.98 64.811 193.601 65.2019 192.223 65.481C191.744 65.5927 191.624 65.7602 191.744 66.2068C191.984 67.491 192.343 68.7751 192.882 69.9475C193.422 71.1758 193.422 72.2925 192.763 73.5208C192.403 74.1907 192.223 74.9166 191.984 75.6424C191.924 75.754 191.804 75.9774 191.984 76.089C192.163 76.2565 192.343 76.0332 192.463 75.9774C194.8 74.9724 197.197 74.1907 199.773 73.7441C201.032 73.5208 202.41 73.5208 204.028 73.5208Z" fill="#0154D4"></path><path d="M191.264 63.0244C192.103 63.2477 192.822 62.8569 193.601 62.6335C195.039 62.2427 195.039 62.1869 194.56 60.9028C194.38 60.3444 194.08 59.7303 193.841 59.172C193.721 58.8928 193.481 58.6137 193.062 58.7812C192.283 59.0045 191.444 59.0603 190.725 59.507C190.905 60.6794 191.024 61.8519 191.264 63.0244Z" fill="#E8E6C2"></path><path d="M156.151 214.44C156.75 214.161 157.349 213.882 157.889 213.547C158.128 213.379 157.889 213.212 157.829 213.1C154.893 207.908 151.897 202.715 148.961 197.467C148.781 197.132 148.601 197.076 148.182 197.244C146.564 197.97 146.564 197.97 147.403 199.421C150.159 204.223 152.915 209.08 155.672 213.882C155.791 214.105 155.792 214.44 156.151 214.44Z" fill="#E9E7C4"></path><path d="M155.911 202.659C156.51 202.324 157.049 201.989 157.648 201.654C157.888 201.487 157.648 201.319 157.589 201.208C156.21 199.03 154.772 196.909 153.394 194.731C153.214 194.452 153.095 194.396 152.735 194.564C151.057 195.401 151.057 195.345 152.016 196.909C153.154 198.639 154.293 200.426 155.431 202.157C155.551 202.38 155.611 202.603 155.911 202.659Z" fill="#E9E7C4"></path><path d="M188.868 124.16C188.508 124.272 188.328 124.551 188.149 124.83C187.25 125.723 187.25 125.723 188.268 126.561C189.407 127.51 190.605 128.459 191.744 129.408C192.103 129.687 192.343 129.799 192.702 129.408C193.781 128.236 193.841 128.236 192.583 127.231C191.504 126.338 190.426 125.444 189.347 124.551C189.227 124.439 189.047 124.328 188.868 124.16Z" fill="#E9E7C4"></path><path d="M183.835 129.408C184.015 129.52 184.134 129.575 184.254 129.631C185.632 130.748 187.011 131.92 188.389 133.093C188.688 133.372 188.868 133.372 189.168 133.093C190.426 131.864 190.426 131.864 189.048 130.748C187.969 129.855 186.831 128.961 185.752 128.012C185.453 127.733 185.213 127.733 184.973 128.068C184.734 128.403 184.374 128.682 184.074 129.017C184.074 129.073 184.015 129.185 183.835 129.408Z" fill="#E9E7C4"></path><path d="M216.97 156.04C217.03 156.151 217.149 156.263 217.209 156.375C218.288 157.771 219.426 159.111 220.505 160.506C220.805 160.897 220.984 160.841 221.344 160.618C222.722 159.669 222.782 159.669 221.763 158.385C220.924 157.324 220.026 156.263 219.187 155.146C218.827 154.7 218.588 154.7 218.168 155.035C217.868 155.258 217.569 155.481 217.269 155.705C217.09 155.761 216.91 155.816 216.97 156.04Z" fill="#E9E7C4"></path><path d="M242.917 132.423C243.097 132.702 243.217 132.814 243.277 132.925C244.355 134.265 245.434 135.661 246.513 137.001C246.752 137.336 246.932 137.392 247.351 137.113C248.789 136.164 248.789 136.164 247.711 134.824C246.812 133.707 245.973 132.646 245.134 131.53C244.895 131.195 244.715 131.139 244.355 131.418C243.996 131.697 243.636 131.976 243.217 132.2C243.157 132.311 242.977 132.367 242.917 132.423Z" fill="#E9E7C4"></path><path d="M220.326 153.583C220.386 153.639 220.446 153.75 220.506 153.862C221.644 155.258 222.723 156.653 223.861 158.049C224.101 158.328 224.221 158.384 224.58 158.161C226.138 157.212 226.138 157.212 225.06 155.816C224.221 154.755 223.322 153.694 222.543 152.578C222.243 152.131 222.004 152.131 221.584 152.466C221.285 152.689 220.985 152.913 220.685 153.136C220.506 153.304 220.326 153.359 220.326 153.583Z" fill="#E9E7C4"></path><path d="M254.181 147.218C253.582 147.665 252.983 148.056 252.443 148.503C252.323 148.614 252.503 148.726 252.563 148.837C253.702 150.289 254.84 151.741 255.979 153.192C256.218 153.472 256.338 153.472 256.638 153.304C258.196 152.355 258.196 152.355 257.057 150.959C256.218 149.898 255.319 148.837 254.481 147.721C254.481 147.498 254.301 147.386 254.181 147.218Z" fill="#E9E7C4"></path><path d="M232.19 174.409C232.37 174.409 234.048 173.236 233.988 173.18C233.928 173.069 233.868 172.901 233.748 172.789C232.669 171.449 231.591 170.054 230.512 168.714C230.213 168.323 230.033 168.267 229.614 168.546C228.235 169.495 228.235 169.495 229.254 170.779C230.153 171.896 230.992 172.957 231.89 174.074C231.95 174.185 232.07 174.297 232.19 174.409Z" fill="#E9E7C4"></path><path d="M226.617 170.779C226.078 171.17 225.538 171.505 225.059 171.951C224.879 172.063 225.179 172.286 225.239 172.398C226.377 173.794 227.456 175.189 228.594 176.585C228.834 176.92 229.014 176.864 229.313 176.641C230.811 175.692 230.811 175.692 229.733 174.296C228.894 173.235 228.055 172.174 227.156 171.058C226.976 171.002 226.916 170.723 226.617 170.779Z" fill="#E9E7C4"></path><path d="M231.95 118.13C232.07 118.298 232.13 118.41 232.25 118.465C233.328 119.805 234.407 121.201 235.486 122.541C235.785 122.932 235.965 122.932 236.384 122.653C237.763 121.704 237.763 121.704 236.804 120.475C235.905 119.359 235.006 118.242 234.167 117.125C233.868 116.735 233.688 116.735 233.328 117.014C233.029 117.293 232.609 117.516 232.25 117.74C232.13 117.907 231.95 118.019 231.95 118.13Z" fill="#E9E7C4"></path><path d="M210.559 137.224C210.679 137.391 210.739 137.503 210.858 137.615C211.937 139.011 213.076 140.351 214.154 141.746C214.394 142.026 214.574 142.137 214.933 141.858C216.431 140.909 216.431 140.909 215.353 139.513C214.514 138.452 213.675 137.447 212.836 136.331C212.476 135.884 212.237 135.884 211.817 136.219C211.518 136.442 211.218 136.666 210.918 136.889C210.739 137.001 210.679 137.112 210.559 137.224Z" fill="#E9E7C4"></path><path d="M217.809 139.793C218.528 139.29 219.068 138.9 219.607 138.453C219.727 138.341 219.487 138.174 219.427 138.062C218.289 136.611 217.15 135.215 216.012 133.763C215.892 133.651 215.832 133.372 215.592 133.54C215.053 133.875 214.574 134.21 214.094 134.601C213.915 134.712 214.034 134.88 214.154 134.991C215.293 136.443 216.491 137.895 217.63 139.402C217.69 139.514 217.69 139.625 217.809 139.793Z" fill="#E9E7C4"></path><path d="M238.003 189.259C238.542 188.98 239.141 188.645 239.74 188.31C239.92 188.198 239.74 188.031 239.68 187.919C238.722 186.356 237.823 184.793 236.864 183.229C236.744 183.006 236.564 182.894 236.265 183.062C235.845 183.285 235.426 183.508 234.947 183.732C234.647 183.843 234.587 184.011 234.767 184.29C235.726 185.853 236.684 187.473 237.643 189.036C237.763 189.092 237.823 189.259 238.003 189.259Z" fill="#E9E7C4"></path><path d="M238.363 182.057C238.423 182.169 238.542 182.337 238.602 182.448C239.441 183.9 240.34 185.296 241.179 186.747C241.419 187.138 241.598 187.306 242.078 187.026C243.516 186.245 243.576 186.245 242.677 184.849C242.018 183.732 241.299 182.56 240.64 181.443C240.34 180.885 240.04 180.885 239.561 181.22C239.261 181.443 238.902 181.555 238.542 181.778C238.483 181.778 238.363 181.834 238.363 182.057Z" fill="#E9E7C4"></path><path d="M258.495 167.541C258.555 167.709 258.675 167.82 258.734 167.988C259.633 169.439 260.532 170.891 261.371 172.343C261.671 172.789 261.85 172.789 262.33 172.566C263.768 171.784 263.768 171.84 262.989 170.5C262.27 169.384 261.551 168.267 260.952 167.095C260.592 166.425 260.292 166.425 259.753 166.815C259.513 166.983 259.154 167.095 258.914 167.262C258.675 167.318 258.495 167.374 258.495 167.541Z" fill="#E9E7C4"></path><path d="M256.644 9.27686L242.594 43.653L253.147 48.5458L266.434 14.8685L256.644 9.27686Z" fill="#DC0816"></path><path d="M357.662 244.891L326.13 227.353L331.724 217.568L363.256 233.644L357.662 244.891Z" fill="#DC0816"></path><path d="M152.13 322.73L140.878 317.138L154.228 282.063L164.718 287.654L152.13 322.73Z" fill="#DC0816"></path><path d="M41.2594 107.45L38.4622 118.697L72.0922 129.181L77.7502 119.396L41.2594 107.45Z" fill="#DC0816"></path><path d="M120.037 18.9829L138.474 47.5132L147.692 44.1455L130.082 13.0735L120.037 18.9829Z" fill="#0154D4"></path><path d="M78.0674 224.938L47.8067 243.429L42.7844 232.5L72.1551 214.899L78.0674 224.938Z" fill="#0154D4"></path><path d="M257.66 281.173L272.727 310.53L262.683 316.375L246.726 283.651L257.66 281.173Z" fill="#0154D4"></path><path d="M362.115 104.457L358.746 92.7015L326.832 105.283L329.375 115.322L362.115 104.457Z" fill="#0154D4"></path><path d="M333.567 216.551C335.982 217.568 338.271 218.838 340.56 220.109C343.293 221.634 345.9 223.54 348.697 224.875C352.638 226.781 356.008 229.513 360.013 231.293C361.475 231.992 362.874 233.008 364.399 233.58C365.289 233.898 365.607 234.343 365.544 235.232C365.48 236.122 365.353 237.011 364.844 237.774C362.937 240.824 361.094 243.937 359.25 246.987C358.296 248.576 357.279 248.767 355.69 247.877C355.563 247.813 355.436 247.686 355.308 247.623C352.193 245.717 349.078 243.683 345.963 241.84C342.594 239.871 339.161 237.964 335.728 236.185C331.977 234.215 328.226 232.182 324.603 230.022C323.522 229.386 322.505 228.624 321.678 227.48C324.857 223.604 327.464 219.347 329.816 214.835C331.342 215.216 332.359 216.043 333.567 216.551ZM359.123 236.63C350.032 231.038 340.877 225.637 331.659 219.982C330.833 221.189 330.261 222.206 329.498 223.159C328.799 223.985 327.845 224.621 327.4 225.637C327.527 225.764 327.654 226.019 327.845 226.082C331.151 227.798 334.393 229.64 337.508 231.674C337.953 231.992 338.398 232.246 338.907 232.373C341.513 233.199 343.611 234.978 346.154 235.931C347.616 236.503 348.824 237.583 350.159 238.473C352.066 239.68 353.973 240.76 356.199 241.777C357.216 239.934 358.614 238.536 359.123 236.63Z" fill="black"></path><path d="M153.084 279.648C156.962 281.745 160.967 283.714 165.226 284.922C166.18 285.176 166.37 285.684 165.989 286.701C165.544 287.845 165.353 289.052 164.908 290.132C163.637 293.436 162.937 296.931 161.412 300.108C160.522 301.951 159.695 303.794 159.187 305.764C158.424 308.75 156.834 311.482 155.881 314.342C154.991 316.947 153.91 319.489 153.084 322.157C152.575 323.746 152.384 323.937 150.795 324C150.096 324 149.46 323.873 148.824 323.555C145.518 322.157 142.149 320.823 138.843 319.425C137.254 318.726 136.873 317.773 137.508 316.184C138.716 313.261 139.733 310.275 141.195 307.479C143.293 303.349 144.565 298.965 146.154 294.707C147.616 290.704 149.015 286.701 150.604 282.698C151.049 281.554 151.685 280.537 152.511 279.584C152.766 279.648 152.956 279.584 153.084 279.648ZM147.553 317.392C147.998 317.582 148.57 317.646 149.079 317.773C149.969 315.803 150.795 313.897 151.494 311.927C151.685 311.419 151.876 310.974 152.13 310.466C152.893 308.941 153.656 307.479 154.101 305.7C154.482 304.048 155.436 302.586 156.135 300.998C157.661 297.312 159.187 293.627 160.712 289.942C161.475 288.099 161.475 288.099 159.695 287.336C158.678 286.892 157.597 286.51 156.834 285.621C156.453 285.112 155.817 285.049 155.118 284.922C154.355 286.892 153.465 288.861 152.766 290.895C151.685 293.945 150.477 296.931 149.524 300.045C148.443 303.54 147.298 307.034 145.582 310.275C144.692 311.927 144.183 313.706 143.738 315.676C144.946 316.248 146.218 316.883 147.553 317.392Z" fill="black"></path><path d="M240.688 41.8107C241.387 39.4596 242.023 37.045 242.913 34.7575C244.82 29.7377 246.854 24.6544 248.952 19.6981C249.651 18.046 250.414 16.3939 250.986 14.7418C251.876 12.2001 253.084 9.78554 253.529 7.18032C254.801 6.5449 256.009 6.5449 257.153 6.9897C260.586 8.45116 264.082 9.91262 267.515 11.3741C267.706 11.4376 267.897 11.6283 268.088 11.7553C268.914 12.1366 269.041 12.8356 268.914 13.6616C268.85 14.1064 268.66 14.4876 268.469 14.9324C267.007 18.3002 265.545 21.6679 264.082 25.0356C262.366 29.0387 260.84 33.1054 259.378 37.2357C258.043 40.9846 256.644 44.6065 255.119 48.292C254.674 49.4357 253.974 50.3888 253.148 51.2784C248.825 48.6097 244.311 46.7034 239.607 45.1149C239.671 43.6534 240.433 42.8273 240.688 41.8107ZM253.339 39.6502C254.483 36.6638 255.691 33.6773 256.644 30.5638C257.852 26.7512 259.378 23.0023 261.095 19.3804C261.73 18.046 262.112 16.5845 262.684 15.1231C260.777 14.297 259.187 13.2168 257.089 12.8356C256.517 14.2335 255.882 15.5679 255.373 16.9022C254.801 18.3637 254.292 19.8252 253.466 21.2231C252.83 22.3033 252.449 23.5106 252.131 24.7814C251.686 26.4971 250.669 28.0221 249.969 29.6742C248.38 33.2961 246.854 36.9815 245.265 40.6034C245.074 41.0482 244.947 41.4294 244.82 41.8742C244.756 42.2555 244.82 42.7003 245.265 42.8273C247.363 43.2721 248.761 44.9242 250.923 45.9409C251.622 43.5899 252.639 41.62 253.339 39.6502Z" fill="black"></path><path d="M77.0496 122.827C75.8417 125.559 74.5703 128.291 73.9345 131.278C73.6803 132.358 73.1717 132.548 72.0909 132.231C71.3916 132.04 70.6923 131.722 69.993 131.468C66.9415 130.515 63.7629 129.816 60.775 128.672C58.1049 127.656 55.4984 126.448 52.7648 125.686C48.6325 124.542 44.8817 122.445 40.7495 121.429C39.4145 121.047 38.0794 120.475 36.6808 120.094C34.8372 119.586 34.4558 119.141 34.6465 117.362C34.7101 116.79 34.9008 116.218 35.0915 115.646C35.9815 112.723 37.3801 109.928 38.5244 107.068C38.7787 106.433 38.9059 105.797 39.2237 105.162C39.6688 104.463 40.2409 104.145 41.0674 104.209C41.5759 104.272 42.0845 104.463 42.5931 104.654C46.026 105.988 49.459 107.322 52.8283 108.72C55.2441 109.737 57.787 110.499 60.2664 111.389C65.0343 113.105 69.993 114.312 74.6974 116.282C76.2867 116.917 77.8761 117.489 79.3382 118.696C78.4482 120.031 77.6853 121.365 77.0496 122.827ZM40.6223 116.028C42.0845 116.599 43.4196 117.171 44.8182 117.616C46.2803 118.124 47.8061 118.633 49.2047 119.395C50.349 120.031 51.4933 120.348 52.7648 120.666C54.4812 121.111 56.0706 122 57.7235 122.636C61.3471 124.034 65.0343 125.432 68.658 126.893C69.103 127.084 69.4844 127.211 69.9294 127.338C70.3109 127.402 70.8195 127.338 70.883 126.957C71.2645 124.86 73.0445 123.398 73.6167 121.429C73.7438 121.111 73.2352 120.984 72.9809 120.92C69.4209 119.777 65.9244 118.442 62.4279 117.044C62.11 116.917 61.7285 116.727 61.3471 116.663C58.6135 116.345 56.1977 115.011 53.5912 114.439C51.9383 114.058 50.349 113.295 48.7597 112.533C46.8525 111.58 44.8182 111.071 42.5931 110.436C41.8938 112.342 40.8766 113.994 40.6223 116.028Z" fill="black"></path><path d="M130.644 42.1283C128.291 38.1887 126.066 34.1856 123.778 30.246C121.743 26.7512 119.836 23.1928 117.738 19.7615C116.912 18.4272 116.975 17.7282 118.056 16.5845C118.438 16.2032 118.819 15.8219 119.264 15.6313C121.553 14.3605 123.778 12.899 126.257 12.0094C127.401 11.6282 128.482 11.1198 129.563 10.6751C130.898 10.1032 131.343 10.1667 131.915 11.374C132.996 13.598 134.331 15.6949 135.348 17.9824C137.192 22.0491 139.671 25.7345 141.96 29.4835C144.185 33.1689 146.537 36.8543 148.635 40.6033C149.27 41.7471 149.715 42.8908 149.906 44.2887C147.554 45.1783 145.329 46.1315 143.104 47.3388C140.879 48.546 138.717 49.8169 136.429 51.0877C134.521 47.9742 132.487 45.1783 130.644 42.1283ZM144.057 42.9544C144.185 42.446 143.994 42.1283 143.803 41.8106C141.832 38.6971 140.052 35.52 138.336 32.2793C138.145 31.9616 138.018 31.5804 137.764 31.3262C135.857 29.3564 134.839 26.8147 133.314 24.5907C131.915 22.4939 130.898 20.1428 129.754 17.8553C129.436 17.2199 129.118 16.7115 128.355 16.2032C126.702 17.0292 125.049 17.9824 123.396 19.3803C124.477 21.6678 125.939 23.6376 126.829 25.9251C127.719 28.2762 129.563 30.1189 130.516 32.5335C131.406 34.821 132.741 36.9814 134.013 39.0148C135.348 41.1116 136.111 43.5262 137.954 45.6231C139.925 43.9075 142.15 43.7804 144.057 42.9544Z" fill="black"></path><path d="M73.3637 212.993C75.0802 216.996 77.1145 220.872 79.7846 224.303C79.9753 224.557 80.166 225.002 79.9117 225.574C77.2416 227.48 74.4444 229.514 71.5837 231.42C67.7693 234.089 63.7006 236.376 59.7591 238.854C56.3262 241.015 52.8297 242.985 49.4603 245.209C48.2524 245.971 47.7438 245.971 46.5995 245.145C45.9638 244.7 45.4552 244.192 45.0738 243.493C43.8659 241.269 42.2766 239.236 41.3865 236.758C40.9415 235.614 40.433 234.534 39.9244 233.517C39.3522 232.246 39.4158 231.928 40.6237 231.229C41.7044 230.594 42.9759 230.149 43.993 229.45C47.3624 227.099 51.1132 225.32 54.5461 223.032C58.9327 220.173 63.0649 216.996 67.7057 214.454C69.295 213.628 70.7572 212.612 72.728 212.103C73.0458 212.421 73.2366 212.675 73.3637 212.993ZM70.7572 218.33C67.7057 220.491 64.4635 222.27 61.2213 224.24C60.9034 224.43 60.522 224.621 60.2677 224.875C58.2969 226.781 55.8812 227.989 53.6561 229.514C51.6854 230.912 49.3967 231.992 47.2352 233.199C46.5359 233.58 45.9638 233.962 45.6459 234.724C46.5995 236.376 47.5531 237.901 48.761 239.299C49.4603 239.553 49.8417 239.109 50.2867 238.791C51.8125 237.774 53.2747 236.758 54.9276 236.059C56.0083 235.614 56.9619 234.915 57.9791 234.152C59.4412 233.009 61.2213 232.31 62.8106 231.356C66.18 229.387 69.5493 227.417 72.9187 225.384C73.3001 225.129 73.6816 224.939 74.063 224.685C74.4444 224.367 74.6987 223.859 74.3173 223.477C72.9823 221.889 72.728 219.855 71.7744 217.822C71.2658 218.076 70.9479 218.203 70.7572 218.33Z" fill="black"></path><path d="M258.995 280.601C260.394 282.825 261.665 285.113 262.873 287.464C264.78 291.213 266.497 295.089 268.34 298.838C270.184 302.65 271.901 306.59 273.935 310.339C274.38 311.228 274.316 311.927 273.744 312.626C273.172 313.325 272.473 313.834 271.646 314.278C268.213 316.058 264.59 317.265 260.966 318.472C260.012 318.79 259.44 318.536 258.995 317.519C258.105 315.168 256.897 313.008 256.071 310.656C254.482 306.463 252.32 302.65 250.286 298.711C248.315 294.835 246.281 291.022 244.437 287.082C243.928 285.939 243.483 284.731 243.483 283.27C248.251 281.872 252.765 279.902 257.024 277.488C258.296 278.441 258.359 279.648 258.995 280.601ZM252.829 293.119C253.909 295.47 255.244 297.63 256.452 299.854C258.423 303.476 260.33 307.162 261.729 311.038C261.983 311.673 262.301 312.245 262.873 312.626C264.907 312.054 266.433 311.228 267.959 309.894C267.768 309.131 264.399 301.379 264.081 300.871C262.365 297.948 261.411 294.707 259.885 291.721C258.423 288.798 257.342 285.684 255.626 282.634C253.528 284.223 251.176 284.223 249.014 285.049C250.286 287.908 251.621 290.45 252.829 293.119Z" fill="black"></path><path d="M325.302 103.7C327.463 102.557 329.688 101.413 331.977 100.46C336.173 98.6806 340.496 97.092 344.755 95.3764C348.569 93.8514 352.447 92.4535 356.135 90.8014C357.152 90.2931 358.042 90.4837 358.741 91.3097C359.186 91.8181 359.631 92.2629 359.885 92.9618C361.03 95.8212 362.11 98.6806 362.873 101.667C363.064 102.366 363 103.129 363.318 103.891C363.89 105.289 363.7 105.797 362.238 106.179C359.504 106.941 356.897 108.148 354.164 109.038C351.621 109.864 349.205 111.071 346.662 112.088C341.767 113.994 337.19 116.472 332.231 118.188C330.642 118.76 329.053 119.332 327.209 119.459C326.065 114.566 324.475 109.864 322.25 105.416C323.267 104.209 324.412 104.209 325.302 103.7ZM335.791 111.262C338.716 110.055 341.64 108.911 344.437 107.513C348.188 105.67 352.066 104.082 356.135 102.938C356.834 102.747 357.406 102.493 357.978 101.794C357.342 100.079 356.643 98.2993 355.499 96.4566C353.21 97.2827 350.985 98.4264 348.569 98.9983C346.09 99.5702 343.992 101.159 341.513 101.731C339.097 102.302 336.808 103.319 334.583 104.272C332.358 105.289 329.815 105.67 327.718 107.068C328.099 108.275 328.353 109.356 328.798 110.309C329.243 111.325 328.544 112.596 329.688 113.74C331.723 112.914 333.757 112.151 335.791 111.262Z" fill="black"></path><path d="M300.446 201.936C300.573 200.602 301.4 199.776 301.908 198.759C302.671 197.234 303.689 195.836 304.515 194.375C304.896 193.739 305.405 193.676 306.041 193.867C306.295 193.93 306.613 194.121 306.867 194.248C311.317 196.345 315.704 198.696 319.836 201.428C320.472 201.809 321.107 202.127 321.552 202.826C319.836 205.495 318.565 208.418 316.657 211.086C311.317 207.528 305.532 205.304 300.446 201.936Z" fill="black"></path><path d="M175.97 265.605C177.56 266.431 179.022 267.384 180.548 268.274C181.247 268.655 181.438 269.164 181.12 269.736C180.993 269.99 180.929 270.18 180.738 270.434C178.768 273.929 176.543 277.233 173.936 280.411C173.491 280.982 173.173 281.745 172.156 282.063C169.613 280.474 166.752 279.203 164.082 277.297C167.388 273.04 169.677 268.401 173.046 264.334C174.318 264.398 175.08 265.161 175.97 265.605Z" fill="black"></path><path d="M93.0706 219.029C98.7921 216.932 104.005 213.628 109.981 211.531C111.316 214.01 112.397 216.424 113.287 218.966C113.795 220.427 113.795 220.554 112.397 221.253C109.409 222.778 106.421 224.43 103.306 225.701C101.208 226.591 99.0464 227.608 96.7578 228.052C95.4227 225.828 93.3248 220.745 93.0706 219.029Z" fill="black"></path><path d="M144.565 59.9197C145.073 59.602 145.582 59.8562 146.027 60.1104C146.98 60.6823 147.489 61.6354 148.061 62.4614C149.46 64.5583 150.922 66.6552 152.193 68.8792C153.02 70.3406 154.355 71.3573 154.927 72.9458C155.308 73.899 155.245 74.3438 154.355 74.7886C151.621 76.1229 148.887 77.4573 146.154 78.7282C142.657 74.2167 139.86 69.451 136.3 64.6219C139.288 63.0333 142.022 61.6354 144.565 59.9197Z" fill="black"></path><path d="M162.556 69.07C161.92 67.7356 161.284 66.3377 160.585 65.0669C158.805 61.5721 157.47 57.7596 155.499 54.3283C155.181 53.7564 155.245 53.2481 155.753 52.9304C158.169 51.2783 160.521 49.5627 163.318 48.1012C163.382 49.245 164.59 49.2449 164.908 50.1981C165.734 52.8668 166.561 55.4721 167.578 58.0773C168.468 60.3648 169.04 62.7794 170.248 64.9398C170.439 65.2575 170.629 65.6388 170.375 66.2742C168.277 67.4815 165.988 68.7523 163.7 70.0867C163.064 69.8325 162.746 69.4513 162.556 69.07Z" fill="black"></path><path d="M165.99 261.094C167.261 261.412 167.515 261.92 167.007 262.937C166.943 263.127 166.752 263.254 166.689 263.445C165.799 265.288 164.845 267.067 164.146 268.973C163.51 270.752 162.62 272.405 161.412 273.993C160.459 275.2 160.077 275.264 158.424 274.883C157.916 274.756 157.407 274.692 156.899 274.565C155.373 274.247 153.847 273.93 152.449 273.612C152.258 273.167 152.385 272.849 152.576 272.595C154.229 269.736 155.437 266.813 156.644 263.826C157.28 262.301 158.424 261.03 159.759 259.633C161.985 260.141 164.019 260.586 165.99 261.094Z" fill="black"></path><path d="M239.033 257.789C240.241 257.218 240.814 257.535 241.259 258.743C241.322 258.933 241.322 259.187 241.386 259.378C242.212 261.602 242.975 263.889 244.056 266.05C245.073 268.083 245.772 270.244 246.154 272.468C246.472 274.183 246.281 274.501 244.691 275.263C244.246 275.518 243.801 275.772 243.293 276.026C241.894 276.725 240.496 277.487 239.224 278.123C238.716 277.869 238.588 277.487 238.461 277.106C237.317 273.421 235.791 269.926 234.202 266.431C233.375 264.652 233.248 262.682 233.058 260.585C235.219 259.632 237.126 258.679 239.033 257.789Z" fill="black"></path><path d="M87.9842 202.953C90.845 202.254 93.5786 201.237 96.2487 200.03C98.283 199.077 100.381 198.759 102.542 198.442C103.242 198.314 103.877 198.314 104.259 199.14C105.085 200.983 105.912 202.826 106.675 204.669C106.992 205.431 106.675 206.003 105.975 206.321C105.657 206.511 105.276 206.575 104.895 206.638C102.542 207.337 100.19 208.1 97.9016 209.117C95.9308 210.006 93.8329 210.642 91.6714 210.896C89.6371 211.15 89.4464 211.023 88.6835 209.18C88.4928 208.735 88.2385 208.418 88.0478 207.973C87.3485 206.575 86.7127 205.177 86.0134 203.715C86.6492 203.271 87.3485 203.144 87.9842 202.953Z" fill="black"></path><path d="M306.549 224.557C304.26 222.651 301.845 221.062 299.302 219.664C297.395 218.584 295.932 217.186 294.407 215.725C293.517 214.835 293.453 214.645 294.025 213.564C294.852 211.976 295.742 210.387 296.695 208.862C297.395 207.718 298.03 207.655 299.111 208.417C299.747 208.862 300.319 209.307 300.891 209.815C303.116 211.595 305.723 212.865 308.011 214.454C309.283 215.28 310.363 216.36 311.381 217.377C311.889 217.949 312.271 218.584 311.826 219.41C310.681 221.444 309.601 223.477 308.456 225.574C307.566 225.447 307.058 225.002 306.549 224.557Z" fill="black"></path><path d="M235.093 60.3008C234.521 62.9696 234.267 65.7654 233.631 68.2435C232.995 68.5613 232.677 68.4342 232.296 68.3706C230.262 67.9258 228.227 67.4175 226.193 67.0363C224.667 66.7185 224.604 66.7821 224.794 65.1935C225.239 61.9529 225.684 58.6487 226.32 55.4081C226.575 53.8831 226.702 52.2945 227.337 50.7695C230.452 51.2143 233.504 51.5956 236.873 52.1039C236.174 55.0268 235.602 57.6956 235.093 60.3008Z" fill="black"></path><path d="M303.371 132.675C302.481 130.324 302.608 130.134 305.024 129.307C306.741 128.672 308.584 128.227 310.237 127.401C312.907 126.13 315.641 125.241 318.756 124.351C319.646 127.465 321.299 130.197 322.252 133.374C316.658 135.09 311.191 136.615 305.278 137.695C304.579 135.852 303.943 134.264 303.371 132.675Z" fill="black"></path><path d="M101.653 146.337C95.9954 146.4 90.401 145.447 84.5522 144.621C84.8701 141.38 86.2051 138.457 86.7137 135.28C87.7309 135.344 88.5573 135.407 89.3202 135.534C93.4525 136.297 97.4575 137.568 101.59 138.203C102.162 138.33 102.798 138.457 103.179 138.966C103.243 140.872 102.607 144.303 101.653 146.337Z" fill="black"></path><path d="M101.97 128.799C98.6646 127.338 95.2316 126.194 91.7351 125.304C90.9722 125.114 90.0822 124.987 89.6372 124.033C90.2094 121.682 90.7815 119.268 91.4808 116.917C92.053 115.011 92.6251 114.756 94.4052 115.455C96.2488 116.154 98.0288 116.853 99.8089 117.679C101.716 118.569 103.623 119.522 105.467 120.475C106.675 121.111 106.802 121.428 106.484 122.826C106.103 124.796 105.658 126.766 105.213 128.863C104.005 129.371 102.924 129.244 101.97 128.799Z" fill="black"></path><path d="M312.271 115.202C308.901 116.536 305.723 118.252 302.671 120.095C301.718 120.667 300.701 121.175 299.429 120.667C298.793 118.887 298.094 117.045 297.395 115.202C296.759 113.486 296.823 113.169 298.221 112.216C301.527 109.864 304.833 107.577 308.456 105.671C309.792 104.972 310.427 105.099 311.127 106.497C312.207 108.848 313.224 111.326 314.305 113.868C313.606 114.567 313.034 114.948 312.271 115.202Z" fill="black"></path><path d="M253.593 270.498C250.732 266.241 247.49 262.111 244.375 257.98C246.472 256.01 250.096 254.613 253.465 254.358C255.818 258.171 259.251 261.221 261.539 265.351C260.331 266.749 255.945 269.545 253.593 270.498Z" fill="black"></path><path d="M251.304 56.6161C253.846 57.8234 256.008 59.3484 258.233 60.7463C259.187 61.3182 259.187 61.6994 258.614 62.589C257.788 63.9234 257.025 65.2578 255.944 66.4651C254.673 67.9265 253.338 69.388 252.384 71.1036C251.939 71.8026 251.431 72.438 250.795 72.8828C247.553 72.5651 244.756 71.2943 241.895 69.4516C245.264 65.1307 248.252 60.9369 251.304 56.6161Z" fill="black"></path><path d="M209.854 29.1662L209.663 29.6745L209.6 30.2464L209.282 30.7547L209.028 31.2631L208.71 31.7079L208.265 32.1527L207.883 32.4704L207.438 32.7245H206.866L206.358 32.7881L205.785 32.8516H205.277L204.768 32.9787L204.323 33.1058L203.751 33.2964L203.115 33.4235L202.48 33.2964L201.907 33.1058L201.399 32.7245L200.954 32.3433L200.572 31.8985L200.191 31.4537L199.873 30.9454L199.492 30.5006L199.174 29.9922L198.983 29.4204L198.792 28.8485L198.729 28.2766L198.792 27.6412L198.856 27.0693L199.047 26.4974L199.301 25.9891L199.682 25.4808L200.064 25.036L200.509 24.7183L201.017 24.337L201.462 24.0193L201.971 23.8287L202.48 23.5745L202.988 23.3839L203.624 23.1932L204.26 23.1297H204.832L205.467 23.0662L206.103 23.2568L206.675 23.3839L207.248 23.7016L207.756 24.0193L208.265 24.4005L208.583 24.9089L208.9 25.3537L209.155 25.862L209.409 26.3703L209.6 26.8787L209.727 27.4506L209.79 28.0224L209.918 28.5943L209.854 29.1662Z" fill="#E9E7C4"></path><path d="M57.6608 168.259L57.5972 168.895L57.6608 169.467L57.5336 170.102L57.3429 170.674L57.1522 171.246L56.8343 171.818L56.5164 172.39L56.135 172.835L55.5628 173.089H54.9271L54.355 173.152L53.7828 173.216L53.1471 173.152L52.5749 173.025L52.0028 172.771L51.5578 172.39L51.0492 172.136L50.6042 171.691L50.2227 171.246L49.8413 170.801L49.4598 170.293L49.2691 169.721L49.0148 169.149L48.8241 168.577L48.697 168.005L48.6334 167.433V166.798L48.5698 166.163L48.6334 165.591L48.8241 165.019L48.8877 164.383L49.142 163.812L49.3327 163.24L49.6506 162.731L50.0956 162.287L50.477 161.778L50.8584 161.46L51.3035 161.079L51.812 160.952L52.3206 160.825L52.8928 160.889L53.4649 161.016L54.0371 161.079L54.5457 161.397L55.1178 161.588L55.6264 161.969L56.0079 162.414L56.2622 162.922L56.5164 163.494L56.8979 164.002L57.0886 164.638L57.2793 165.209L57.4065 165.781L57.5336 166.417L57.6608 166.989L57.5972 167.624L57.6608 168.259Z" fill="#E9E7C4"></path><path d="M359.949 167.56L359.25 167.497L358.614 167.369L357.915 167.179L357.343 166.798L357.025 166.226L356.643 165.781L356.453 165.209L356.262 164.701L356.198 164.129L356.135 163.557L356.071 162.985L356.135 162.35V161.778L356.262 161.206L356.453 160.698L356.707 160.189L356.961 159.681L357.279 159.109L357.724 158.728L358.233 158.283L358.805 158.092H359.441L360.013 157.965L360.585 157.902L361.157 157.965L361.729 158.029L362.301 158.092L362.874 158.219L363.446 158.41L363.891 158.791L364.399 159.109L364.844 159.49L365.226 159.999L365.544 160.443L365.798 161.015L365.925 161.587V162.223L365.862 162.794L365.671 163.366L365.48 163.811L365.289 164.319L365.162 164.828L364.971 165.463L364.59 165.972L364.145 166.48L363.636 166.861L363.064 167.179L362.492 167.433L361.856 167.56L361.221 167.624H360.585L359.949 167.56Z" fill="#E9E7C4"></path><path d="M279.529 35.1388C279.784 36.1554 279.974 37.1721 280.038 38.2523C280.165 40.6669 278.004 42.5732 275.588 42.5096C273.172 42.4461 272.218 40.7305 271.328 39.0784C270.883 38.2523 270.438 37.2992 270.756 36.2825C271.519 33.7408 273.808 32.2158 275.906 32.2794C277.876 32.2794 279.021 33.1054 279.529 35.1388Z" fill="#EA7AAC"></path><path d="M325.62 43.399L326.193 43.7802L326.574 44.225L326.955 44.6698L327.21 45.1782L327.591 45.6865L327.782 46.1948L328.1 46.7032L328.29 47.275L328.418 47.8469L328.481 48.4188L328.545 48.9907L328.608 49.5625L328.545 50.1344L328.481 50.7698L328.227 51.3417L327.846 51.9136L327.337 52.2313L326.765 52.4855L326.193 52.6126L325.557 52.6761L324.985 52.7396H324.413H323.84L323.205 52.6761L322.633 52.4855L322.124 52.2313L321.615 51.9771L321.107 51.5959L320.725 51.1511L320.471 50.6428L320.09 50.1344L319.835 49.6261L319.581 49.0542L319.327 48.5459L319.136 47.974V47.4021L319.263 46.8303L319.39 46.2584L319.645 45.75L319.962 45.3052L320.344 44.924L320.852 44.5427L321.361 44.225L321.933 43.9709L322.569 43.7802L323.141 43.6532L323.713 43.4625L324.349 43.3354H324.985L325.62 43.399Z" fill="#E9E7C4"></path><path d="M319.328 3.87629L319.836 4.25754L320.218 4.76587L320.599 5.14712L320.917 5.65546L321.235 6.16379L321.553 6.60859L321.744 7.18046L321.934 7.75234L322.125 8.32422L322.189 8.8961L322.252 9.46797V10.0399L322.189 10.6117L322.061 11.2471L321.934 11.8826L321.553 12.3274L321.044 12.7086L320.472 12.9628L319.836 13.0899L319.264 13.1534L318.692 13.2805L318.056 13.2169L317.484 13.2805L316.912 13.1534L316.34 12.9628L315.831 12.7086L315.259 12.3909L314.814 12.0097L314.433 11.5649L314.051 11.1201L313.797 10.6117L313.416 10.1034L313.225 9.53152L313.034 8.95964L312.843 8.4513L312.78 7.87943L312.907 7.30755L313.098 6.79921L313.288 6.22734L313.606 5.78254L313.988 5.33775L314.56 5.02004L315.068 4.76587L315.641 4.44816L316.213 4.25754L316.785 4.06691L317.421 3.93983L318.056 3.81274H318.628L319.328 3.87629Z" fill="#DC0816"></path><path d="M221.107 0L221.616 0.508335L221.997 0.889587L222.378 1.33438L222.76 1.77917L223.014 2.28751L223.332 2.79584L223.586 3.36772L223.777 3.87606L223.904 4.44794L223.968 5.01981L224.095 5.59169L224.031 6.16357V6.79899L223.968 7.4344L223.714 8.00628L223.332 8.51462L222.887 8.89587L222.251 9.15004L221.679 9.27712L221.043 9.34066L220.471 9.4042H219.899H219.263L218.691 9.27712L218.119 9.15004L217.61 8.83233L217.102 8.57816L216.657 8.13337L216.212 7.75211L215.894 7.24378L215.513 6.79899L215.322 6.22711L215.004 5.71877L214.813 5.14689L214.623 4.63856V4.06668L214.686 3.43126L214.877 2.92293L215.068 2.41459L215.385 1.90626L215.83 1.52501L216.339 1.2073L216.911 0.889587L217.42 0.635419L217.992 0.381252L218.628 0.254168L219.2 0.0635422H219.836L220.471 0H221.107Z" fill="#DC0816"></path><path d="M88.1754 6.16383L88.6839 6.60862L89.0654 6.98987L89.4468 7.43466L89.7647 7.943L90.0826 8.45134L90.4004 8.89613L90.6547 9.46801L90.7819 10.0399L90.9726 10.6118L91.0361 11.1836V11.7555V12.3274V12.8993L90.909 13.5347L90.7819 14.1066L90.4004 14.6149L89.8918 15.0597L89.3197 15.2503L88.6839 15.3774L88.1118 15.5045L87.5396 15.568H86.9039L86.3317 15.5045L85.7596 15.3774L85.1874 15.2503L84.6153 14.9962L84.1703 14.6784L83.6617 14.2972L83.2802 13.9159L82.8988 13.4076L82.5809 12.8993L82.3266 12.3909L82.0724 11.8191L81.8816 11.2472L81.6909 10.7388V10.167L81.7545 9.59509L81.8816 9.02321L82.1359 8.51488L82.4538 8.07008L82.8352 7.62529L83.4074 7.30758L83.916 6.98987L84.4881 6.7357L85.0603 6.54508L85.696 6.35445L86.2682 6.29091L86.9039 6.16383L87.4761 6.03674L88.1754 6.16383Z" fill="#DC0816"></path><path d="M10.3633 145.448L10.8719 145.892L11.2534 146.274L11.6348 146.718L11.9527 147.227L12.3341 147.672L12.5884 148.18L12.8427 148.752L12.9698 149.324L13.1605 149.896L13.2241 150.467V151.039L13.3513 151.611L13.2241 152.183L13.097 152.818L12.9698 153.39L12.652 153.962L12.0798 154.28L11.5077 154.534L10.9355 154.661L10.2998 154.725L9.72761 154.788L9.15546 154.852L8.51973 154.788L7.94757 154.725L7.37542 154.534L6.86683 154.28L6.35825 153.962L5.91324 153.581L5.46823 153.136L5.15036 152.628L4.76893 152.183L4.57821 151.611L4.32392 151.103L4.06963 150.531L3.87891 150.023V149.451L3.94248 148.879L4.1332 148.307L4.32392 147.799L4.64178 147.29L5.08679 146.909L5.59537 146.528L6.10396 146.274L6.67611 146.02L7.24827 145.829L7.884 145.638L8.45615 145.575L9.09188 145.448L9.72761 145.321L10.3633 145.448Z" fill="#E9E7C4"></path><path d="M6.48444 235.804L7.05659 236.185L7.37446 236.694L7.75589 237.075L8.13733 237.583L8.4552 238.028L8.70949 238.6L8.96378 239.108L9.09092 239.68L9.28164 240.252L9.40879 240.824V241.396V241.968V242.539L9.28164 243.175L9.1545 243.81L8.77306 244.319L8.2009 244.636L7.62875 244.89L7.05659 245.081L6.42086 245.145H5.84871L5.27655 245.208L4.70439 245.081H4.06867L3.49651 244.89L2.98793 244.636L2.47934 244.382L2.03433 243.937L1.58932 243.556L1.33503 242.984L0.953593 242.539L0.635729 242.031L0.381436 241.459L0.127145 240.951L0 240.379V239.807L0.0635719 239.235L0.254291 238.663L0.508583 238.155L0.762874 237.71L1.20788 237.329L1.71647 236.948L2.28862 236.694L2.79721 236.376L3.43294 236.185L4.00509 235.931L4.57725 235.867L5.21298 235.804L5.84871 235.677L6.48444 235.804Z" fill="#E9E7C4"></path><path d="M392.88 131.023L393.388 131.404L393.833 131.849L394.215 132.294L394.533 132.739L394.85 133.247L395.168 133.756L395.359 134.264L395.55 134.836L395.677 135.408L395.804 135.979L395.868 136.551L395.804 137.123L395.868 137.759L395.74 138.331L395.55 138.966L395.168 139.474L394.66 139.792L394.087 140.11L393.452 140.173L392.88 140.3L392.307 140.364L391.672 140.3H391.1L390.527 140.237L389.955 140.046L389.447 139.792L388.938 139.474L388.43 139.157L388.048 138.712L387.667 138.203L387.349 137.695L387.094 137.187L386.904 136.615L386.586 136.107L386.459 135.535V134.963L386.522 134.391L386.649 133.883L386.904 133.311L387.222 132.866L387.667 132.485L388.175 132.167L388.684 131.849L389.256 131.532L389.828 131.341L390.464 131.214L391.036 131.023L391.672 130.896H392.307L392.88 131.023Z" fill="#E9E7C4"></path><path d="M405.403 244.573L405.976 244.954L406.357 245.335L406.675 245.844L406.993 246.352L407.311 246.797L407.629 247.305L407.819 247.877L408.073 248.385L408.201 248.957L408.328 249.529V250.101L408.391 250.736L408.328 251.308L408.201 251.944L408.01 252.516L407.692 253.024L407.184 253.405L406.548 253.596L405.976 253.786H405.34L404.768 253.913H404.196L403.623 253.85L402.988 253.786L402.416 253.596L401.907 253.405L401.398 253.087L400.953 252.643L400.508 252.261L400.127 251.817L399.873 251.245L399.618 250.736L399.364 250.228L399.046 249.656L398.919 249.084L398.855 248.512L398.983 247.94L399.173 247.432L399.428 246.924L399.682 246.415L400.127 246.034L400.636 245.717L401.208 245.399L401.78 245.145L402.352 244.89L402.924 244.763L403.56 244.636L404.132 244.509L404.768 244.446L405.403 244.573Z" fill="#E9E7C4"></path><path d="M35.1558 65.6384L35.728 66.0196L36.1094 66.4644L36.4908 66.8457L36.8087 67.354L37.1266 67.8623L37.3809 68.3707L37.6352 68.879L37.8259 69.4509L38.0166 70.0228V70.5947L38.1437 71.1665L38.0802 71.7384L38.1437 72.3103L38.0166 72.9457L37.8259 73.5176L37.4444 74.0895L36.9359 74.4072L36.3637 74.5978L35.728 74.7884L35.1558 74.852L34.5201 74.9155L33.9479 74.979L33.3758 74.9155L32.8036 74.852L32.2315 74.6613L31.6593 74.4707L31.2143 74.0895L30.7057 73.7082L30.3243 73.2634L29.9428 72.8186L29.6886 72.3103L29.3707 71.8019L29.1164 71.2301L28.9257 70.6582L28.735 70.1499L28.6714 69.578L28.735 69.0061L28.9257 68.4342L29.18 67.9259L29.4978 67.4811L29.8793 67.0363L30.3879 66.7186L30.96 66.4009L31.5322 66.1467L32.1043 65.8926L32.6765 65.7655L33.3122 65.6384L33.9479 65.5113L34.5201 65.4478L35.1558 65.6384Z" fill="#DC0816"></path><path d="M31.2139 193.104L31.7861 193.485L32.1675 193.93L32.4854 194.375L32.8668 194.819L33.1847 195.328L33.439 195.836L33.6297 196.408L33.884 196.916L33.9476 197.488L34.0747 198.06L34.1383 198.632V199.204V199.839L34.0111 200.411L33.884 201.046L33.439 201.491L32.994 201.936L32.3582 202.127L31.7861 202.254L31.2139 202.381L30.5782 202.444H30.006L29.4339 202.381L28.7982 202.254L28.226 202.127L27.7174 201.872L27.2088 201.555L26.7003 201.237L26.3824 200.792L25.9374 200.284L25.6831 199.776L25.4288 199.267L25.1109 198.759L24.8566 198.187L24.7295 197.615V197.043L24.7931 196.471L24.9202 195.963L25.1745 195.391L25.5559 194.946L25.9374 194.502L26.446 194.247L27.0181 193.93L27.5267 193.612L28.1624 193.485L28.7346 193.231L29.3703 193.104L29.9425 193.04L30.5782 192.913L31.2139 193.104Z" fill="#DC0816"></path><path d="M52.4473 301.062L53.0195 301.443L53.4009 301.824L53.7188 302.332L54.1002 302.841L54.4181 303.286L54.6724 303.794L54.9267 304.302L55.1174 304.874L55.3081 305.446L55.3717 306.018L55.4352 306.59V307.162L55.3717 307.797L55.2445 308.369L55.1174 309.004L54.7359 309.513L54.2274 309.83L53.6552 310.148L53.0195 310.212L52.4473 310.275L51.8116 310.402H51.2394L50.6673 310.275H50.0951L49.523 310.085L48.9508 309.83L48.4422 309.576L47.9972 309.131L47.6158 308.75L47.2343 308.242L46.9801 307.733L46.6622 307.225L46.3443 306.717L46.2172 306.145L45.9629 305.573L46.0265 305.001V304.429L46.2172 303.921L46.4715 303.349L46.7893 302.904L47.1708 302.523L47.7429 302.205L48.2515 301.888L48.8237 301.57L49.3958 301.443L49.968 301.252L50.6037 301.062L51.1759 300.934H51.8116L52.4473 301.062Z" fill="#DC0816"></path><path d="M183.981 314.088L184.553 314.469L184.935 314.914L185.316 315.359L185.57 315.867L185.888 316.375L186.206 316.82L186.46 317.392L186.651 317.9L186.778 318.472L186.905 319.044L186.969 319.68V320.251V320.823L186.778 321.459L186.588 322.031L186.206 322.539L185.761 322.92L185.125 323.111L184.553 323.301L183.981 323.365L183.345 323.429L182.773 323.492L182.201 323.429L181.629 323.301L181.057 323.111L180.485 322.92L180.039 322.539L179.531 322.221L179.086 321.776L178.768 321.268L178.514 320.76L178.196 320.251L177.942 319.743L177.624 319.235L177.497 318.663V318.091L177.56 317.519L177.751 316.947L178.005 316.439L178.323 315.994L178.704 315.549L179.213 315.232L179.785 314.914L180.357 314.66L180.93 314.469L181.502 314.215L182.137 314.151L182.71 314.024H183.345L183.981 314.088Z" fill="#DC0816"></path><path d="M312.968 309.068L313.477 309.45L313.858 309.894L314.303 310.276L314.621 310.784L314.876 311.292L315.257 311.801L315.384 312.373L315.638 312.881L315.766 313.453L315.829 314.025L315.893 314.597L315.956 315.168L315.893 315.804L315.829 316.376L315.638 317.011L315.193 317.456L314.748 317.837L314.176 318.155L313.541 318.218L312.968 318.346H312.333H311.76H311.188L310.553 318.282L309.98 318.091L309.472 317.901L308.963 317.52L308.518 317.202L308.137 316.757L307.755 316.249L307.437 315.74L307.12 315.232L306.929 314.724L306.611 314.152L306.547 313.58L306.484 313.008L306.611 312.436L306.738 311.928L306.929 311.356L307.247 310.911L307.692 310.53L308.2 310.149L308.773 309.894L309.281 309.577L309.917 309.386L310.489 309.259L311.125 309.132L311.697 309.005H312.333L312.968 309.068Z" fill="#DC0816"></path><path d="M384.362 197.043L384.807 197.488L385.252 197.87L385.57 198.314L385.951 198.823L386.269 199.267L386.524 199.839L386.778 200.348L386.969 200.856L387.096 201.428L387.223 202V202.635V203.207V203.779L387.159 204.414L386.969 204.986L386.587 205.558L386.079 205.876L385.506 206.066L384.871 206.257L384.299 206.321H383.663L383.091 206.384H382.519L381.883 206.321L381.311 206.13L380.802 205.876L380.293 205.558L379.848 205.177L379.403 204.732L379.086 204.287L378.768 203.779L378.513 203.207L378.196 202.699L378.005 202.127L377.878 201.618V201.047L377.941 200.475L378.132 199.903L378.259 199.395L378.577 198.886L379.022 198.505L379.531 198.124L380.103 197.933L380.675 197.615L381.247 197.361L381.819 197.234L382.455 197.043L383.091 196.98L383.663 196.916L384.362 197.043Z" fill="#DC0816"></path><path d="M395.741 91.818L396.313 92.1993L396.695 92.644L397.076 93.0888L397.458 93.5336L397.712 94.042L397.966 94.5503L398.221 95.0586L398.411 95.6305L398.538 96.2024L398.729 96.7743V97.3462V97.918V98.4899L398.538 99.1253L398.348 99.6972L398.03 100.269L397.521 100.587L396.949 100.905L396.313 100.968L395.741 101.095L395.169 101.159H394.533L393.961 101.095L393.389 100.968L392.817 100.841L392.308 100.587L391.736 100.333L391.355 99.8878L390.91 99.443L390.592 98.9982L390.21 98.4899L389.892 97.9816L389.702 97.4097L389.447 96.9014L389.32 96.3295V95.7576V95.1857L389.511 94.6139L389.765 94.1055L390.083 93.6607L390.528 93.2795L391.037 92.8982L391.545 92.644L392.118 92.3263L392.69 92.1357L393.325 92.0086L393.898 91.818L394.533 91.7545L395.106 91.6909L395.741 91.818Z" fill="#DC0816"></path><path d="M86.0145 286.447V287.083L85.8237 287.655L85.6966 288.226L85.3787 288.735L85.0609 289.243L84.6794 289.688L84.2344 290.069L83.7258 290.323L83.2173 290.578H82.5815L82.0094 290.641L81.4372 290.578L80.8651 290.323L80.3565 290.006L79.9115 289.624L79.4665 289.243L79.085 288.735L78.7672 288.29L78.4493 287.782L78.1314 287.337L77.8136 286.829L77.4957 286.32L77.1778 285.875L77.1143 285.24V284.668L77.1778 284.096L77.3685 283.524L77.5593 282.952L77.8136 282.444L78.1314 281.936L78.4493 281.427L78.8943 281.046L79.4029 280.729L79.975 280.601L80.5472 280.474H81.1193L81.6915 280.665L82.2001 280.919L82.7722 281.173L83.2173 281.427L83.6623 281.809L84.1073 282.19L84.6159 282.444L85.1244 282.762L85.5059 283.08L85.7602 283.588L85.8237 284.096L85.9509 284.668L86.0145 285.304L86.078 285.875L86.0145 286.447Z" fill="#E9E7C4"></path><path d="M71.9006 47.2117L72.0278 46.7034L72.0914 46.1315L72.2821 45.6232L72.5364 45.1149L72.8542 44.6701L73.2992 44.3524L73.8078 44.0346L74.38 43.7805L74.9521 43.6534L75.5879 43.5263L76.16 43.4628L76.7322 43.5899L77.3679 43.6534L77.9401 43.9076L78.4486 44.1617L78.8936 44.543L79.2751 44.9878L79.5929 45.4961L79.7837 46.068L79.9108 46.5763L80.038 47.1482V47.7201L80.1015 48.3555V48.9274L79.9744 49.4357L79.8472 50.0076L79.7201 50.5795L79.4022 51.0878L79.1479 51.5961L78.7665 52.0409L78.3851 52.4222L77.8129 52.6763L77.3679 52.9941L76.7957 53.1211L76.2236 53.1847H75.6514L75.0793 53.1211L74.5071 52.9941L73.935 52.8034L73.4264 52.4857L73.0449 52.1045L72.7271 51.5961L72.4728 51.0878L72.3456 50.5159L72.0914 50.0076L72.0278 49.4357L71.9642 48.9274L71.9006 48.3555V47.7836V47.2117Z" fill="#E9E7C4"></path><path d="M81.9448 244.192C82.8348 242.984 84.9327 242.222 86.3949 242.73C89.0649 243.683 90.845 246.543 90.0821 249.021C89.3192 251.308 86.6491 252.706 84.6784 251.308C82.8984 250.101 81.5633 248.513 81.754 245.59C81.6905 245.463 81.4998 244.764 81.9448 244.192Z" fill="#EA7AAC"></path><path d="M200.255 300.426L200.7 299.854L201.145 299.409L201.59 299.028L202.036 298.583L202.544 298.265L203.053 297.948L203.561 297.63L204.133 297.312L204.706 297.122L205.278 296.931L205.913 296.867L206.486 297.122L206.867 297.566L207.312 297.948L207.694 298.392L208.075 298.774L208.393 299.282L208.52 299.854L208.584 300.426V300.934L208.647 301.506L208.711 302.078L208.647 302.586L208.584 303.158L208.52 303.794L208.329 304.429L208.011 304.937L207.566 305.382L207.121 305.89L206.613 306.208L206.041 306.526L205.468 306.78H204.833L204.261 306.589L203.752 306.335L203.243 305.954L202.735 305.636L202.29 305.319L201.908 304.874L201.527 304.429L201.209 303.984L200.828 303.476L200.573 302.904L200.319 302.332L200.192 301.76L200.255 301.125V300.426Z" fill="#E9E7C4"></path><path d="M60.6491 97.2826C60.8398 96.7107 61.1576 96.1388 61.6662 95.8846C62.9377 95.2492 64.2091 94.6773 65.5442 94.2325C66.2435 93.9784 67.0064 94.169 67.4514 94.995C67.6421 95.3127 67.8964 95.6305 68.0871 95.9482C69.9943 98.744 69.8036 100.078 67.4514 102.429C66.7521 103.128 65.9892 103.446 65.0992 103.383C61.7934 103.637 60.0133 99.3794 60.6491 97.2826Z" fill="#EA7AAC"></path><path d="M321.169 258.679C320.216 258.044 319.071 255.629 319.516 254.676C320.279 253.087 320.978 251.372 322.758 250.546C324.411 249.783 325.937 250.037 326.827 251.562C328.099 253.659 328.289 257.154 325.81 259.124C325.429 259.442 325.111 259.632 324.602 259.632C324.093 259.696 321.614 258.997 321.169 258.679Z" fill="#EA7AAC"></path><path d="M109.281 52.6761C108.391 50.7698 108.772 48.4823 110.298 47.5292C110.934 47.1479 111.697 47.0209 112.396 46.7031C113.604 46.1948 114.494 46.6396 115.32 47.5927C116.338 48.7365 116.465 50.1344 116.592 51.5323C116.655 52.6761 116.21 53.7563 115.257 54.4553C114.875 54.7094 115.003 55.3449 114.494 55.5355C113.222 55.9167 112.015 55.8532 110.552 55.2178C110.425 54.2646 109.726 53.5657 109.281 52.6761Z" fill="#EA7AAC"></path><path d="M320.344 293.246H319.708L319.2 292.992L318.691 292.738L318.31 292.229L317.928 291.721L317.611 291.213L317.356 290.641L317.166 290.069L316.911 289.497L316.848 288.861V288.226V287.654L316.911 287.019L317.166 286.51L317.42 286.002L317.801 285.621L318.183 285.24L318.691 284.922L319.263 284.985L319.836 285.049H320.408H320.98L321.552 285.112H322.188L322.76 285.303L323.332 285.557L323.841 285.939L324.095 286.51L324.349 287.082L324.476 287.654L324.604 288.226V288.798L324.667 289.433L324.604 290.005L324.54 290.577L324.349 291.213L324.095 291.784L323.777 292.293L323.269 292.674L322.696 292.928L322.124 293.119L321.552 293.182H320.916L320.344 293.246Z" fill="#E9E7C4"></path><path d="M120.598 294.581C120.98 294.771 121.425 294.962 121.87 295.025C122.633 295.216 123.014 295.661 123.268 296.36C124.159 298.711 122.76 301.824 120.408 302.714C119.772 302.968 118.946 303.095 118.437 302.714C117.038 301.57 115.894 300.172 115.576 298.457C115.576 295.788 118.119 293.5 120.598 294.581Z" fill="#EA7AAC"></path><path d="M321.107 81.9057C322.061 80.7619 322.887 79.5546 324.603 79.2369C326.002 78.9828 326.447 79.1098 327.21 80.3171C328.354 82.0328 328.545 84.3203 326.765 86.4807C325.811 87.6245 325.112 87.9422 323.713 87.4974C321.87 86.9255 320.916 85.5276 320.916 82.9859C320.916 82.9224 320.789 82.2869 321.107 81.9057Z" fill="#EA7AAC"></path><path d="M292.563 285.684C293.199 286.765 293.516 287.972 293.58 289.116C293.644 290.386 293.008 291.53 291.736 292.229C290.465 292.928 289.321 292.992 288.24 291.975C287.922 291.657 287.541 291.403 287.223 291.085C285.951 289.688 285.443 286.701 288.176 285.43C289.003 285.049 289.829 284.731 291.101 284.668C291.609 284.604 292.181 284.985 292.563 285.684Z" fill="#EA7AAC"></path></svg> 