<svg width="70" height="140" viewBox="0 0 70 140" fill="none" xmlns="http://www.w3.org/2000/svg"><rect width="20" height="15" rx="3" fill="#fff"/><rect y="62" width="20" height="15" rx="3" fill="#fff"/><rect y="83" width="20" height="15" rx="3" fill="#fff"/><rect y="41" width="20" height="15" rx="3" fill="#fff"/><rect x="50" y="124.5" width="20" height="15" rx="3" fill="#fff"/><rect y="20.5" width="20" height="15" rx="3" fill="#fff"/><rect x="50" y="104" width="20" height="15" rx="3" fill="#fff"/><rect x="25" width="20" height="15" rx="3" fill="#fff"/><rect x="25" y="62" width="20" height="15" rx="3" fill="#fff"/><rect x="25" y="83" width="20" height="15" rx="3" fill="#fff"/><rect x="50" width="20" height="15" rx="3" fill="#fff"/><rect x="50" y="62" width="20" height="15" rx="3" fill="#fff"/><rect x="50" y="83" width="20" height="15" rx="3" fill="#fff"/><rect x="25" y="20.5" width="45" height="35.5" rx="3" fill="#fff"/><rect y="104" width="45" height="35.5" rx="3" fill="#fff"/></svg>