<svg width="40" height="40" viewBox="0 0 40 40" fill="none" xmlns="http://www.w3.org/2000/svg"><path fill-rule="evenodd" clip-rule="evenodd" d="M21.644 31.615c5.956-.824 10.538-5.836 10.538-11.896 0-3.682-1.691-6.976-4.355-9.18l-6.183 6.055v15.02zM18.47 31.615v-15.02l-6.184-6.057c-2.663 2.205-4.354 5.5-4.354 9.18 0 6.061 4.582 11.073 10.538 11.897" fill="#252525"/><path fill-rule="evenodd" clip-rule="evenodd" d="M30.694 9.366a14.98 14.98 0 014.429 10.672 14.98 14.98 0 01-4.43 10.674A15.038 15.038 0 0120 35.132c-4.04 0-7.837-1.57-10.694-4.42a14.98 14.98 0 01-4.429-10.674 14.98 14.98 0 014.43-10.672c.245-.245.497-.48.756-.705L6.608 5.212A19.888 19.888 0 000 20.038a19.895 19.895 0 005.858 14.115 19.934 19.934 0 006.357 4.277A19.905 19.905 0 0020 40c2.7 0 5.318-.528 7.786-1.57a19.934 19.934 0 006.356-4.277A19.904 19.904 0 0040 20.038a19.897 19.897 0 00-6.608-14.826l-3.455 3.45c.259.224.511.46.756.704" fill="#252525"/><path fill-rule="evenodd" clip-rule="evenodd" d="M20 0a6.29 6.29 0 110 12.579A6.29 6.29 0 0120 0" fill="#252525"/></svg>