<?xml version="1.0" encoding="UTF-8"?> <svg xmlns="http://www.w3.org/2000/svg" width="512" height="407" viewBox="0 0 512 407" fill="none"><g clip-path="url(#clip0)"><rect width="512" height="407" fill="#E679A6"></rect><line x1="207.094" y1="75.5694" x2="315.765" y2="306.783" stroke="#008B3F" stroke-width="12"></line><line x1="343.085" y1="288.144" x2="160.427" y2="105.486" stroke="#008B3F" stroke-width="12"></line><line x1="121.051" y1="180.8" x2="386.947" y2="194.673" stroke="#008B3F" stroke-width="12"></line><line x1="144.157" y1="302.871" x2="359.186" y2="78.5936" stroke="#008B3F" stroke-width="12"></line><line x1="401.768" y1="94.506" x2="117.375" y2="304.911" stroke="#DC0816" stroke-width="12"></line><line x1="455.413" y1="218.196" x2="55.4133" y2="178.89" stroke="#008B3F" stroke-width="12"></line><line x1="357.38" y1="286.214" x2="117.177" y2="87.6243" stroke="#010101" stroke-width="12"></line><line x1="249" y1="330" x2="249" y2="55" stroke="#E9E7C4" stroke-width="12"></line><line x1="131.544" y1="168.521" x2="384.262" y2="205.969" stroke="#E5E5E5" stroke-width="12"></line><line x1="131.544" y1="168.521" x2="384.262" y2="205.969" stroke="#E5E5E5" stroke-width="12"></line><line x1="131.544" y1="168.521" x2="384.262" y2="205.969" stroke="#E5E5E5" stroke-width="12"></line><line x1="383.858" y1="172.899" x2="130.633" y2="223.947" stroke="#0491FF" stroke-width="12"></line><line x1="383.858" y1="172.899" x2="130.633" y2="223.947" stroke="#0491FF" stroke-width="12"></line><line x1="383.858" y1="172.899" x2="130.633" y2="223.947" stroke="#0491FF" stroke-width="12"></line><line x1="171.569" y1="298.424" x2="330.277" y2="84.6372" stroke="#DC0816" stroke-width="12"></line><line x1="171.569" y1="298.424" x2="330.277" y2="84.6372" stroke="#DC0816" stroke-width="12"></line><line x1="171.569" y1="298.424" x2="330.277" y2="84.6372" stroke="#DC0816" stroke-width="12"></line><line x1="286.031" y1="346.736" x2="218.233" y2="43.5179" stroke="#F6C200" stroke-width="12"></line><line x1="286.031" y1="346.736" x2="218.233" y2="43.5179" stroke="#F6C200" stroke-width="12"></line><line x1="286.031" y1="346.736" x2="218.233" y2="43.5179" stroke="#F6C200" stroke-width="12"></line><line x1="200.769" y1="120.359" x2="368.478" y2="340.059" stroke="#0491FF" stroke-width="12"></line><line x1="200.769" y1="120.359" x2="368.478" y2="340.059" stroke="#0491FF" stroke-width="12"></line><line x1="200.769" y1="120.359" x2="368.478" y2="340.059" stroke="#0491FF" stroke-width="12"></line><line x1="255.051" y1="16.8578" x2="272.906" y2="370.172" stroke="#DF8538" stroke-width="12"></line><line x1="255.051" y1="16.8578" x2="272.906" y2="370.172" stroke="#DF8538" stroke-width="12"></line><line x1="255.051" y1="16.8578" x2="272.906" y2="370.172" stroke="#DF8538" stroke-width="12"></line><line x1="387.762" y1="40.6298" x2="133.654" y2="352.036" stroke="#0491FF" stroke-width="12"></line><line x1="387.762" y1="40.6298" x2="133.654" y2="352.036" stroke="#0491FF" stroke-width="12"></line><line x1="387.762" y1="40.6298" x2="133.654" y2="352.036" stroke="#0491FF" stroke-width="12"></line><line x1="390.164" y1="159.923" x2="126.082" y2="239.846" stroke="#F6C200" stroke-width="12"></line><line x1="390.164" y1="159.923" x2="126.082" y2="239.846" stroke="#F6C200" stroke-width="12"></line><line x1="390.164" y1="159.923" x2="126.082" y2="239.846" stroke="#F6C200" stroke-width="12"></line><line x1="390.726" y1="284.189" x2="161.679" y2="131.997" stroke="#0491FF" stroke-width="12"></line><line x1="390.726" y1="284.189" x2="161.679" y2="131.997" stroke="#0491FF" stroke-width="12"></line><line x1="390.726" y1="284.189" x2="161.679" y2="131.997" stroke="#0491FF" stroke-width="12"></line><line x1="306.758" y1="63.8935" x2="216.584" y2="325.165" stroke="black" stroke-width="12"></line><path d="M424.739 40.795C435.242 48.9492 441.355 61.4396 446.202 73.7929C451.596 87.5442 455.939 102.442 453.133 116.948C450.327 131.455 438.344 145.175 423.555 145.24C420.6 145.26 416.977 144.113 416.569 141.2C416.2 138.53 419.191 136.321 421.878 136.574C424.565 136.828 426.787 138.773 428.498 140.859C431.533 144.568 433.587 148.981 434.47 153.691C435.354 158.402 435.038 163.26 433.553 167.82C432.068 172.379 429.461 176.494 425.97 179.786C422.48 183.079 418.219 185.443 413.578 186.662" stroke="#E7E5C2" stroke-width="5" stroke-miterlimit="10"></path><path d="M35.1454 273.426C21.2647 290.25 29.7671 318.442 44.4511 332.021C52.1948 339.185 63.3277 343.352 73.868 341.128C83.333 339.13 91.0558 331.589 92.9707 322.039C97.0486 301.675 67.5245 287.452 57.3943 307.621C47.628 327.058 61.1487 352.054 76.9217 363.688C96.9077 378.43 126.176 377.163 145.358 361.714C147.917 359.656 143.89 354.915 141.259 356.631C127.62 365.471 111.065 369.966 95.0371 365.506C78.9241 361.03 65.9245 347.536 62.2835 331.156C60.5952 323.556 60.3807 313.323 66.4222 307.451C72.4957 301.553 83.2832 305.076 85.9352 312.777C88.6084 320.524 83.1667 329.45 76.228 332.86C68.6231 336.592 59.3691 334.98 52.4732 330.455C37.6786 320.748 28.1928 293.38 40.0304 278.207C42.3358 275.253 37.5717 270.47 35.1454 273.426Z" fill="#E9E7C4"></path><path d="M477.291 312.38C469.101 316.63 461.091 319.96 451.711 320.22C447.641 320.33 443.461 320.01 439.531 318.89C437.071 318.19 433.561 317.11 432.601 314.36C431.371 310.84 434.761 309.29 437.461 308.91C445.261 307.82 451.761 315.48 452.721 322.58C453.821 330.72 448.481 338.29 442.251 342.92C435.161 348.19 426.201 349.99 417.551 350.4C412.861 350.62 407.881 350.72 403.231 349.97C399.011 349.28 391.931 345.57 397.391 341C401.401 337.64 408.001 339.4 411.371 342.71C414.361 345.65 415.861 349.93 415.881 354.08C415.901 362.41 410.331 369.75 402.901 373C399.211 374.61 401.661 381.31 405.431 379.8C423.091 372.72 429.541 344.3 410.711 334.26C403.541 330.44 391.441 331.96 389.341 341.17C386.831 352.16 398.711 356.83 407.351 357.38C427.251 358.65 453.921 353.34 458.491 330.11C460.251 321.19 456.671 311.61 449.441 306.06C443.261 301.31 431.381 299.39 427.191 307.84C421.381 319.57 436.451 325.82 445.241 326.81C457.121 328.14 470.591 325.4 479.991 317.68C482.081 315.94 480.061 310.95 477.291 312.38Z" fill="#E9E7C4"></path><path d="M155.722 32.7275C131.112 14.8597 92.3272 30.3684 74.7896 51.3884C65.2698 62.7897 60.5859 78.7052 64.5862 93.2606C68.2649 106.642 80.1607 117.01 94.1067 118.213C107.798 119.398 119.872 110.367 123.373 97.183C127.102 83.1038 118.734 70.9952 105.098 67.1887C76.7025 59.2644 45.1957 79.2408 31.0918 102.984C13.59 132.434 18.2369 172.178 41.0421 197.513C43.5247 200.277 48.2138 195.995 45.9621 193.109C30.3983 173.105 22.8171 146.483 29.9436 121.636C36.6583 98.2284 56.4701 79.1406 80.2963 73.7968C91.4442 71.2966 107.097 71.1842 114.494 81.5579C121.356 91.1744 115.736 106.211 105.064 110.362C93.5238 114.843 79.8 107.643 73.9645 97.4403C67.4803 86.1066 69.3099 71.4308 75.872 60.5685C83.916 47.2436 98.5964 38.5849 113.24 34.3456C126.128 30.6138 140.438 30.3631 151.819 38.3006C154.885 40.4159 158.938 35.0628 155.722 32.7275Z" fill="#E9E7C4"></path></g><defs><clipPath id="clip0"><rect width="512" height="407" fill="white"></rect></clipPath></defs></svg> 