<?xml version="1.0" encoding="UTF-8"?> <svg xmlns="http://www.w3.org/2000/svg" width="512" height="407" viewBox="0 0 512 407" fill="none"><g clip-path="url(#clip0)"><rect width="512" height="407" fill="white"></rect><path d="M68.6938 0C68.6938 0 0 0 0 69.5363V337.471C0 337.471 0 407 68.6938 407H443.299C443.299 407 512 407 512 337.471V69.5058C512 69.5058 512 0 443.299 0H68.6938Z" fill="#2254CD"></path><path d="M247.4 291.102C240.042 288.727 232.287 287.827 224.58 288.453C216.874 289.079 209.366 291.219 202.488 294.75C197.981 297.085 193.522 300.351 191.876 305.154C191.062 307.773 191.267 310.601 192.449 313.075C193.625 315.445 197.249 318.672 198.711 314.724C201.908 306.132 191.35 300.694 184.507 299.953C176.243 299.042 159.788 305.595 152.906 310.253C141.84 317.728 140.023 324.63 134.056 336.567C132.546 339.584 131.315 342.993 132.072 346.264C132.829 349.534 136.249 352.412 139.466 351.386C143.61 350.055 143.641 343.503 140.279 340.738C136.917 337.973 132.066 338.099 127.8 338.94C119.835 340.572 112.369 344.067 106.013 349.137C99.6574 354.208 94.5917 360.71 91.2304 368.114" stroke="#E7E5C2" stroke-width="5" stroke-miterlimit="10"></path><path d="M254.054 150.25C240.908 161.374 212.405 188.162 210.973 204.86C209.153 226.097 308.665 302.551 323.227 308.012L314.126 318.327H304.874L305.26 313.709C268.21 292.923 204.269 240.985 193.984 207.894C189.434 193.258 210.721 167.22 242.526 139.328L254.054 150.25Z" fill="black"></path><path d="M230.999 132.047C216.434 146.003 176.485 187.05 178.814 203.647C183.668 238.233 261.338 308.619 302.598 327.43L290.468 335.924C241.919 314.08 173.596 243.209 162.431 207.288C158.103 193.362 185.079 158.15 214.363 128.11L209.336 123.552H218.863L230.999 132.047Z" fill="black"></path><path d="M242.629 139.328H232.979L235.392 146.083L240.217 148.013L242.147 144.153L242.629 139.328Z" fill="black"></path><path d="M290.399 335.713H281.231L283.161 333.3L286.056 330.405L288.951 331.37L290.399 335.713Z" fill="black"></path><path d="M206.58 116.878C192.016 130.834 141.675 184.837 146.655 205.467C155.15 240.66 215.827 311.047 277.112 344.419L264.37 352.307L255.175 352.118L258.154 348.808C210.348 320.726 148.948 258.514 132.092 209.108C125.442 189.617 159.836 144.098 189.839 113.068L185.21 108.383H194.444L206.58 116.878Z" fill="black"></path><path d="M201.715 204.705C203.146 188.007 231.649 161.219 244.796 150.095L233.267 139.173C201.463 167.065 180.176 193.102 184.725 207.739C195.89 243.66 270.281 301.789 304.868 318.172L313.969 307.857C299.406 302.396 199.895 225.942 201.715 204.705Z" fill="#489CF8"></path><path d="M169.556 203.491C167.227 186.894 207.176 145.847 221.74 131.891L209.605 123.396C178.658 154.342 148.624 192.495 153.173 207.132C164.338 243.053 232.661 313.925 281.21 335.769L293.34 327.274C252.079 308.464 174.41 238.077 169.556 203.491Z" fill="#489CF8"></path><path d="M137.397 205.311C132.417 184.681 182.758 130.678 197.322 116.722L185.186 108.227C154.239 139.173 115.841 188.455 122.834 208.952C140.431 260.528 206.569 326.06 255.112 352.152L267.854 344.264C206.569 310.891 145.892 240.505 137.397 205.311Z" fill="#489CF8"></path><path d="M274.909 257.913C287.976 246.696 316.287 219.706 317.6 202.998C319.269 181.748 219.215 106.005 204.614 100.648L207.991 96.7651L204.028 90.268L213.642 90.268C248.344 106.404 323.147 164.002 334.567 199.843C339.221 214.447 318.12 240.635 286.515 268.753L277.371 268.753L277.371 260.213L274.909 257.913Z" fill="black"></path><path d="M298.775 275.287C313.762 260.633 352.177 220.308 349.767 203.982C344.666 169.431 266.498 99.5997 225.104 81.0839L230.385 77.3292L227.671 72.5029L237.174 72.5029C285.877 94.0006 354.703 164.384 366.123 200.225C370.776 214.828 341.015 253.194 310.289 284.36L300.531 284.36L297.154 275.952L298.775 275.287Z" fill="black"></path><path d="M322.619 290.947C337.084 276.887 387.039 222.527 381.912 201.932C373.167 166.801 311.99 96.8485 250.469 63.913L263.155 55.9343C311.881 81.6794 378.485 146.739 396.449 198.188C403.588 218.635 365.541 268.19 334.815 299.355L325.622 299.355L327.552 294.348L322.619 290.947Z" fill="black"></path><path d="M308.342 202.843C307.029 219.551 278.718 246.541 265.651 257.758L277.257 268.598C308.862 240.48 329.963 214.292 325.309 199.688C313.889 163.847 239.086 106.249 204.384 90.1132L195.356 100.493C209.957 105.85 310.011 181.593 308.342 202.843Z" fill="#489CF8"></path><path d="M340.509 203.827C342.957 220.406 303.3 261.737 288.836 275.796L301.032 284.204C331.758 253.039 361.519 214.673 356.866 200.069C345.445 164.229 276.619 93.8453 227.916 72.3476L215.846 80.9287C257.24 99.4445 335.409 169.276 340.509 203.827Z" fill="#489CF8"></path><path d="M372.655 201.777C377.781 222.372 327.826 276.732 313.362 290.791L325.557 299.2C356.284 268.034 394.33 218.48 387.191 198.033C369.227 146.583 302.624 81.5241 253.897 55.779L241.211 63.7577C302.732 96.6932 363.909 166.645 372.655 201.777Z" fill="#489CF8"></path><circle cx="66" cy="335" r="9" fill="#E7BD40"></circle><circle cx="57" cy="260" r="3" fill="black"></circle><circle cx="182" cy="11" r="3" fill="black"></circle><circle cx="150" cy="382" r="3" fill="black"></circle><circle cx="108" cy="52" r="3" fill="black"></circle><circle cx="90" cy="310" r="4" fill="#028B3F"></circle><circle cx="21" cy="305" r="4" fill="#DC0816"></circle><circle cx="312" cy="33" r="4" fill="#E7E5C2"></circle><path d="M144.302 203.743L141.705 208.091L137.144 208.505L132.76 209.278L130.033 213.387L126.262 215.395L121.754 215.94" stroke="#D77FA5" stroke-width="5" stroke-miterlimit="10"></path><path d="M168.206 357.074L169.566 361.953L166.721 365.542L164.258 369.251L165.355 374.059L164.21 378.175L161.497 381.816" stroke="#2254CD" stroke-width="5" stroke-miterlimit="10"></path><path d="M162.264 145.687L153.55 148.565L146.81 143.723L139.887 139.582L131.278 141.977L123.73 140.256L116.907 135.656" stroke="#E7BD40" stroke-width="5" stroke-miterlimit="10"></path><path d="M396.688 237.494L392.61 238.841L389.455 236.575L386.215 234.637L382.185 235.758L378.652 234.952L375.459 232.799" stroke="#2254CD" stroke-width="5" stroke-miterlimit="10"></path><path d="M187.247 59.1914L182.351 60.4872L178.799 57.596L175.123 55.0848L170.301 56.118L166.201 54.9193L162.595 52.1584" stroke="#D77FA5" stroke-width="5" stroke-miterlimit="10"></path><path d="M248.661 39.0522L244.181 36.6916L243.524 32.1592L242.518 27.8223L238.27 25.3185L236.063 21.6601L235.278 17.1873" stroke="#C92D26" stroke-width="5" stroke-miterlimit="10"></path><path d="M360.928 414.738L355.904 414.106L353.693 410.095L351.225 406.39L346.367 405.542L343.013 402.895L340.704 398.985" stroke="#D77FA5" stroke-width="5" stroke-miterlimit="10"></path><path d="M378.821 47.0586L377.179 51.8495L372.802 53.1966L368.672 54.8583L366.852 59.4419L363.577 62.1858L359.279 63.6501" stroke="#2254CD" stroke-width="6" stroke-miterlimit="10"></path><path d="M355.68 158.991L355.664 153.927L359.36 151.222L362.719 148.3L362.938 143.373L365.135 139.709L368.718 136.919" stroke="#D77FA5" stroke-width="5" stroke-miterlimit="10"></path><path d="M256.177 39.9072L252.497 36.4272L253.085 31.8855L253.284 27.438L249.867 23.8826L248.727 19.7652L249.176 15.2462" stroke="#2254CD" stroke-width="5" stroke-miterlimit="10"></path><path d="M370.205 218L376.19 211.043L384.461 211.72L392.528 211.701L398.672 205.212L406.027 202.797L414.245 203.223" stroke="#E7BD40" stroke-width="5" stroke-miterlimit="10"></path><path d="M121.995 260.132L124.796 256.876L128.668 257.193L132.444 257.184L135.319 254.146L138.762 253.016L142.608 253.216" stroke="#2254CD" stroke-width="5" stroke-miterlimit="10"></path><path d="M393.37 305.001L396.898 301.367L401.432 302.015L405.876 302.272L409.476 298.902L413.608 297.816L418.121 298.324" stroke="#D77FA5" stroke-width="5" stroke-miterlimit="10"></path><path d="M351.117 353.909L356.174 353.623L359.072 357.169L362.169 360.367L367.1 360.324L370.877 362.322L373.854 365.75" stroke="#C92D26" stroke-width="5" stroke-miterlimit="10"></path><path d="M61.2998 89.8081L65.9317 87.7601L69.893 90.0583L73.9177 91.9615L78.5178 90.1844L82.7558 90.7249L86.7499 92.8858" stroke="#D77FA5" stroke-width="5" stroke-miterlimit="10"></path><path d="M235.446 414.125L234.385 409.172L237.442 405.762L240.125 402.21L239.322 397.344L240.714 393.305L243.644 389.835" stroke="#2254CD" stroke-width="6" stroke-miterlimit="10"></path></g><defs><clipPath id="clip0"><rect width="512" height="407" fill="white"></rect></clipPath></defs></svg> 