<?xml version="1.0" encoding="UTF-8"?> <svg xmlns="http://www.w3.org/2000/svg" width="512" height="407" viewBox="0 0 512 407" fill="none"><g clip-path="url(#clip0)"><rect width="512" height="407" fill="#0154D5"></rect><path d="M128.693 280H288.85M144.709 258.08H301.307M144.709 240.544H219H301.307M144.709 216.432H301.307M118.016 196.704H288.85M144.709 176.976H301.307M118.016 157.248H288.85M144.709 135.328H317.323M128.693 117.792H278.173M169.622 98.064H317.323M118.016 80.528H285.291M144.709 60.8H328M102 41.072H190.087H278.173M180.299 21.344H328M128.693 6H278.173" stroke="#E9E7C4" stroke-width="12"></path><path d="M454.739 93.795C465.242 101.949 471.355 114.44 476.202 126.793C481.596 140.544 485.939 155.442 483.133 169.948C480.327 184.455 468.344 198.175 453.555 198.24C450.6 198.26 446.977 197.113 446.569 194.2C446.2 191.53 449.191 189.321 451.878 189.574C454.565 189.828 456.787 191.773 458.498 193.859C461.533 197.568 463.587 201.981 464.47 206.691C465.354 211.402 465.038 216.26 463.553 220.82C462.068 225.379 459.461 229.494 455.97 232.786C452.48 236.079 448.219 238.443 443.578 239.662" stroke="#E7E5C2" stroke-width="5" stroke-miterlimit="10"></path><path d="M473.611 303.209C480.837 307.033 484.376 313.75 486.97 320.497C489.857 328.008 491.852 336.274 488.485 344.929C485.117 353.583 474.89 362.573 463.72 363.885C461.488 364.151 458.852 363.798 458.795 362.144C458.747 360.627 461.195 359.088 463.201 359.003C465.207 358.919 466.718 359.855 467.829 360.918C469.801 362.808 470.971 365.19 471.232 367.846C471.493 370.502 470.836 373.347 469.322 376.119C467.809 378.891 465.486 381.502 462.568 383.712C459.65 385.922 456.229 387.661 452.621 388.768" stroke="#E7E5C2" stroke-width="5" stroke-miterlimit="10"></path><path d="M113.764 386H312.018M113.764 356.25H312.018M132.745 337.125H331M99 318H295.145M132.745 301H312.018" stroke="#E9E7C4" stroke-width="12"></path><path d="M102.429 25.8957C88.6497 23.9532 73.9599 24.8645 61.8249 31.6831C49.6898 38.5017 40.7882 52.1709 42.4727 66.0079C42.6962 67.8704 43.1513 69.8129 44.4287 71.1958C45.706 72.5787 48.0133 73.1462 49.4982 71.9952C50.9832 70.8441 51.0231 68.7977 50.5201 67.151C49.115 62.3948 43.5744 59.6769 38.6725 60.4123C33.7706 61.1478 29.6431 64.665 26.9766 68.8377C20.5897 78.7738 22.0507 93.0025 30.2498 101.468" stroke="#E7E5C2" stroke-width="5" stroke-miterlimit="10"></path><path d="M244.693 280H404.85M260.709 258.08H417.307M260.709 240.544H335H417.307M260.709 216.432H417.307M234.016 196.704H404.85M260.709 176.976H417.307M234.016 157.248H404.85M260.709 135.328H433.323M244.693 117.792H394.173M285.622 98.064H433.323M234.016 80.528H401.291M260.709 60.8H444M218 41.072H306.087H394.173M296.299 21.344H444M244.693 6H319.433H394.173" stroke="#0491FF" stroke-width="12"></path><path d="M229.764 386H428.018M229.764 356.25H428.018M248.745 337.125H447M215 318H411.145M248.745 301H428.018" stroke="#0491FF" stroke-width="12"></path><path d="M60 247L99 235M74.1818 171L93.0909 188M87.1818 91L99 114M99 144L87.1818 129M93.0909 275L74.1818 263M80.0909 342L74.1818 375M80.0909 313H60M93.0909 219H68.2727" stroke="#F0BC00" stroke-width="10"></path></g><defs><clipPath id="clip0"><rect width="512" height="407" fill="white"></rect></clipPath></defs></svg> 