<?xml version="1.0" encoding="UTF-8"?> <svg xmlns="http://www.w3.org/2000/svg" width="512" height="407" viewBox="0 0 512 407" fill="none"><g clip-path="url(#clip0)"><rect width="512" height="407" fill="#DC0816"></rect><path d="M68.6938 0C68.6938 0 0 0 0 69.5363V337.471C0 337.471 0 407 68.6938 407H443.299C443.299 407 512 407 512 337.471V69.5058C512 69.5058 512 0 443.299 0H68.6938Z" fill="#DC0816"></path><path d="M198.928 66.317L182.103 41.2854" stroke="black" stroke-width="12" stroke-miterlimit="10"></path><path d="M232.843 46.3587L225.195 17.8856" stroke="black" stroke-width="12" stroke-miterlimit="10"></path><path d="M268.698 45.7993L272.809 18.716" stroke="black" stroke-width="12" stroke-miterlimit="10"></path><path d="M309.325 60.161L327.386 37.9973" stroke="black" stroke-width="12" stroke-miterlimit="10"></path><path d="M424.66 40.7156C433.019 35.7802 445.435 36.0269 453.413 41.6728C456.894 44.133 459.905 47.9842 460.547 52.2915C460.883 54.5573 460.256 58.3412 457.23 58.4832C453.174 58.6702 455.744 53.8544 457.417 52.7626C461.585 50.0481 467.054 51.6035 468.906 56.2249C470.729 60.764 468.861 65.5424 466.202 69.3188C460.846 76.9388 452.419 82.6221 443.978 86.2713C441.162 87.4902 443.082 92.65 445.898 91.4311C456.513 86.8322 468.495 78.756 473 67.5989C476.78 58.2365 471.685 44.664 459.89 46.1596C455.31 46.7428 450.783 49.9883 450.29 54.8489C449.88 58.9244 452.576 63.5608 456.969 63.8225C462.198 64.1291 465.321 59.1189 465.388 54.4227C465.463 49.2629 462.818 44.2602 459.389 40.5661C450.208 30.6652 433.004 29.3715 421.896 36.5579C419.595 38.0609 422.165 42.1888 424.66 40.7156Z" fill="#D77FA5"></path><path d="M77.5695 46.7156C69.2103 41.7802 56.7947 42.0269 48.8165 47.6728C45.3354 50.133 42.3248 53.9842 41.6824 58.2915C41.3462 60.5573 41.9737 64.3412 44.9992 64.4832C49.0555 64.6702 46.4858 59.8544 44.8124 58.7626C40.644 56.0481 35.1758 57.6035 33.3232 62.2249C31.5005 66.764 33.368 71.5424 36.0274 75.3188C41.3836 82.9388 49.81 88.6221 58.2514 92.2713C61.0677 93.4902 59.1478 98.65 56.3316 97.4311C45.7163 92.8322 33.7341 84.756 29.2295 73.5989C25.4496 64.2365 30.5443 50.664 42.3398 52.1596C46.9191 52.7428 51.446 55.9883 51.9391 60.8489C52.3499 64.9244 49.6532 69.5608 45.2607 69.8225C40.0315 70.1291 36.9089 65.1189 36.8417 60.4227C36.767 55.2629 39.4115 50.2602 42.8403 46.5661C52.0212 36.6652 69.2252 35.3715 80.3335 42.5579C82.6343 44.0609 80.0645 48.1888 77.5695 46.7156Z" fill="#D77FA5"></path><g opacity="0.3"><path d="M268.451 291.295V186.711L311.628 144.651C373.44 227.408 308.598 276.896 268.451 291.295Z" fill="black"></path><path d="M245.727 186.711L202.55 144.651C202.55 144.651 170.832 171.933 171.872 208.31C173.69 271.97 221.866 290.158 245.727 291.295V186.711Z" fill="black"></path><path d="M185.506 132.146L161.645 109.41C122.558 130.327 114.302 177.238 115.059 198.079C113.923 237.109 128.694 320.397 196.868 341.313C282.086 367.459 326.399 334.493 349.124 315.168C371.848 295.842 396.845 244.687 397.982 198.079C398.891 160.793 365.788 121.157 349.124 106L326.399 132.146C382.756 173.979 362.001 248.098 344.579 279.927C306.325 314.41 218.229 362.685 171.872 279.927C125.514 197.17 161.645 146.924 185.506 132.146Z" fill="black"></path><path d="M268.451 291.295V186.711L311.628 144.651C373.44 227.408 308.598 276.896 268.451 291.295Z" stroke="#0154D5"></path><path d="M245.727 186.711L202.55 144.651C202.55 144.651 170.832 171.933 171.872 208.31C173.69 271.97 221.866 290.158 245.727 291.295V186.711Z" stroke="#0154D5"></path><path d="M185.506 132.146L161.645 109.41C122.558 130.327 114.302 177.238 115.059 198.079C113.923 237.109 128.694 320.397 196.868 341.313C282.086 367.459 326.399 334.493 349.124 315.168C371.848 295.842 396.845 244.687 397.982 198.079C398.891 160.793 365.788 121.157 349.124 106L326.399 132.146C382.756 173.979 362.001 248.098 344.579 279.927C306.325 314.41 218.229 362.685 171.872 279.927C125.514 197.17 161.645 146.924 185.506 132.146Z" stroke="#0154D5"></path></g><g opacity="0.3"><path d="M304 113C304 138.957 282.734 160 256.5 160C230.266 160 209 138.957 209 113C209 87.0426 230.266 66 256.5 66C282.734 66 304 87.0426 304 113Z" fill="black"></path><path d="M304 113C304 138.957 282.734 160 256.5 160C230.266 160 209 138.957 209 113C209 87.0426 230.266 66 256.5 66C282.734 66 304 87.0426 304 113Z" stroke="#0154D5"></path></g><path d="M476.476 248.581C478.357 265.125 472.517 281.534 465.693 296.691C458.097 313.562 448.555 330.496 433.115 340.687C417.674 350.877 394.916 352.163 381.931 338.98C379.33 336.352 377.19 332.104 379.441 329.188C381.51 326.52 386.102 327.263 388.224 329.89C390.345 332.518 390.547 336.211 390.174 339.568C389.507 345.534 387.351 351.237 383.906 356.153C380.46 361.069 375.835 365.041 370.455 367.704C365.074 370.367 359.111 371.635 353.113 371.394C347.115 371.152 341.273 369.407 336.125 366.32" stroke="#E7E5C2" stroke-width="5" stroke-miterlimit="10"></path><path d="M31.4635 252.581C29.5829 269.125 35.4227 285.534 42.2461 300.691C49.8429 317.562 59.3846 334.496 74.8248 344.687C90.2651 354.877 113.023 356.163 126.008 342.98C128.609 340.352 130.75 336.104 128.498 333.188C126.43 330.52 121.837 331.263 119.716 333.89C117.594 336.518 117.393 340.211 117.765 343.568C118.433 349.534 120.588 355.237 124.034 360.153C127.479 365.069 132.105 369.041 137.485 371.704C142.865 374.367 148.828 375.635 154.827 375.394C160.825 375.152 166.666 373.407 171.815 370.32" stroke="#E7E5C2" stroke-width="5" stroke-miterlimit="10"></path><circle cx="191" cy="203" r="12" fill="#E9E7C4"></circle><circle cx="296" cy="270" r="12" fill="#028B3F"></circle><circle cx="284" cy="210" r="12" fill="#028B3F"></circle><circle cx="264" cy="92" r="12" fill="#F0BC00"></circle><circle cx="197" cy="252" r="12" fill="#E9E7C4"></circle><circle cx="166" cy="134" r="12" fill="#049DFF"></circle><circle cx="255" cy="122" r="12" fill="#028B3F"></circle><circle cx="173" cy="322" r="12" fill="#E9E7C4"></circle><circle cx="149" cy="234" r="12" fill="#F0BC00"></circle><circle cx="320" cy="239" r="12" fill="#E9E7C4"></circle><circle cx="359" cy="141" r="12" fill="#E679A6"></circle><circle cx="227" cy="98" r="12" fill="black"></circle><circle cx="236" cy="146" r="12" fill="#E9E7C4"></circle><circle cx="335" cy="175" r="12" fill="#E679A6"></circle><circle cx="122" cy="215" r="12" fill="#E9E7C4"></circle><circle cx="245" cy="328" r="12" fill="#E9E7C4"></circle><circle cx="304" cy="187" r="12" fill="#E9E7C4"></circle><circle cx="367" cy="239" r="12" fill="#E9E7C4"></circle><circle cx="335" cy="310" r="12" fill="black"></circle><circle cx="197" cy="322" r="12" fill="#E679A6"></circle><circle cx="292" cy="322" r="12" fill="#E9E7C4"></circle><circle cx="398" cy="215" r="12" fill="#028B3F"></circle><circle cx="341" cy="219" r="12" fill="#F0BC00"></circle><circle cx="217" cy="219" r="12" fill="#F0BC00"></circle><circle cx="137" cy="191" r="12" fill="#F0BC00"></circle><circle cx="215" cy="183" r="12" fill="#028B3F"></circle><circle cx="224" cy="343" r="12" fill="#049DFF"></circle><circle cx="292" cy="234" r="12" fill="#049DFF"></circle><circle cx="231" cy="252" r="12" fill="#0154D5"></circle><circle cx="282" cy="122" r="12" fill="#0154D5"></circle><circle cx="137" cy="151" r="12" fill="#049DFF"></circle><circle cx="157" cy="286" r="12" fill="#049DFF"></circle><circle cx="383" cy="179" r="12" fill="#049DFF"></circle><circle cx="371" cy="270" r="12" fill="#028B3F"></circle></g><defs><clipPath id="clip0"><rect width="512" height="407" fill="white"></rect></clipPath></defs></svg> 