<?xml version="1.0" encoding="UTF-8"?> <svg xmlns="http://www.w3.org/2000/svg" width="512" height="407" viewBox="0 0 512 407" fill="none"><g clip-path="url(#clip0)"><rect width="512" height="407" fill="#028B3F"></rect><path d="M66.5303 1.19482C66.5303 1.19482 -2.77344 1.19482 -2.77344 70.3268V336.704C-2.77344 336.704 -2.77344 405.828 66.5303 405.828H444.461C444.461 405.828 513.772 405.828 513.772 336.704V70.2965C513.772 70.2965 513.772 1.19482 444.461 1.19482H66.5303Z" fill="#028B3F"></path><path d="M9.81475 113.941C7.48679 100.304 7.66399 86.3567 10.3377 72.7833C12.8233 60.1987 18.2722 47.0607 29.4881 40.8517C32.8453 38.9868 36.7784 37.8193 40.5372 38.5774C44.2961 39.3355 47.7518 42.4513 48.0549 46.2722C48.3581 50.0931 44.7205 54.0125 40.9768 53.2317C36.0509 52.2082 35.1415 45.3094 36.9754 40.6167C42.0226 27.6834 58.0962 22.0051 71.8357 24.2491" stroke="#F0BC00" stroke-width="6" stroke-miterlimit="10"></path><path d="M116.366 393.176C109.932 388.566 115.229 381.167 108.788 376.565C102.346 371.964 97.0563 379.355 90.5996 374.754C84.1429 370.152 89.4629 362.745 83.0213 358.143C76.5797 353.542 71.2976 360.933 64.8333 356.331C58.369 351.73 63.689 344.323 57.255 339.714C50.821 335.104 45.5314 342.511 39.0671 337.902C32.6028 333.293 37.9227 325.893 31.4887 321.292C25.0548 316.69 19.7651 324.081 13.3008 319.472" stroke="#F0BC00" stroke-width="6" stroke-miterlimit="10"></path><path d="M501.056 121.734C497.1 114.911 504.974 110.362 501.056 103.479C497.138 96.5952 489.226 101.204 485.271 94.3208C481.315 87.4372 489.189 82.9492 485.271 76.058C481.353 69.1668 473.441 73.7836 469.485 66.9C465.529 60.0164 473.403 55.5284 469.485 48.6447C465.567 41.7611 457.648 46.3704 453.692 39.4792C449.736 32.588 457.61 28.1075 453.692 21.2163C449.774 14.3251 441.862 18.942 437.898 12.0508" stroke="#F0BC00" stroke-width="6" stroke-miterlimit="10"></path><path d="M450.457 386.125C458.081 380.28 464.788 372.782 467.887 363.677C470.987 354.572 469.812 343.701 463.408 336.544C461.643 334.581 458.93 332.83 456.505 333.868C454.458 334.748 453.625 337.393 454.231 339.547C454.837 341.7 456.444 343.405 458.225 344.755C462.214 347.779 467.054 349.468 472.057 349.582C477.061 349.697 481.973 348.231 486.096 345.392C490.219 342.554 493.343 338.488 495.023 333.772C496.704 329.056 496.855 323.93 495.457 319.123" stroke="#F0BC00" stroke-width="6" stroke-miterlimit="10"></path><path d="M412.789 72.1993C412.789 72.1993 487.815 145.402 433.486 272.97C379.157 400.537 233.024 382.137 220.126 378.347C207.228 374.556 124.336 343.345 111.445 307.304L244.657 259.71C244.657 259.71 324.449 163.233 324.449 159.708C324.449 156.183 315.082 90.0831 315.082 90.0831L393.056 67.3398L412.789 72.1993Z" fill="black" stroke="#0491FF" stroke-width="5" stroke-miterlimit="10"></path><path d="M303.663 40.2528C303.663 40.2528 333.059 29.8819 337.925 32.8461C342.79 35.8103 344.692 45.5369 356.529 40.2528C368.367 34.9688 349.974 28.8281 349.974 28.8281L361.819 24.1733L381.068 39.1915C381.068 39.1915 385.827 36.5457 388.464 39.1915C391.102 41.8373 401.582 48.7134 397.77 54.6342L412.791 72.1996C412.791 72.1996 391.427 78.7572 394.838 82.1384C398.248 85.5196 408.054 94.7306 396.315 96.9519C384.577 99.1731 382.144 94.8747 378.976 86.1791C375.809 77.4836 355.923 99.4915 339.849 99.4915L308.968 71.2141L295.031 46.1964L303.663 40.2528Z" fill="black" stroke="#0491FF" stroke-width="5" stroke-miterlimit="10"></path><path d="M87.6602 88.5215C87.6602 88.5215 98.0955 67.9692 101.483 67.9692C104.871 67.9692 110.789 63.9436 110.789 60.7747C110.789 60.7747 119.459 46.3706 124.953 44.6952C130.447 43.0198 138.693 37.9253 139.761 33.6951C140.83 29.4648 153.933 22.8996 156.259 30.9431L166.619 27.1526L168.134 32.2243L158.798 45.749C158.798 45.749 156.676 40.8895 153.933 40.8895C151.189 40.8895 136.76 51.6774 141.224 54.2171C145.687 56.7568 152.553 45.4382 154.774 56.7567L140.125 81.6986L128.757 100.765L87.6602 88.5215Z" fill="black" stroke="#0491FF" stroke-width="5" stroke-miterlimit="10"></path><path d="M148.431 113.903C148.431 113.903 173.811 115.078 180.154 107.179C180.154 107.179 172.75 102.592 178.888 96.459C185.027 90.3259 200.032 86.6035 200.032 94.9427C200.032 103.282 209.815 100.075 233.687 93.9799L247.123 116.663C247.123 116.663 250.753 144.629 250.23 144.099C249.707 143.568 214.559 159.541 214.559 159.541L184.807 169.7L145.892 170.405L125.241 149.739L113.328 130.627L130.667 100.803L141.224 103.403L148.431 113.903Z" fill="#1026B0" stroke="#0491FF" stroke-width="5" stroke-miterlimit="10"></path><path d="M64.0586 162.46C64.0586 162.46 72.7585 102.781 91.2041 84.3289C91.2041 84.3289 94.2355 88.0361 99.7525 86.1787C105.269 84.3213 108.377 81.2207 110.65 73.7457C112.924 66.2708 123.033 68.2494 121.214 73.7457C119.395 79.242 115.447 84.3593 122.919 82.7748C130.392 81.1904 141.221 79.2799 141.221 79.2799C141.221 79.2799 136.272 88.2863 141.221 90.9775C146.17 93.6688 154.771 88.309 154.771 102.273C154.771 116.238 145.889 117.329 137.174 113.948C128.459 110.567 124.291 142.294 128.429 153.158L101.079 158.237L64.0586 162.46Z" fill="black" stroke="#0491FF" stroke-width="5" stroke-miterlimit="10"></path><path d="M121.359 146.108C121.359 146.108 101.337 152.59 96.252 147.51C91.1669 142.431 101.754 134.107 98.2299 130.582C94.706 127.056 86.1046 123.88 86.1046 134.145C86.1046 144.41 84.9754 153.151 76.7984 150.891C76.7984 150.891 68.9397 146.555 66.3631 149.133C66.3631 149.133 23.0075 324.377 220.12 378.324V373.245L183.797 351.669C183.797 351.669 179.689 348.007 177.514 350.153C175.339 352.298 156.772 351.533 152.438 338.311C152.438 338.311 150.748 335.347 160.016 338.311C169.284 341.275 137.599 309.746 137.599 309.746L162.555 297.896L166.344 275.949L132.507 163.976L121.359 146.108Z" fill="black" stroke="#0491FF" stroke-width="5" stroke-miterlimit="10"></path><path d="M234.996 130.589C234.996 130.589 222.59 97.3764 234.996 93.3508C247.402 89.3253 254.381 93.3508 252.055 84.678C249.728 76.0053 244.552 72.3057 238.732 78.1204C232.912 83.9351 225.849 85.3149 223.507 78.7572C221.166 72.1996 220.332 60.7748 220.332 60.7748C220.332 60.7748 247.819 57.3861 247.819 51.4653C247.819 45.5444 238.096 41.3066 254.169 36.6518C270.243 31.997 264.529 44.6953 269.182 46.3859C273.835 48.0765 303.656 40.2528 303.656 40.2528C303.656 40.2528 306.407 58.2352 316.342 54.8464C326.277 51.4577 330.301 44.9076 335.803 55.6955C341.305 66.4834 338.129 68.3863 327.762 67.3325C317.395 66.2787 317.403 77.0666 339.819 99.4915L322.692 118.111L273.774 132.28L242.12 136.722L234.996 130.589Z" fill="black" stroke="#0491FF" stroke-width="5" stroke-miterlimit="10"></path><path d="M270.036 301.959C270.036 301.959 312.543 303.438 333.899 287.146C333.899 287.146 332.845 283.878 326.927 281.597C321.008 279.315 325.653 268.527 343.417 263.03C361.181 257.534 366.682 254.388 362.029 274.364C357.376 294.34 407.499 253.296 407.499 253.296C407.499 253.296 391.638 247.792 396.715 224.951C401.793 202.109 416.813 231.084 416.813 200.403C416.813 200.403 415.297 185.597 404.756 193.004C403.452 193.914 403.763 197.295 402.899 198.705C401.096 201.677 396.2 202.639 392.979 201.896C389.758 201.154 387.887 198.197 386.568 195.331C383.649 188.857 381.118 182.214 378.99 175.438L368.304 164.757L336.263 160.913C336.263 160.913 298.372 177.887 297.773 177.281C297.174 176.674 238.723 213.101 238.723 213.101L255.281 294.765L270.036 301.959Z" fill="black" stroke="#0491FF" stroke-width="5" stroke-miterlimit="10"></path><path d="M234.998 130.589C234.998 130.589 277.013 125.934 279.763 120.225C282.514 114.517 281.81 112.819 274.337 111.545C266.865 110.272 260.522 97.793 282.727 92.509C304.931 87.225 303.241 96.527 301.551 103.123C299.861 109.718 312.759 112.22 339.829 99.5291C339.829 99.5291 361.397 121.742 350.613 123.645C339.829 125.547 331.372 126.609 337.927 142.688C344.482 158.768 359.495 147.555 360.556 142.688C361.617 137.821 374.091 134.395 378.926 175.439C378.926 175.439 341.489 195.961 338.109 192.579C334.729 189.198 343.179 176.925 338.95 175.022C334.721 173.119 295.595 177.463 301.059 192.959C301.059 192.959 306.136 198.713 310.153 200.191C314.169 201.669 311.911 218.461 254.672 220.857L237.613 210.137L212.013 203.61L199.047 172.065L217.167 145.41L234.998 130.589Z" fill="black" stroke="#0491FF" stroke-width="5" stroke-miterlimit="10"></path><path d="M122.209 232.987C122.209 232.987 117.556 263.872 128.34 268.315C139.124 272.757 146.74 256.261 154.561 274.031C162.382 291.801 153.356 287.995 137.889 285.031C122.422 282.067 137.646 309.783 137.646 309.783C137.646 309.783 181.843 312.535 186.079 313.801C190.316 315.067 192.422 317.827 190.308 323.748C188.194 329.669 200.243 334.748 212.725 332.208C225.206 329.669 231.337 328.418 222.243 321.42C213.149 314.423 242.758 303.438 270.04 301.96C270.04 301.96 252.268 278.898 277.224 271.279C302.179 263.66 302.816 279.739 302.816 254.358C302.816 254.358 296.897 237.642 283.362 247.376C269.827 257.11 264.469 265.146 257.945 249.491C251.42 233.836 254.739 220.857 254.739 220.857L246.138 215.854L194.961 223.435L161.541 225.974L127.067 228.939L122.209 232.987Z" fill="black" stroke="#0491FF" stroke-width="5" stroke-miterlimit="10"></path><path d="M122.209 236.088C122.209 236.088 147.899 230.447 158.585 233.093C169.27 235.739 174.234 240.924 169.263 246.823C164.291 252.721 167.042 257.823 175.712 257.823C184.381 257.823 209.549 254.123 201.091 245.655C192.634 237.187 189.777 235.186 199.508 231.698C209.238 228.211 239.37 220.274 254.738 220.835C254.738 220.835 259.391 196.431 241.764 188.236C224.137 180.041 232.322 200.934 216.529 193.035C200.735 185.135 207.927 159.89 223.44 162.43C238.953 164.969 243.144 163.696 241.764 157.631C240.385 151.566 234.997 130.551 234.997 130.551C234.997 130.551 198.341 135.35 191.573 139.3C184.806 143.25 183.457 145.145 188.746 150.436C194.036 155.728 176.485 168.631 163.799 162.566C151.113 156.501 167.891 154.386 167.891 149.595C167.891 144.804 165.208 138.595 121.36 146.07C121.36 146.07 126.013 169.056 119.67 175.401C113.327 181.746 109.379 171.315 102.998 177.675C96.6168 184.036 100.323 202.92 107.234 202.215C114.145 201.51 119.844 189.418 121.049 213.504L122.179 236.065" fill="black"></path><path d="M122.209 236.088C122.209 236.088 147.899 230.447 158.585 233.093C169.27 235.739 174.234 240.924 169.263 246.823C164.291 252.721 167.042 257.823 175.712 257.823C184.381 257.823 209.549 254.123 201.091 245.655C192.634 237.187 189.777 235.186 199.508 231.698C209.238 228.211 239.37 220.274 254.738 220.835C254.738 220.835 259.391 196.431 241.764 188.236C224.137 180.041 232.322 200.934 216.529 193.035C200.735 185.135 207.927 159.89 223.44 162.43C238.953 164.969 243.144 163.696 241.764 157.631C240.385 151.566 234.997 130.551 234.997 130.551C234.997 130.551 198.341 135.35 191.573 139.3C184.806 143.25 183.457 145.145 188.746 150.436C194.036 155.728 176.485 168.631 163.799 162.566C151.113 156.501 167.891 154.386 167.891 149.595C167.891 144.804 165.208 138.595 121.36 146.07C121.36 146.07 126.013 169.056 119.67 175.401C113.327 181.746 109.379 171.315 102.998 177.675C96.6168 184.036 100.323 202.92 107.234 202.215C114.145 201.51 119.844 189.418 121.049 213.504L122.179 236.065" stroke="#0491FF" stroke-width="5" stroke-miterlimit="10"></path><path d="M147.719 209.212L148.196 216.793L163.133 216.672L162.671 207.575C162.671 207.575 149.394 205.99 153.251 188.918C157.108 171.845 180.533 173.141 184.58 188.516C188.626 203.89 175.827 207.355 175.827 207.355L176.228 216.824L191.673 216.217L191.612 209.561" stroke="#EE8019" stroke-width="10.99" stroke-miterlimit="10"></path><path d="M178.566 277.837L185.546 266.094" stroke="#EE8019" stroke-width="5" stroke-miterlimit="10"></path><path d="M183.955 294.765L183.645 303.013" stroke="#EE8019" stroke-width="5" stroke-miterlimit="10"></path><path d="M193.93 292.438L199.432 297.093" stroke="#EE8019" stroke-width="5" stroke-miterlimit="10"></path><path d="M190.625 282.279L197.809 287.889" stroke="#EE8019" stroke-width="5" stroke-miterlimit="10"></path><path d="M173.914 275.403L184.789 282.81L191.465 272.97" stroke="#EE8019" stroke-width="5" stroke-miterlimit="10"></path><path d="M186.275 281.597L179.516 289.898L180.683 291.164L194.218 285.774" stroke="#EE8019" stroke-width="5" stroke-miterlimit="10"></path><path d="M186.078 289.019L189.852 292.786V303.438" stroke="#EE8019" stroke-width="5" stroke-miterlimit="10"></path><path d="M195.379 279.634L204.579 265.677" stroke="#EE8019" stroke-width="5" stroke-miterlimit="10"></path><path d="M197.672 276.161L203.735 279.004L220.119 272.97" stroke="#EE8019" stroke-width="5" stroke-miterlimit="10"></path><path d="M210.715 275.987L212.011 266.094" stroke="#EE8019" stroke-width="5" stroke-miterlimit="10"></path><path d="M201.363 277.89L206.592 303.438L227.311 298.04" stroke="#EE8019" stroke-width="5" stroke-miterlimit="10"></path><path d="M209.793 276.775L215.689 300.762" stroke="#EE8019" stroke-width="5" stroke-miterlimit="10"></path><path d="M203.273 287.237L218.748 282.81" stroke="#EE8019" stroke-width="5" stroke-miterlimit="10"></path><path d="M204.812 294.765L221.182 290.664" stroke="#EE8019" stroke-width="5" stroke-miterlimit="10"></path><path d="M327.164 213.253L337.478 251.652" stroke="#EE8019" stroke-width="10.72" stroke-miterlimit="10"></path><path d="M352.961 204.376L363.07 245.049" stroke="#EE8019" stroke-width="10.72" stroke-miterlimit="10"></path><path d="M335.168 243.047L354.819 214.77" stroke="#EE8019" stroke-width="10.72" stroke-miterlimit="10"></path><path d="M319.32 215.732L335.212 211.191" stroke="#EE8019" stroke-width="10.72" stroke-miterlimit="10"></path><path d="M346.352 206.029L360.182 202.519" stroke="#EE8019" stroke-width="10.72" stroke-miterlimit="10"></path><path d="M330.672 253.206L345.942 249.385" stroke="#EE8019" stroke-width="10.72" stroke-miterlimit="10"></path><path d="M356.469 246.906L369.261 243.396" stroke="#EE8019" stroke-width="10.72" stroke-miterlimit="10"></path><path d="M263.196 76.8544L257.277 67.4008L276.45 60.7749L280.997 63.1705C280.997 63.1705 284.529 79.25 269.16 86.725" fill="black"></path><path d="M263.196 76.8544L257.277 67.4008L276.45 60.7749L280.997 63.1705C280.997 63.1705 284.529 79.25 269.16 86.725" stroke="#EE8019" stroke-width="5" stroke-miterlimit="10"></path><path d="M267.348 63.9207L264.719 58.2349" stroke="#EE8019" stroke-width="5" stroke-miterlimit="10"></path><path d="M291.57 72.48L298.444 83.0556" stroke="#EE8019" stroke-width="5" stroke-miterlimit="10"></path><path d="M283.219 79.2802C283.711 78.7874 295.011 74.4814 295.011 63.2007L283.219 79.2802Z" fill="black"></path><path d="M283.219 79.2802C283.711 78.7874 295.011 74.4814 295.011 63.2007" stroke="#EE8019" stroke-width="5" stroke-miterlimit="10"></path><path d="M63.2734 209.902C63.2734 209.902 72.0491 220.402 73.9892 218.461C75.9292 216.521 68.9117 203.58 73.9892 202.101C79.0666 200.623 90.6615 203.792 89.4262 215.854C88.1909 227.915 91.6618 237.892 125.12 235.496" fill="black"></path><path d="M63.2734 209.902C63.2734 209.902 72.0491 220.402 73.9892 218.461C75.9292 216.521 68.9117 203.58 73.9892 202.101C79.0666 200.623 90.6615 203.792 89.4262 215.854C88.1909 227.915 91.6618 237.892 125.12 235.496" stroke="#0491FF" stroke-width="5" stroke-miterlimit="10"></path><path d="M80.339 155.41C80.339 155.41 77.2395 162.892 82.317 164.158C87.3945 165.424 91.6156 165.288 90.6531 172.763" stroke="#EE8019" stroke-width="5" stroke-miterlimit="10"></path><path d="M74.4102 168.108C74.4102 168.108 88.1269 174.074 97.2512 174.878" stroke="#EE8019" stroke-width="5" stroke-miterlimit="10"></path><path d="M84.279 172.763C84.279 172.763 82.3086 185.173 84.279 185.173C86.2493 185.173 88.9396 178.828 90.766 183.482C92.5924 188.137 88.4925 200.972 82.7254 195.188C76.9583 189.403 77.7919 173.748 77.7919 173.748" stroke="#EE8019" stroke-width="5" stroke-miterlimit="10"></path><path d="M93.5847 276.707C93.1603 276.29 79.0647 245.541 81.7398 240.181C84.4149 234.821 97.6088 249.771 99.7534 255.412C101.898 261.052 107.68 280.376 107.68 280.376" stroke="#EE8019" stroke-width="5" stroke-miterlimit="10"></path><path d="M83.2539 251.06C83.2539 251.06 94.2879 257.883 106.557 257.883" stroke="#EE8019" stroke-width="5" stroke-miterlimit="10"></path><path d="M102.74 264.304C102.74 264.304 93.1075 260.635 94.5398 265.82C95.9721 271.006 100.186 272.924 104.642 270.369" stroke="#EE8019" stroke-width="5" stroke-miterlimit="10"></path><path d="M85.25 282.81C85.25 282.81 101.763 298.995 103.317 297.441C104.87 295.887 99.285 288.912 101.202 287.002C103.12 285.091 113.957 288.48 115.541 297.54C117.124 306.599 121.952 308.737 137.646 309.776" fill="black"></path><path d="M85.25 282.81C85.25 282.81 101.763 298.995 103.317 297.441C104.87 295.887 99.285 288.912 101.202 287.002C103.12 285.091 113.957 288.48 115.541 297.54C117.124 306.599 121.952 308.737 137.646 309.776" stroke="#0491FF" stroke-width="5" stroke-miterlimit="10"></path><path d="M128.408 327.766C128.408 327.766 117.268 319.866 123.194 317.91C129.12 315.954 137.593 325.666 136.729 330.32C136.729 330.32 157.865 346.112 146.384 346.68" stroke="#EE8019" stroke-width="5" stroke-miterlimit="10"></path><path d="M134.75 334.399C134.75 334.399 135.447 338.85 136.629 340.032" stroke="#EE8019" stroke-width="5" stroke-miterlimit="10"></path><path d="M93.7228 109.855C93.7228 109.855 98.3759 103.229 96.5495 101.394C94.7231 99.5595 88.3725 101.538 87.6602 109.855H98.9443L104.439 102.524L105.568 109.855C105.568 109.855 98.8003 113.804 102.188 117.193C105.575 120.582 109.092 115.677 110.789 113.948" stroke="#EE8019" stroke-width="5" stroke-miterlimit="10"></path><path d="M111.938 108.028C112.483 106.838 117.113 93.5024 117.113 93.5024C117.113 93.5024 123.176 94.9125 122.191 98.5742C121.206 102.236 111.938 108.028 111.938 108.028Z" stroke="#EE8019" stroke-width="5" stroke-miterlimit="10"></path><path d="M141.222 144.06C141.222 144.06 140.813 135.031 148.71 134.152C156.606 133.273 154.068 128.193 152.802 122.409C152.224 119.518 151.428 116.674 150.422 113.903" stroke="#0491FF" stroke-width="5" stroke-miterlimit="10"></path><path d="M126.56 49.7896L123.059 56.1349H129.629" stroke="#EE8019" stroke-width="5" stroke-miterlimit="10"></path><path d="M140.093 42.5952L124.02 63.6479L131.53 62.905L129.627 70.4178" stroke="#EE8019" stroke-width="5" stroke-miterlimit="10"></path><path d="M381.423 63.8675C380.512 60.4546 378.725 57.3392 376.239 54.8309C373.764 52.3457 371.039 50.1228 368.108 48.1974C366.115 46.8101 363.796 45.3924 361.424 45.9231C359.271 46.4007 357.733 48.4628 357.293 50.6309C356.992 52.8309 357.253 55.0713 358.051 57.1431C358.847 59.6234 359.915 62.0082 361.234 64.2542C363.409 67.9462 366.728 71.4941 371.003 71.8353C372.098 71.9692 373.205 71.6997 374.117 71.0772C375.853 69.7581 376.012 66.8469 378.005 65.9751C379.089 65.4975 380.688 65.596 381.036 64.4589L381.423 63.8675Z" fill="black" stroke="#EE8019" stroke-width="5" stroke-miterlimit="10"></path><path d="M359.453 46.8784C359.453 46.8784 370.881 56.9992 376.466 67.3474L359.453 46.8784Z" fill="black"></path><path d="M359.453 46.8784C359.453 46.8784 370.881 56.9992 376.466 67.3474" stroke="#EE8019" stroke-width="5" stroke-miterlimit="10"></path><path d="M374.93 53.527L381.424 48.9253L386.706 55.9757" fill="black"></path><path d="M374.93 53.527L381.424 48.9253L386.706 55.9757" stroke="#EE8019" stroke-width="5" stroke-miterlimit="10"></path><path d="M378.922 175.438C378.922 175.438 398.944 163.794 406.833 155.902C414.722 148.01 421.004 144.53 422.906 154.499C424.809 164.469 427.347 172.27 432.637 166.978C437.927 161.686 437.714 154.704 433.903 146.456C430.091 138.208 433.599 134.819 445.914 132.279" fill="black"></path><path d="M378.922 175.438C378.922 175.438 398.944 163.794 406.833 155.902C414.722 148.01 421.004 144.53 422.906 154.499C424.809 164.469 427.347 172.27 432.637 166.978C437.927 161.686 437.714 154.704 433.903 146.456C430.091 138.208 433.599 134.819 445.914 132.279" stroke="#0491FF" stroke-width="5" stroke-miterlimit="10"></path><path d="M395.027 116.428C395.027 116.428 406.236 136.525 414.905 132.295C423.575 128.065 421.248 102.888 414.905 101.834C408.562 100.78 407.501 115.374 418.694 122.356" fill="black"></path><path d="M395.027 116.428C395.027 116.428 406.236 136.525 414.905 132.295C423.575 128.065 421.248 102.888 414.905 101.834C408.562 100.78 407.501 115.374 418.694 122.356" stroke="#EE8019" stroke-width="5" stroke-miterlimit="10"></path><path d="M451.674 207.704C446.369 210.35 441.943 224.383 441.943 224.383C444.717 227.157 440.602 236.255 438.381 238.476C436.161 240.697 434.395 238.476 434.395 234.45C434.395 230.425 434.789 225.99 428.575 234.45C422.361 242.911 407.507 253.282 407.507 253.282C407.507 253.282 411.736 282.476 400.103 286.078C388.471 289.679 371.768 294.326 377.262 303.423C382.757 312.52 388.455 305.591 392.07 301.975C395.685 298.359 399.717 299.193 395.685 305.114C391.653 311.034 379.172 322.467 377.899 327.334C377.899 327.334 398.626 311.671 398.626 314.446C398.626 317.221 387.258 326.106 396.943 328.213" stroke="#0491FF" stroke-width="5" stroke-miterlimit="10"></path><path d="M451.676 159.162C451.676 159.162 445.954 157.032 445.954 159.996C445.954 162.96 444.173 182.118 453.23 182.118" stroke="#0491FF" stroke-width="5" stroke-miterlimit="10"></path><path d="M270.038 301.959C270.038 301.959 274.896 313.384 285.263 317.827C295.63 322.269 290.568 329.464 284.202 330.517C277.836 331.571 251.426 330.517 254.177 341.518C256.928 352.518 267.287 351.676 277.669 346.385C288.052 341.093 296.07 338.561 300.511 353.579C300.511 353.579 326.739 351.464 332.658 347.446C338.576 343.428 326.739 341.942 333.923 337.5C341.108 333.057 356.135 328.895 355.074 332.883C354.013 336.87 357.189 340.252 377.915 327.349L372.838 337.5C372.838 337.5 359.091 341.73 359.091 345.96C359.091 345.96 362.372 348.818 364.805 346.385L361.493 355.323" stroke="#0491FF" stroke-width="5" stroke-miterlimit="10"></path><path d="M220.129 373.252C220.129 373.252 239.37 367.331 240.636 370.295C241.901 373.26 244.47 375.367 253.974 373.252C263.477 371.137 266.44 370.295 258.619 366.27C250.798 362.244 300.489 353.579 300.489 353.579C300.489 353.579 300.171 358.977 298.799 360.349C297.428 361.721 293.934 368.81 303.877 365.853C313.82 362.896 322.247 361.805 317.518 366.566C312.789 371.326 297.973 371.986 297.973 371.986C297.973 371.986 296.109 378.324 303.922 376.535" fill="black"></path><path d="M220.129 373.252C220.129 373.252 239.37 367.331 240.636 370.295C241.901 373.26 244.47 375.367 253.974 373.252C263.477 371.137 266.44 370.295 258.619 366.27C250.798 362.244 300.489 353.579 300.489 353.579C300.489 353.579 300.171 358.977 298.799 360.349C297.428 361.721 293.934 368.81 303.877 365.853C313.82 362.896 322.247 361.805 317.518 366.566C312.789 371.326 297.973 371.986 297.973 371.986C297.973 371.986 296.109 378.324 303.922 376.535" stroke="#0491FF" stroke-width="5" stroke-miterlimit="10"></path><path d="M214.231 342.549C215.534 343.788 216.361 345.447 216.565 347.234C216.633 347.571 216.628 347.919 216.553 348.255C216.477 348.59 216.332 348.906 216.126 349.182C215.775 349.516 215.331 349.736 214.853 349.811C213.109 350.153 211.301 349.871 209.744 349.015C208.187 348.159 206.98 346.782 206.335 345.126C206.161 344.747 206.07 344.335 206.07 343.917C206.07 343.5 206.161 343.087 206.335 342.708C206.858 341.836 207.987 341.578 208.987 341.442C214.87 340.677 220.847 341.108 226.56 342.709C232.273 344.31 237.604 347.048 242.233 350.759C243.825 351.924 245.123 353.445 246.022 355.202C246.428 356.012 246.568 356.93 246.424 357.825C246 359.872 243.681 360.895 241.604 361.191C239.001 361.54 236.351 361.266 233.874 360.391C231.398 359.515 229.164 358.064 227.357 356.157C227.024 359.834 223.568 362.487 220.021 363.556C217.255 364.397 214.125 364.519 211.594 363.131C209.063 361.744 207.396 358.583 208.381 355.854C208.735 354.99 209.284 354.22 209.985 353.603C210.685 352.986 211.519 352.54 212.42 352.298C213.175 352.065 213.97 351.995 214.754 352.091C215.537 352.188 216.292 352.45 216.967 352.859C217.635 353.291 218.152 353.92 218.446 354.659C218.741 355.398 218.799 356.21 218.612 356.983C218.496 357.358 218.306 357.705 218.054 358.006C217.802 358.306 217.493 358.553 217.144 358.732C216.795 358.912 216.415 359.02 216.024 359.05C215.633 359.08 215.24 359.032 214.868 358.909C214.503 358.735 214.159 358.519 213.845 358.264" stroke="#EE8019" stroke-width="5" stroke-miterlimit="10"></path><path d="M343.957 290.975C343.957 292.877 342.813 298.889 348.504 298.889C354.196 298.889 361.615 294.977 361.615 303.438C361.615 311.898 359.22 322.899 359.22 322.899" stroke="#EE8019" stroke-width="10.72" stroke-miterlimit="10"></path><path d="M439.438 173.111C439.438 174.173 443.878 201.04 440.915 214.807" stroke="#EE8019" stroke-width="5" stroke-miterlimit="10"></path><path d="M425.266 203.61C425.266 203.61 431.745 206.339 441.938 193.959" stroke="#EE8019" stroke-width="5" stroke-miterlimit="10"></path><path d="M433.602 202.519C433.602 202.519 435.382 210.987 433.602 215.854" stroke="#EE8019" stroke-width="5" stroke-miterlimit="10"></path><path d="M431.299 182.55C431.299 182.55 425.16 192.072 431.299 195.438C437.437 198.804 437.854 178.956 431.299 182.55Z" stroke="#EE8019" stroke-width="5" stroke-miterlimit="10"></path><path d="M431.297 182.55L429.918 177.342" stroke="#EE8019" stroke-width="5" stroke-miterlimit="10"></path><path d="M259.246 376.876L269.492 374.45" stroke="#EE8019" stroke-width="5" stroke-miterlimit="10"></path><path d="M325.938 363.313C325.938 363.313 328.901 356.96 332.993 356.255C335.079 355.859 337.192 355.623 339.313 355.55L338.631 359.432L344.694 356.96L345.959 353.579" stroke="#EE8019" stroke-width="5" stroke-miterlimit="10"></path><path d="M343.844 349.205C343.844 349.205 350.611 345.68 352.445 347.514C354.279 349.349 351.18 355.323 351.18 355.323" stroke="#EE8019" stroke-width="5" stroke-miterlimit="10"></path><path d="M416.816 268.808L431.534 259.915C431.534 259.915 425.547 248.339 416.816 268.808Z" stroke="#EE8019" stroke-width="5" stroke-miterlimit="10"></path><path d="M416.817 275.721L426.616 269.937C426.616 269.937 423.372 288.42 418.158 290.671C412.944 292.923 414.111 284.349 423.228 281.65" stroke="#EE8019" stroke-width="5" stroke-miterlimit="10"></path><path d="M308.197 128.08L310.804 161.914L310.486 161.997L295.018 148.579L294.791 148.647L288.387 167.88L288.16 167.941L271.594 138.14" stroke="#EE8019" stroke-width="10.99" stroke-miterlimit="10"></path><path d="M263.621 143.879L280.794 134.66" stroke="#EE8019" stroke-width="10.99" stroke-miterlimit="10"></path><path d="M297.418 128.58L317.811 126.2" stroke="#EE8019" stroke-width="10.99" stroke-miterlimit="10"></path><path d="M280.738 173.801L296.933 169.586" stroke="#EE8019" stroke-width="10.99" stroke-miterlimit="10"></path><path d="M304.844 168.502L319.932 161.748" stroke="#EE8019" stroke-width="10.99" stroke-miterlimit="10"></path><path d="M318.449 139.474L326.861 134.372" stroke="#EE8019" stroke-width="4.86" stroke-miterlimit="10"></path><path d="M321.312 146.365L329.035 144.568" stroke="#EE8019" stroke-width="4.86" stroke-miterlimit="10"></path><path d="M321.547 153.112L329.709 156.069" stroke="#EE8019" stroke-width="4.86" stroke-miterlimit="10"></path><path d="M270.039 157.76L260.309 156.388" stroke="#EE8019" stroke-width="4.86" stroke-miterlimit="10"></path><path d="M270.442 163.877L262.484 166.584" stroke="#EE8019" stroke-width="4.86" stroke-miterlimit="10"></path><path d="M274.677 169.73L267.395 177.463" stroke="#EE8019" stroke-width="4.86" stroke-miterlimit="10"></path><path d="M185.637 172.763L190.009 167.031" stroke="#EE8019" stroke-width="4.86" stroke-miterlimit="10"></path><path d="M190.715 178.456L196.777 175.78" stroke="#EE8019" stroke-width="4.86" stroke-miterlimit="10"></path><path d="M193.746 185.931L199.975 184.71" stroke="#EE8019" stroke-width="4.86" stroke-miterlimit="10"></path><path d="M194.801 194.96L201.712 195.946" stroke="#EE8019" stroke-width="4.86" stroke-miterlimit="10"></path><path d="M154.77 171.489L150.246 165.227" stroke="#EE8019" stroke-width="4.86" stroke-miterlimit="10"></path><path d="M148.839 176.493L142.633 173.597" stroke="#EE8019" stroke-width="4.86" stroke-miterlimit="10"></path><path d="M146.299 184.71L139.531 183.111" stroke="#EE8019" stroke-width="4.86" stroke-miterlimit="10"></path><path d="M143.624 194.217L137.273 196.658" stroke="#EE8019" stroke-width="4.86" stroke-miterlimit="10"></path><path d="M66.3709 149.14C66.3709 149.14 23.0153 324.385 220.127 378.332" stroke="#0491FF" stroke-width="5" stroke-miterlimit="10"></path><path d="M424.164 55.9756L432.311 38.5088" stroke="black" stroke-width="9.75" stroke-miterlimit="10"></path><path d="M440.688 73.7459L455.776 63.9512" stroke="black" stroke-width="9.75" stroke-miterlimit="10"></path><path d="M456.625 101.765L472.274 97.6792" stroke="black" stroke-width="9.75" stroke-miterlimit="10"></path><path d="M464.445 132.279L480.731 130.589" stroke="black" stroke-width="9.75" stroke-miterlimit="10"></path><path d="M469.734 169.154L486.657 168.358" stroke="black" stroke-width="9.75" stroke-miterlimit="10"></path><path d="M471.008 201.76L487.081 202.518" stroke="black" stroke-width="9.75" stroke-miterlimit="10"></path><path d="M466.355 232.456L482.846 235.852" stroke="black" stroke-width="9.75" stroke-miterlimit="10"></path><path d="M456.625 259.71L472.592 267.284" stroke="black" stroke-width="9.75" stroke-miterlimit="10"></path><path d="M445.801 288.769L461.7 301.763" stroke="black" stroke-width="9.75" stroke-miterlimit="10"></path><path d="M430.609 312.164L443.515 322.899" stroke="black" stroke-width="9.75" stroke-miterlimit="10"></path><path d="M412.449 335.521L425.264 351.153" stroke="black" stroke-width="9.75" stroke-miterlimit="10"></path><path d="M395.027 351.153L405.023 365.231" stroke="black" stroke-width="9.75" stroke-miterlimit="10"></path><path d="M369.277 365.231L377.894 381.447" stroke="black" stroke-width="9.75" stroke-miterlimit="10"></path><path d="M341.992 376.876L348.434 391.295" stroke="black" stroke-width="9.75" stroke-miterlimit="10"></path><path d="M127.878 30.7839L117.117 15.978" stroke="black" stroke-width="9.75" stroke-miterlimit="10"></path><path d="M104.639 40.518L91.2031 29.0933" stroke="black" stroke-width="9.75" stroke-miterlimit="10"></path><path d="M85.8307 61.8285L72.1367 52.4507" stroke="black" stroke-width="9.75" stroke-miterlimit="10"></path><path d="M71.2971 83.2528L51.8359 73.7461" stroke="black" stroke-width="9.75" stroke-miterlimit="10"></path><path d="M61.5665 108.028L40.8398 100.765" stroke="black" stroke-width="9.75" stroke-miterlimit="10"></path><path d="M51.1995 136.722L31.1094 134.872" stroke="black" stroke-width="9.75" stroke-miterlimit="10"></path><path d="M48.0322 168.76L23.918 168.358" stroke="black" stroke-width="9.75" stroke-miterlimit="10"></path><path d="M43.8038 201.76H26.457" stroke="black" stroke-width="9.75" stroke-miterlimit="10"></path><path d="M49.2959 228.908L30.6836 234.768" stroke="black" stroke-width="9.75" stroke-miterlimit="10"></path><path d="M57.3399 256.67L41.1602 267.283" stroke="black" stroke-width="9.75" stroke-miterlimit="10"></path><path d="M71.2952 285.084L57.3359 298.889" stroke="black" stroke-width="9.75" stroke-miterlimit="10"></path><path d="M87.6571 313.862L74.4102 328.637" stroke="black" stroke-width="9.75" stroke-miterlimit="10"></path><path d="M110.788 334.399L99.7539 351.154" stroke="black" stroke-width="9.75" stroke-miterlimit="10"></path><path d="M134.752 353.579L127.879 369.712" stroke="black" stroke-width="9.75" stroke-miterlimit="10"></path><path d="M160.963 368.863L154.219 384.086" stroke="black" stroke-width="9.75" stroke-miterlimit="10"></path><path d="M189.852 381.447L186.078 393.827" stroke="black" stroke-width="9.75" stroke-miterlimit="10"></path><path d="M232.344 199.441C232.51 198.71 232.823 198.021 233.265 197.416C233.707 196.812 234.268 196.303 234.913 195.923C236.292 195.053 237.921 194.667 239.543 194.824C241.07 195.285 242.453 196.131 243.56 197.28C244.604 198.362 245.446 199.623 246.045 201.002C247.22 203.701 247.561 206.544 247.902 209.342C247.144 206.628 246.386 203.876 244.977 201.579C243.567 199.282 241.362 197.5 239.013 197.204C237.868 196.745 236.602 196.686 235.421 197.038C234.77 197.205 234.161 197.505 233.632 197.919C233.103 198.332 232.664 198.85 232.344 199.441Z" fill="#EE8019"></path><path d="M274.184 294.947C272.973 293.944 271.989 292.696 271.295 291.285C270.601 289.874 270.215 288.331 270.16 286.76C270.409 285.165 271.025 283.649 271.961 282.333C272.896 281.018 274.124 279.938 275.548 279.179C276.932 278.495 278.446 278.115 279.989 278.064C281.467 278.021 282.945 278.076 284.415 278.231C282.954 278.275 281.498 278.419 280.057 278.663C278.67 278.89 277.345 279.407 276.17 280.179C275.081 280.959 274.189 281.981 273.564 283.165C272.939 284.35 272.599 285.663 272.57 287.002C272.264 288.366 272.25 289.778 272.528 291.147C272.807 292.516 273.371 293.811 274.184 294.947Z" fill="#EE8019"></path><path d="M343.913 132.348C343.754 133.485 343.905 134.644 344.351 135.702C344.796 136.761 345.519 137.679 346.444 138.359C347.634 139.959 349.991 140.96 351.976 140.05C353.021 139.537 353.909 138.751 354.545 137.776C355.243 136.772 355.851 135.709 356.364 134.599C356.032 135.8 355.596 136.969 355.061 138.094C354.508 139.297 353.645 140.331 352.56 141.089C351.965 141.463 351.304 141.721 350.612 141.847C349.91 141.972 349.192 141.972 348.49 141.847C347.068 141.602 345.75 140.943 344.701 139.952C343.908 138.868 343.417 137.592 343.279 136.256C343.14 134.92 343.359 133.571 343.913 132.348Z" fill="#EE8019"></path><path d="M138.933 258.459C138.626 259.164 138.163 259.79 137.578 260.291C136.994 260.791 136.305 261.152 135.561 261.348C134.725 261.552 133.853 261.564 133.012 261.383C132.171 261.202 131.381 260.832 130.703 260.302C130.121 259.656 129.677 258.897 129.4 258.073C129.153 257.331 128.968 256.57 128.847 255.798C128.591 254.327 128.513 252.831 128.612 251.341C128.805 248.42 129.685 245.586 131.181 243.07C130.077 245.69 129.612 248.536 129.824 251.371C129.917 252.741 130.172 254.094 130.582 255.404C130.865 256.608 131.482 257.706 132.363 258.573C132.715 259.051 133.17 259.441 133.696 259.716C134.221 259.991 134.802 260.142 135.394 260.158C136.074 260.161 136.746 260.01 137.359 259.715C137.972 259.421 138.51 258.992 138.933 258.459Z" fill="#EE8019"></path><path d="M109.136 193.368C108.229 191.893 107.635 190.246 107.393 188.531C107.258 187.638 107.23 186.732 107.31 185.832C107.387 184.777 107.777 183.768 108.431 182.936C108.889 182.52 109.444 182.226 110.045 182.08C110.619 181.944 111.215 181.944 111.789 182.08C112.692 182.343 113.549 182.747 114.327 183.277C114.964 183.707 115.655 184.051 116.381 184.301C117.499 184.647 118.688 184.695 119.83 184.44C120.972 184.185 122.027 183.635 122.891 182.845C124.074 181.715 124.836 180.215 125.051 178.592C125.013 180.355 124.355 182.048 123.192 183.373C122.028 184.697 120.435 185.568 118.692 185.832C115.085 186.825 111.114 182.8 110.068 184.672C109.564 185.068 109.196 185.611 109.015 186.226C108.768 186.964 108.605 187.727 108.53 188.501C108.393 190.148 108.6 191.805 109.136 193.368Z" fill="#EE8019"></path><path d="M237.164 111.97C236.231 110.711 235.601 109.253 235.323 107.711C235.044 106.169 235.124 104.583 235.557 103.077C236.27 101.642 237.299 100.388 238.567 99.4098C239.835 98.4313 241.309 97.7541 242.878 97.4294C245.909 96.8305 248.865 97.4294 251.699 98.0207C248.812 97.8312 245.818 97.672 243.196 98.5969C241.942 99.0307 240.803 99.7441 239.866 100.683C238.929 101.622 238.217 102.762 237.785 104.017C237.077 105.206 236.652 106.542 236.545 107.921C236.437 109.3 236.649 110.686 237.164 111.97Z" fill="#EE8019"></path><path d="M391.578 177.782C393.094 177.675 394.291 176.728 395.451 175.803C396.61 174.878 397.724 173.885 398.853 172.877C403.981 169.802 408.678 166.06 412.82 161.748C409.228 166.662 404.995 171.072 400.233 174.863C398.861 175.568 397.482 176.235 396.072 176.842C395.365 177.167 394.636 177.441 393.89 177.66C393.139 177.877 392.348 177.919 391.578 177.782Z" fill="#EE8019"></path><path d="M407.653 222.563C407.027 222.733 406.486 223.13 406.137 223.677C405.784 224.201 405.528 224.784 405.379 225.398C405.091 226.64 405.017 227.922 405.16 229.189C404.832 231.715 405.243 234.282 406.342 236.58C407.5 238.982 409.186 241.089 411.275 242.744C408.884 241.363 406.837 239.458 405.288 237.172C403.682 234.764 402.799 231.947 402.742 229.052C403.014 227.612 403.527 226.229 404.258 224.959C404.626 224.322 405.106 223.757 405.675 223.291C406.22 222.809 406.926 222.55 407.653 222.563Z" fill="#EE8019"></path><path d="M305.936 347.492C304.561 344.906 302.724 342.593 300.517 340.669C299.688 339.565 298.646 338.639 297.452 337.946C296.258 337.253 294.937 336.807 293.568 336.636C290.741 336.378 287.816 337.341 285.02 338.319C287.664 336.984 290.408 335.589 293.598 335.43C295.208 335.366 296.811 335.675 298.282 336.332C299.76 336.989 301.114 337.897 302.283 339.016C304.008 341.594 305.246 344.467 305.936 347.492Z" fill="#EE8019"></path><path d="M209.305 239.931C212.192 237.424 215.367 235.268 218.762 233.51C226.004 231.075 233.714 230.367 241.278 231.44C233.83 231.175 226.423 232.655 219.649 235.761C216.048 236.736 212.575 238.135 209.305 239.931Z" fill="#EE8019"></path><path d="M330.77 75.2319C332.727 77.716 334.809 80.0995 337.006 82.3733C337.79 83.6727 338.693 84.896 339.704 86.0274C340.708 87.072 341.992 87.8039 343.403 88.1349C344.896 88.5005 346.46 88.4667 347.936 88.0369C349.413 87.6071 350.75 86.7965 351.815 85.6863C350.825 86.9967 349.507 88.023 347.994 88.6618C346.481 89.3006 344.827 89.5294 343.198 89.3252C341.475 89.1416 339.841 88.4651 338.492 87.3768C337.24 86.3031 336.093 85.1126 335.066 83.8213C333.452 81.0163 332.05 78.1431 330.77 75.2319Z" fill="#EE8019"></path><path d="M297.836 312.164C301.367 311.872 304.857 311.206 308.249 310.178C315.265 309.328 322.029 307.031 328.111 303.431C322.33 307.775 315.711 310.873 308.673 312.528C305.058 312.791 301.425 312.669 297.836 312.164Z" fill="#EE8019"></path><path d="M283.438 238.847C284.867 237.275 286.769 236.211 288.856 235.815C290.984 235.409 293.17 235.409 295.298 235.815C297.318 236.463 299.266 237.32 301.11 238.37C303.82 239.986 306.083 242.253 307.695 244.965C309.307 247.678 310.216 250.75 310.341 253.903C309.8 249.874 307.934 246.14 305.036 243.29C303.641 241.911 302.022 240.78 300.246 239.947C298.45 239.149 296.575 238.539 294.653 238.127C292.854 237.386 290.931 236.992 288.985 236.967C286.98 236.971 285.032 237.631 283.438 238.847Z" fill="#EE8019"></path><path d="M366.555 218.81L372.057 211.464" stroke="#EE8019" stroke-width="4.86" stroke-miterlimit="10"></path><path d="M370.156 225.633L377.894 222.585" stroke="#EE8019" stroke-width="4.86" stroke-miterlimit="10"></path><path d="M371.211 232.456L378.956 234.154" stroke="#EE8019" stroke-width="4.86" stroke-miterlimit="10"></path><path d="M322.655 228.908L312.387 227.119" stroke="#EE8019" stroke-width="4.86" stroke-miterlimit="10"></path><path d="M322.654 236.323L314.742 238.332" stroke="#EE8019" stroke-width="4.86" stroke-miterlimit="10"></path><path d="M325.626 243.1L318.699 249.544" stroke="#EE8019" stroke-width="4.86" stroke-miterlimit="10"></path><path d="M225.297 266.624L230.852 260.787" stroke="#EE8019" stroke-width="4.86" stroke-miterlimit="10"></path><path d="M228.879 272.97L236.488 271.044" stroke="#EE8019" stroke-width="4.86" stroke-miterlimit="10"></path><path d="M231.844 282.81L240.127 280.717" stroke="#EE8019" stroke-width="4.86" stroke-miterlimit="10"></path><path d="M232.344 290.02L241.279 294.113" stroke="#EE8019" stroke-width="4.86" stroke-miterlimit="10"></path><path d="M335.947 324.65L332.324 319.358" stroke="#EE8019" stroke-width="4.86" stroke-miterlimit="10"></path><path d="M330.178 329.941L324.047 326.553" stroke="#EE8019" stroke-width="4.86" stroke-miterlimit="10"></path><path d="M325.937 337.212L318.699 338.402" stroke="#EE8019" stroke-width="4.86" stroke-miterlimit="10"></path><path d="M246.135 341.162C245.469 338.223 245.688 335.152 246.764 332.337C247.573 331.031 248.572 329.854 249.727 328.842C250.865 327.863 252.142 327.058 253.516 326.454C256.196 325.265 259.166 324.89 262.057 325.378C259.241 325.296 256.463 326.044 254.07 327.531C252.918 328.24 251.879 329.116 250.985 330.131C250.124 331.138 249.417 332.268 248.886 333.482C247.227 335.712 246.269 338.385 246.135 341.162Z" fill="#EE8019"></path><path d="M181.538 152.627C180.074 150.969 179.033 148.981 178.505 146.833C177.977 144.685 177.978 142.441 178.507 140.293C179.302 138.141 180.645 136.233 182.402 134.759C184.125 133.374 186.113 132.357 188.245 131.772C192.428 130.559 196.71 130.771 200.878 130.96C196.71 131.165 192.435 131.4 188.631 132.916C186.76 133.625 185.052 134.708 183.614 136.1C182.267 137.478 181.299 139.181 180.803 141.043C179.978 142.889 179.614 144.908 179.742 146.926C179.87 148.944 180.486 150.9 181.538 152.627Z" fill="black"></path><path d="M193.003 96.5044C193.143 98.5245 193.692 100.495 194.617 102.296C195.468 103.944 196.907 105.211 198.649 105.844C200.089 106.648 202.097 106.557 204.136 106.481C206.174 106.405 208.182 106.208 210.198 105.92C214.237 105.335 218.208 104.347 222.051 102.971C218.312 104.734 214.408 106.121 210.395 107.11C208.379 107.603 206.341 107.99 204.272 108.285C203.22 108.451 202.16 108.56 201.097 108.611C199.913 108.668 198.73 108.475 197.626 108.043C195.619 106.865 194.135 104.968 193.473 102.736C192.898 100.712 192.738 98.5921 193.003 96.5044Z" fill="black"></path><path d="M174.103 93.5022L168.094 88.8701" stroke="black" stroke-width="4.86" stroke-miterlimit="10"></path><path d="M181.805 88.8701L177.523 82.0547" stroke="black" stroke-width="4.86" stroke-miterlimit="10"></path><path d="M189.957 84.5262V77.7715" stroke="black" stroke-width="4.86" stroke-miterlimit="10"></path><path d="M199.047 84.5261L202.237 76.6948" stroke="black" stroke-width="4.86" stroke-miterlimit="10"></path><path d="M204.977 88.8703L211.956 84.5264" stroke="black" stroke-width="4.86" stroke-miterlimit="10"></path><path d="M279.362 28.4866C274.504 22.5581 266.554 20.2687 259.036 18.8131C246.441 16.372 233.05 15.4319 221.077 20.0336C209.103 24.6354 198.993 35.954 199.228 48.8039C199.274 51.3436 199.85 54.1107 201.828 55.6951C203.806 57.2796 207.466 56.6958 208.034 54.2244C208.345 52.8674 207.671 51.4725 206.837 50.3504C202.29 44.2401 192.961 42.9513 186.285 46.5599C179.608 50.1685 175.675 57.7875 175.145 65.3686" stroke="#F0BC00" stroke-width="6" stroke-miterlimit="10"></path></g><defs><clipPath id="clip0"><rect width="512" height="407" fill="white"></rect></clipPath></defs></svg> 