<?xml version="1.0" encoding="UTF-8"?> <svg xmlns="http://www.w3.org/2000/svg" width="512" height="407" viewBox="0 0 512 407" fill="none"><g clip-path="url(#clip0)"><rect width="512" height="407" fill="#E679A6"></rect><path d="M199.034 33.4045C179.434 31.8845 158.804 34.4045 142.294 45.1445C125.784 55.8845 114.434 75.8445 118.024 95.1445C118.514 97.7545 119.324 100.444 121.244 102.274C123.164 104.104 126.474 104.704 128.464 102.954C130.454 101.204 130.334 98.3645 129.464 96.0445C127.054 89.4645 119.004 86.1245 112.164 87.5945C105.324 89.0645 99.8144 94.4145 96.4244 100.534C88.3444 115.084 91.6144 135.004 103.924 146.204" stroke="#1026B0" stroke-width="6" stroke-miterlimit="10"></path><path d="M53.8311 248.01C41.3178 260.329 32.6728 276.034 28.9571 293.196C25.9823 307.658 27.0294 323.375 35.8022 336.624C44.5751 349.874 62.1483 359.917 79.7369 358.689C85.1994 358.317 90.8403 356.691 93.8721 352.941C94.6213 352.007 95.1488 350.915 95.4149 349.747C95.6811 348.579 95.679 347.366 95.4087 346.2C95.1385 345.033 94.6072 343.943 93.8547 343.011C93.1023 342.079 92.1483 341.33 91.0646 340.82C89.1092 340.021 86.9671 339.794 84.8876 340.165C82.8081 340.536 80.8768 341.491 79.3186 342.917C76.5167 345.604 75.6066 349.375 75.6145 353.023C75.6589 366.034 87.078 378.727 101.896 383.353C116.714 387.979 133.958 384.76 144.952 376.031" stroke="#1026B0" stroke-width="6.91" stroke-miterlimit="10"></path><path d="M486.51 319C485.91 327.391 483.228 335.501 478.705 342.595C474.183 349.689 467.964 355.544 460.61 359.63C456.588 361.973 452.068 363.327 447.42 363.58C442.8 363.69 438 362.09 434.92 358.65C433.447 357.12 432.574 355.111 432.46 352.99C432.436 351.943 432.718 350.912 433.273 350.024C433.827 349.135 434.629 348.428 435.58 347.99C437.88 347.09 440.58 348.34 442.12 350.27C445.79 354.86 444 361.86 440.46 366.56C433.71 375.51 422.14 379.47 411 380.74C399.86 382.01 388.12 380.99 378 375.96" stroke="#1026B0" stroke-width="6" stroke-miterlimit="10"></path><path d="M306 62C315.05 67.22 309.05 77.61 318.09 82.83C327.13 88.05 333.09 77.66 342.17 82.88C351.25 88.1 345.17 98.49 354.25 103.71C363.33 108.93 369.25 98.54 378.33 103.76C387.41 108.98 381.38 119.37 390.42 124.59C399.46 129.81 405.42 119.42 414.51 124.64C423.6 129.86 417.51 140.25 426.59 145.48C435.67 150.71 441.64 140.31 450.68 145.48" stroke="#1026B0" stroke-width="6" stroke-miterlimit="10"></path><path d="M453.98 163.41L516.86 197.27L463.91 212.27L475.84 269.46L421.23 277.27L413.44 332.13L362.26 307.04L327.65 348.34L307.56 302.02L257.89 309.83L274.91 238.67L237.79 215.51L266.26 169.18L235 135.13L269.61 100.53L245.61 50.3L296.26 34.67L324.3 -15L362.82 22.95L408.58 0.620003L413.61 48.06L454.91 56.99L436.49 97.18L474.16 118.39L453.98 163.41Z" fill="black"></path><path d="M137.581 229.806L74 262.982L127.54 277.679L115.477 333.714L170.695 341.366L178.572 395.117L230.322 370.534L265.318 411L285.632 365.616L335.855 373.268L318.645 303.545L356.179 280.853L327.392 235.459L359 202.097L324.004 168.196L348.272 118.981L297.058 103.667L268.705 55L229.756 92.1834L183.486 70.3045L178.4 116.786L136.64 125.536L155.265 164.914L117.176 185.695L137.581 229.806Z" fill="black"></path><path d="M352.05 187.66V236.66H306.79V197.98C306.79 177.033 309.293 161.87 314.3 152.49C320.86 139.983 331.253 130.527 345.48 124.12L355.85 140.53C347.25 144.13 340.917 149.483 336.85 156.59C332.783 163.697 330.517 174.053 330.05 187.66H352.05ZM424.74 187.66V236.66H379.48V197.98C379.48 177.033 381.983 161.87 386.99 152.49C393.55 139.983 403.947 130.527 418.18 124.12L428.49 140.53C419.89 144.13 413.557 149.483 409.49 156.59C405.423 163.697 403.157 174.053 402.69 187.66H424.74Z" fill="#EE8019"></path><path d="M243.44 252L243.44 203L288.7 203L288.7 241.68C288.7 262.627 286.197 277.79 281.19 287.17C274.63 299.677 264.237 309.133 250.01 315.54L239.64 299.13C248.24 295.53 254.574 290.177 258.64 283.07C262.707 275.963 264.974 265.607 265.44 252L243.44 252ZM170.75 252L170.75 203L216.01 203L216.01 241.68C216.01 262.627 213.507 277.79 208.5 287.17C201.94 299.677 191.544 309.133 177.31 315.54L167 299.13C175.6 295.53 181.934 290.177 186 283.07C190.067 275.963 192.334 265.607 192.8 252L170.75 252Z" fill="#EE8019"></path><path d="M348.44 256.74L336.72 278.51" stroke="#DC0816" stroke-width="9" stroke-miterlimit="10"></path><path d="M366.86 258.97L366.3 283.53" stroke="#DC0816" stroke-width="9" stroke-miterlimit="10"></path><path d="M384.72 257.3L395.32 276.83" stroke="#DC0816" stroke-width="9" stroke-miterlimit="10"></path><path d="M239 323L249.6 342.53" stroke="#DC0816" stroke-width="9" stroke-miterlimit="10"></path><path d="M392.34 111.52L404.56 90.0303" stroke="#DC0816" stroke-width="9" stroke-miterlimit="10"></path><path d="M373.979 108.87L375.099 84.3301" stroke="#DC0816" stroke-width="9" stroke-miterlimit="10"></path><path d="M356.09 110.14L345.93 90.3701" stroke="#DC0816" stroke-width="9" stroke-miterlimit="10"></path><path d="M202.72 323.41L191 345.18" stroke="#DC0816" stroke-width="9" stroke-miterlimit="10"></path><path d="M221.14 325.64L220.58 350.2" stroke="#DC0816" stroke-width="9" stroke-miterlimit="10"></path><path d="M246.62 178.19L258.84 156.7" stroke="#DC0816" stroke-width="9" stroke-miterlimit="10"></path><path d="M228.26 175.54L229.38 151" stroke="#DC0816" stroke-width="9" stroke-miterlimit="10"></path><path d="M210.37 176.81L200.21 157.04" stroke="#DC0816" stroke-width="9" stroke-miterlimit="10"></path></g><defs><clipPath id="clip0"><rect width="512" height="407" fill="white"></rect></clipPath></defs></svg> 