<?xml version="1.0" encoding="UTF-8"?> <svg xmlns="http://www.w3.org/2000/svg" width="512" height="407" viewBox="0 0 512 407" fill="none"><rect width="512" height="407" fill="#DC0816"></rect><path d="M104.151 95.6743L206.021 209.066L221.213 186.261L233.865 189.429V153.95L248.415 122.281L136.417 98.209L104.151 95.6743Z" fill="#0154D5"></path><path d="M275.625 118.479L414.834 69.0669L393.32 104.538L325.615 197.659L308.532 176.755L296.506 182.458L291.45 146.346L275.625 118.479Z" fill="#E9E7C4"></path><path d="M285.753 219.197L316.128 210.966L324.983 358.561L223.745 237.573L249.682 228.702L247.79 214.135L285.753 219.197Z" fill="#EE8019"></path><path d="M153.299 291.478C171.734 279.691 171.554 249.613 162.095 232.324C156.967 222.941 147.545 215.611 136.748 214.458C126.822 213.4 116.752 218.642 112.279 227.672C107.884 236.536 110.754 247.006 118.658 252.824C127.103 259.031 137.41 256.612 143.545 248.475C156.32 231.532 151.234 205.155 139.05 189.45C123.938 169.965 96.1092 162.613 73.15 171.225C70.6469 172.161 72.2797 176.431 74.8043 175.682C92.2899 170.519 112.106 172.449 126.865 183.769C140.769 194.433 148.336 212.737 145.646 230.113C144.387 238.243 140.345 248.763 131.454 250.988C123.211 253.055 114.623 245.328 114.652 237.083C114.688 228.169 123.118 220.867 131.483 219.643C140.776 218.282 150.12 223.373 155.665 230.631C162.469 239.532 164.404 251.651 163.39 262.581C162.498 272.202 158.902 281.858 150.594 287.395C148.372 288.893 150.889 293.019 153.299 291.478Z" fill="#E9E7C4"></path><path d="M372.419 316.048C364.456 298.708 362.299 279.28 365.773 260.544C367.528 251.096 370.765 241.822 375.397 233.397C379.95 225.116 385.941 216.259 394.019 211.074C402.93 205.364 414.863 207.114 417.697 218.347C419.97 227.355 419.006 240.007 413.425 247.661C410.655 251.463 406.081 254.337 401.305 254.517C395.961 254.718 392.149 251.118 389.681 246.711C384.488 237.436 383.323 225.793 384.654 215.402C387.631 192.186 403.937 173.623 424.034 162.879C426.566 161.525 424.796 156.672 422.221 157.997C401.355 168.697 384.776 187.729 380.597 211.218C378.482 223.099 379.655 236.032 384.877 246.999C389.351 256.389 398.421 262.776 408.778 257.915C419.452 252.904 422.682 240.885 423.056 229.983C423.394 220.205 421.646 208.251 411.425 204.039C400.622 199.582 389.962 206.278 382.899 214.149C375.425 222.473 369.736 232.518 365.888 243.002C357.105 266.945 357.803 294.287 368.7 317.423C369.952 320.051 373.663 318.741 372.419 316.048Z" fill="#E9E7C4"></path><path d="M199.304 72.6603C212.38 82.583 228.65 87.3572 245.021 86.3491C253.005 85.8594 260.981 84.016 268.304 80.7684C275.619 77.5281 283.336 72.9267 287.292 65.7043C290.853 59.202 289.558 51.3099 283.257 47.047C276.18 42.2585 267.534 44.4259 260.686 48.516C253.789 52.6421 248.732 59.0436 250.681 67.4613C252.587 75.7207 259.823 80.898 267.577 83.1807C288.911 89.4814 310.288 77.6001 328.14 67.1805C330.585 65.7547 327.895 61.2902 325.256 62.8384C312.122 70.5145 297.815 78.6658 282.293 79.6523C274.791 80.1276 266.038 79.0114 259.96 74.1797C253.825 69.2975 252.925 61.247 258.953 55.9184C264.283 51.2019 272.957 47.0398 279.934 50.4746C288.249 54.5719 284.235 63.3857 278.978 68.1742C269.605 76.7216 255.731 80.754 243.316 81.3445C228.621 82.043 213.667 77.9097 201.843 69.0383C199.282 67.1229 197.031 70.9321 199.304 72.6603Z" fill="#E9E7C4"></path><path d="M310.798 382.029C311.316 380.25 310.172 379.919 310.69 378.14C311.208 376.362 311.294 376.39 311.812 374.612C312.33 372.833 312.222 372.804 312.733 371.026" stroke="#E9E7C4" stroke-width="10" stroke-miterlimit="10"></path><path d="M331.427 374.043C332.355 375.649 332.477 375.584 333.405 377.19C334.333 378.803 335.318 378.227 336.246 379.84C337.174 381.453 337.181 381.446 338.109 383.059" stroke="#E9E7C4" stroke-width="10" stroke-miterlimit="10"></path><path d="M342.137 361.788C344.05 362.004 344.043 362.061 345.957 362.27C347.87 362.486 347.877 362.429 349.797 362.637C351.718 362.846 351.862 361.492 353.782 361.708" stroke="#E9E7C4" stroke-width="10" stroke-miterlimit="10"></path><path d="M454.092 70.0244C452.243 70.0172 452.236 71.2558 450.388 71.2486C448.539 71.2414 448.539 71.1478 446.691 71.1406C444.842 71.1334 444.842 71.2558 442.986 71.2486" stroke="#E9E7C4" stroke-width="10" stroke-miterlimit="10"></path><path d="M439.174 53.6648C440.462 52.3254 440.375 52.2462 441.663 50.914C442.95 49.5747 442.274 48.9194 443.562 47.5801C444.849 46.2407 444.849 46.2407 446.137 44.9014" stroke="#E9E7C4" stroke-width="10" stroke-miterlimit="10"></path><path d="M423.3 46.5861C422.977 44.6851 424.293 44.4619 423.976 42.5609C423.653 40.6598 422.272 40.8975 421.948 38.9893C421.624 37.0882 422.703 36.901 422.38 35" stroke="#E9E7C4" stroke-width="10" stroke-miterlimit="10"></path><path d="M90.2041 58.439C90.8227 60.1816 91.9232 59.7927 92.5417 61.5353C93.1603 63.2779 93.074 63.3139 93.6998 65.0565C94.3255 66.7991 94.4262 66.7631 95.0448 68.5057" stroke="#E9E7C4" stroke-width="10" stroke-miterlimit="10"></path><path d="M79.8824 77.8955C78.1921 77.1322 78.1273 77.269 76.437 76.5057C74.7467 75.7425 74.2504 76.837 72.5601 76.0809C70.8698 75.3176 70.8627 75.3248 69.1724 74.5615" stroke="#E9E7C4" stroke-width="10" stroke-miterlimit="10"></path><path d="M78.5158 95.3643C76.8399 96.3148 76.2573 95.285 74.5813 96.2284C72.9054 97.1789 73.5096 98.259 71.8337 99.2095C70.1578 100.16 69.6831 99.3175 68 100.268" stroke="#E9E7C4" stroke-width="10" stroke-miterlimit="10"></path><path d="M226.701 172.24C212.287 163.347 198.491 153.273 184.458 143.797C162.606 129.042 140.769 114.281 118.918 99.5336C113.523 95.8971 108.2 92.0879 102.684 88.6243C99.49 86.6225 96.2964 92.1887 99.267 94.0537C113.624 103.055 127.455 113.028 141.503 122.511C163.347 137.266 185.192 152.035 207.05 166.768C212.445 170.404 217.753 174.249 223.291 177.662C226.492 179.65 229.686 174.084 226.701 172.24Z" fill="black"></path><path d="M213.574 203.427C218.026 194.448 222.587 185.526 227.219 176.633C228.995 173.22 224.716 169.533 222.759 173.277C218.127 182.163 213.567 191.092 209.115 200.071C207.417 203.499 211.704 207.207 213.574 203.427Z" fill="black"></path><path d="M204.806 210.634C205.151 211.103 205.605 211.484 206.022 211.887C206.496 212.348 207.532 212.463 208.129 212.269C208.841 212.039 209.625 211.542 209.956 210.85C210.244 210.246 210.539 209.641 210.826 209.036C211.215 208.237 211.495 207.495 211.373 206.588C211.28 205.896 210.906 205.047 210.301 204.643C209.69 204.233 208.92 204.024 208.194 204.262C207.482 204.492 206.705 204.989 206.367 205.68C206.072 206.285 205.784 206.89 205.497 207.495C206.806 207.149 208.122 206.804 209.431 206.458C209.294 206.328 209.158 206.199 209.021 206.062C209.194 206.235 209.366 206.408 209.539 206.588C209.431 206.48 209.338 206.372 209.251 206.249C208.309 204.953 206.374 204.996 205.317 206.12C204.195 207.308 203.792 209.252 204.806 210.634Z" fill="black"></path><path d="M205.496 211.441C205.669 211.592 205.842 211.744 206.014 211.895C206.518 212.349 207.496 212.478 208.122 212.277C208.848 212.039 209.582 211.549 209.949 210.858C210.366 210.066 210.754 209.259 211.121 208.446C211.43 207.762 211.373 206.703 211.107 206.019C210.855 205.378 210.265 204.687 209.575 204.485C208.855 204.276 208.071 204.334 207.424 204.752C207.215 204.91 207.014 205.069 206.805 205.234C206.403 205.637 206.108 206.113 205.921 206.66C205.842 206.847 205.755 207.027 205.669 207.207C205.791 206.948 205.921 206.689 206.043 206.422C205.87 206.79 205.691 207.142 205.496 207.502C206.805 207.157 208.122 206.811 209.431 206.466C209.258 206.314 209.086 206.163 208.913 206.012C208.366 205.551 207.467 205.45 206.805 205.63C206.093 205.825 205.353 206.408 204.979 207.049C204.144 208.482 204.18 210.318 205.496 211.441Z" fill="black"></path><path d="M205.446 211.355C205.64 211.535 205.827 211.715 206.021 211.895C206.431 212.197 206.892 212.356 207.402 212.37C207.913 212.37 208.388 212.24 208.819 211.981C209.733 211.448 210.481 210.311 210.517 209.23C210.546 208.345 210.481 207.805 210.251 206.969C210.114 206.472 209.848 206.033 209.589 205.587C209.236 204.989 208.352 204.6 207.69 204.586C206.971 204.571 206.144 204.939 205.654 205.457C205.079 206.069 204.633 206.876 204.583 207.725C204.583 207.999 204.59 208.273 204.59 208.546C204.655 209.065 204.842 209.54 205.144 209.965C205.158 209.994 205.18 210.022 205.194 210.051C205.072 209.828 204.95 209.612 204.835 209.389C204.942 209.59 205.029 209.799 205.086 210.022C205.022 209.77 204.957 209.518 204.892 209.259C204.928 209.418 204.95 209.576 204.957 209.742C204.957 209.468 204.95 209.194 204.95 208.921C204.95 208.986 204.95 209.05 204.95 209.115C206.446 208.229 207.949 207.337 209.445 206.451C209.258 206.271 209.064 206.091 208.87 205.911C208.352 205.436 207.395 205.356 206.762 205.529C206.05 205.724 205.309 206.307 204.935 206.948C204.518 207.675 204.238 208.554 204.389 209.396C204.453 209.648 204.518 209.9 204.583 210.159C204.748 210.642 205.043 211.038 205.446 211.355Z" fill="black"></path><path d="M204.749 210.591C205.137 211.059 205.59 211.462 206.015 211.887C206.23 212.003 206.453 212.118 206.669 212.233C206.914 212.276 207.158 212.319 207.395 212.363C207.64 212.334 207.877 212.298 208.122 212.269C208.503 212.175 208.841 211.995 209.122 211.729C209.352 211.585 209.546 211.398 209.69 211.167C209.891 210.966 210.042 210.728 210.136 210.454C210.294 210.202 210.388 209.936 210.416 209.641C210.539 209.237 210.567 208.82 210.503 208.395C210.38 207.826 210.251 207.264 209.978 206.746C209.855 206.379 209.647 206.069 209.359 205.824C209.122 205.529 208.82 205.327 208.446 205.212C208.086 205.075 207.719 205.047 207.352 205.133C206.971 205.147 206.619 205.263 206.295 205.479C205.605 205.925 205.029 206.588 204.785 207.38C204.72 207.66 204.662 207.941 204.598 208.229C204.54 208.777 204.605 209.302 204.799 209.813C204.928 210.058 205.029 210.31 205.101 210.577C205.036 210.325 204.972 210.073 204.907 209.813C204.914 209.857 204.928 209.9 204.936 209.936C206.432 208.777 207.928 207.61 209.424 206.451C209.258 206.285 209.086 206.127 208.92 205.954C209.093 206.127 209.266 206.3 209.438 206.48C209.352 206.386 209.266 206.292 209.187 206.199C208.971 205.875 208.69 205.644 208.345 205.5C208.028 205.291 207.676 205.191 207.288 205.198C206.906 205.183 206.547 205.263 206.216 205.443C205.842 205.565 205.525 205.781 205.252 206.069C204.677 206.681 204.231 207.488 204.18 208.337C204.137 209.115 204.238 209.979 204.749 210.591Z" fill="black"></path><path d="M204.964 210.829C205.144 211.009 205.317 211.189 205.497 211.369C205.712 211.693 205.993 211.923 206.338 212.068C206.655 212.276 207.007 212.377 207.396 212.37C207.64 212.341 207.877 212.305 208.122 212.276C208.503 212.183 208.841 212.003 209.122 211.736C209.352 211.592 209.546 211.405 209.69 211.175C209.985 210.858 210.193 210.491 210.323 210.073C210.56 209.274 210.611 208.438 210.309 207.646C210.158 207.257 209.942 206.89 209.733 206.53C209.64 206.364 209.532 206.206 209.424 206.055C209.208 205.731 208.928 205.5 208.582 205.356C208.266 205.148 207.913 205.047 207.525 205.054C207.144 205.04 206.784 205.119 206.453 205.299C206.079 205.421 205.763 205.637 205.489 205.925C204.914 206.537 204.468 207.344 204.418 208.193C204.367 208.993 204.511 209.77 204.986 210.44C205.108 210.613 205.223 210.786 205.324 210.973C205.202 210.75 205.079 210.534 204.964 210.311C205.036 210.44 205.094 210.577 205.151 210.714C206.755 209.475 208.359 208.229 209.956 206.991C209.776 206.811 209.604 206.631 209.424 206.451C209.208 206.127 208.928 205.896 208.582 205.752C208.266 205.544 207.913 205.443 207.525 205.45C207.144 205.436 206.784 205.515 206.453 205.695C206.079 205.817 205.763 206.033 205.489 206.321C204.914 206.933 204.468 207.74 204.418 208.59C204.418 208.863 204.425 209.137 204.425 209.41C204.475 209.929 204.662 210.397 204.964 210.829Z" fill="black"></path><path d="M106.992 104.034C107.841 105.064 108.69 106.086 109.545 107.116C110.56 108.34 112.365 108.427 113.48 107.246C114.537 106.13 115.077 104.041 113.991 102.731C113.135 101.708 112.286 100.679 111.437 99.6488C110.423 98.4247 108.61 98.3455 107.503 99.5192C106.438 100.643 105.906 102.716 106.992 104.034Z" fill="black"></path><path d="M97.5479 92.9448C100.432 96.3508 103.324 99.7496 106.23 103.141C108.797 106.144 112.955 101.42 110.675 98.7559C107.776 95.3643 104.877 91.9655 101.993 88.5595C99.4396 85.5424 95.2822 90.2733 97.5479 92.9448Z" fill="black"></path><path d="M99.4179 94.0609C104.697 96.0699 110.595 96.97 116.076 98.2302C128.261 101.038 140.481 103.703 152.695 106.389C177.963 111.955 203.245 117.492 228.521 123.023C234.829 124.398 241.137 125.752 247.466 127.033C246.524 125.161 245.589 123.289 244.647 121.41C239.82 131.858 234.764 142.328 230.786 153.144C229.261 157.284 235.533 161.576 237.288 156.787C241.244 145.964 246.279 135.487 251.084 125.024C252.026 122.979 250.473 119.847 248.265 119.401C232.354 116.211 216.516 112.661 200.663 109.219C173.964 103.429 147.3 97.4957 120.586 91.7566C113.839 90.3093 106.733 89.366 100.108 87.4433C95.9726 86.2408 96.1021 92.8008 99.4179 94.0609Z" fill="black"></path><path d="M103.64 95.4933C113.796 101.996 124.88 107.331 135.619 112.797C146.12 118.14 156.737 123.231 167.404 128.228C189.399 138.533 211.416 148.801 233.419 159.084C238.051 161.251 240 153.928 235.972 152.049C213.962 141.766 191.953 131.505 169.95 121.207C159.283 116.21 148.674 111.105 138.165 105.776C127.391 100.311 116.918 94.118 106.035 88.8902C101.612 86.7588 100.224 93.3043 103.64 95.4933Z" fill="black"></path><path d="M210.157 211.031C211.661 209.396 212.402 207.006 213.387 205.033C214.401 202.995 215.775 201.015 216.501 198.854C217.645 195.448 213.632 191.51 210.812 194.664C209.244 196.421 208.237 198.97 207.223 201.087C206.173 203.29 204.986 205.566 204.806 208.035C204.59 211.002 207.849 213.551 210.157 211.031Z" fill="black"></path><path d="M214.171 201.684C217.444 198.998 219.098 194.001 221.055 190.3C223.256 186.13 225.507 181.983 227.672 177.799C228.614 175.977 228.499 173.802 226.917 172.326C225.68 171.167 223.09 170.8 222.134 172.6C219.803 176.978 217.559 181.399 215.265 185.799C213.236 189.687 210.172 193.914 209.611 198.314C209.331 200.553 211.999 203.477 214.171 201.684Z" fill="black"></path><path d="M228.341 153.936C228.657 155.498 229.204 156.333 230.427 157.306C230.909 157.687 232.621 158.796 232.354 158.544C231.901 157.32 231.441 156.089 230.988 154.864C230.822 165.716 230.571 176.683 231.132 187.52C231.333 191.488 237.922 192.82 237.936 188.233C237.965 179.513 237.756 170.793 237.742 162.072C237.742 160.243 237.814 158.378 237.706 156.549C237.533 153.554 233.592 149.161 230.103 150.587C228.859 151.091 228.075 152.611 228.341 153.936Z" fill="black"></path><path d="M222.486 173.184C221.4 176.374 223.737 179.218 225.377 181.796C227.233 184.705 229.189 187.549 231.189 190.358C234.181 194.57 239.389 190.005 236.576 186.087C234.562 183.286 232.613 180.442 230.7 177.569C229.067 175.113 227.665 171.866 224.377 171.715C223.529 171.679 222.745 172.428 222.486 173.184Z" fill="black"></path><path d="M218.386 187.117C220.019 189.594 222.81 190.235 225.492 191.193C228.276 192.194 231.11 193.195 233.98 193.922C235.893 194.412 237.468 192.885 237.698 191.063C237.965 188.982 236.62 187.218 234.757 186.527C232.131 185.547 229.434 184.726 226.78 183.826C224.413 183.027 221.831 181.529 219.386 182.588C217.616 183.365 217.408 185.626 218.386 187.117Z" fill="black"></path><path d="M236.447 192.359C237.677 191.272 237.915 189.86 237.785 188.291C237.684 187.102 237.497 185.77 237.08 184.661C236.598 183.372 235.225 182.004 233.721 182.156C232.333 182.292 231.038 183.48 231.024 184.949C231.01 186.382 231.29 187.794 231.664 189.176C231.837 189.81 232.074 190.393 232.405 190.969C232.671 191.43 233.016 191.805 233.441 192.114C233.606 192.237 235.102 193 234.081 192.489C234.822 192.863 235.778 192.957 236.447 192.359Z" fill="black"></path><path d="M209.546 207.762C174.079 169.317 137.957 131.426 104.661 91.0367C102.151 87.9907 97.9865 92.7217 100.216 95.422C133.504 135.804 169.633 173.702 205.101 212.147C207.769 215.042 211.92 210.333 209.546 207.762Z" fill="black"></path><path d="M304.979 168.992C318.207 158.472 330.686 146.843 343.468 135.782C363.37 118.565 383.258 101.333 403.168 84.1307C408.08 79.8823 412.907 75.4754 417.963 71.3925C420.862 69.0522 417.79 64.1197 414.532 66.748C401.369 77.3764 388.847 88.9049 376.058 99.9725C356.163 117.19 336.268 134.421 316.358 151.624C311.446 155.865 306.634 160.308 301.556 164.355C298.628 166.674 301.7 171.599 304.979 168.992Z" fill="black"></path><path d="M322.285 189.472C316.775 181.083 311.165 172.759 305.483 164.478C303.253 161.23 299.067 165.99 301.038 168.863C306.713 177.144 312.33 185.468 317.84 193.857C319.998 197.148 324.198 192.381 322.285 189.472Z" fill="black"></path><path d="M322.939 196.132C322.846 196.298 322.738 196.449 322.623 196.593C322.796 196.377 322.968 196.168 323.134 195.952C323.04 196.067 322.947 196.182 322.846 196.298C324.155 196.341 325.471 196.384 326.78 196.427C326.421 195.858 326.054 195.297 325.694 194.728C325.313 194.13 324.486 193.741 323.795 193.727C323.076 193.713 322.249 194.08 321.76 194.598C320.587 195.844 320.314 197.659 321.249 199.113C321.609 199.675 321.976 200.244 322.335 200.813C323.162 202.102 325.335 202.102 326.27 200.942C326.651 200.467 327.09 200.028 327.384 199.495C327.802 198.746 328.053 197.903 327.931 197.047C327.838 196.355 327.464 195.506 326.859 195.102C326.248 194.692 325.478 194.483 324.752 194.721C324.025 194.951 323.321 195.441 322.939 196.132Z" fill="black"></path><path d="M323.306 195.786C323.148 195.952 322.997 196.125 322.846 196.298C324.155 196.341 325.471 196.384 326.781 196.427C326.435 195.93 326.104 195.426 325.788 194.901C325.428 194.303 324.558 193.914 323.889 193.9C323.17 193.885 322.343 194.253 321.853 194.771C321.278 195.383 320.832 196.19 320.782 197.039C320.782 197.313 320.789 197.587 320.789 197.86C320.854 198.379 321.041 198.854 321.343 199.279C321.659 199.797 321.983 200.309 322.335 200.805C323.234 202.094 325.256 202.087 326.27 200.935C326.421 200.762 326.572 200.589 326.73 200.424C327.313 199.797 327.716 199.012 327.802 198.155C327.874 197.435 327.708 196.492 327.234 195.909C326.766 195.34 326.104 194.886 325.335 194.908C324.594 194.937 323.831 195.225 323.306 195.786Z" fill="black"></path><path d="M323.35 195.693C323.177 195.895 323.012 196.096 322.846 196.298C324.342 196.816 325.838 197.327 327.342 197.846C327.32 197.716 327.313 197.587 327.306 197.457C327.306 197.731 327.313 198.004 327.313 198.278C327.313 198.084 327.334 197.896 327.378 197.702C327.313 197.983 327.255 198.264 327.191 198.552C327.234 198.393 327.284 198.242 327.349 198.091C327.651 197.399 327.608 196.348 327.334 195.664C327.083 195.023 326.493 194.332 325.802 194.13C325.083 193.921 324.299 193.979 323.652 194.397C323.443 194.555 323.242 194.714 323.033 194.879C322.63 195.282 322.336 195.758 322.149 196.305C321.94 196.787 321.825 197.335 321.76 197.853C321.695 198.357 321.71 198.897 321.782 199.401C321.933 200.409 322.501 201.346 323.508 201.691C323.99 201.85 324.479 201.864 324.968 201.727C325.472 201.576 325.91 201.317 326.277 200.949C326.443 200.748 326.608 200.546 326.781 200.345C327.349 199.675 327.766 198.969 327.852 198.076C327.924 197.356 327.759 196.413 327.284 195.83C326.817 195.261 326.155 194.807 325.385 194.829C324.659 194.843 323.839 195.117 323.35 195.693Z" fill="black"></path><path d="M322.99 196.081C322.882 196.254 322.76 196.413 322.631 196.571C322.803 196.355 322.976 196.146 323.141 195.93C322.868 196.269 322.595 196.6 322.336 196.938C324.004 197.514 325.68 198.091 327.349 198.667C327.363 198.53 327.378 198.4 327.407 198.263C327.342 198.544 327.284 198.825 327.22 199.113C327.263 198.933 327.313 198.767 327.378 198.595C327.536 198.184 327.594 197.766 327.558 197.334C327.586 196.931 327.522 196.542 327.356 196.161C327.234 195.793 327.025 195.484 326.738 195.239C326.5 194.944 326.198 194.742 325.824 194.627C325.105 194.418 324.321 194.476 323.674 194.893C322.961 195.354 322.465 196.002 322.163 196.794C321.947 197.356 321.811 197.968 321.76 198.566C321.76 198.839 321.767 199.113 321.767 199.387C321.803 199.783 321.926 200.15 322.141 200.474C322.235 200.712 322.379 200.906 322.58 201.064C322.818 201.36 323.12 201.561 323.494 201.677C323.738 201.72 323.983 201.763 324.22 201.806C324.465 201.777 324.702 201.741 324.947 201.713C325.328 201.619 325.666 201.439 325.946 201.172C326.284 200.949 326.565 200.654 326.774 200.294C326.817 200.244 326.853 200.186 326.896 200.136C326.723 200.352 326.551 200.56 326.385 200.776C326.738 200.337 327.126 199.912 327.428 199.43C327.68 199.063 327.831 198.659 327.896 198.227C328.018 197.824 328.047 197.406 327.982 196.982C327.946 196.586 327.824 196.218 327.608 195.894C327.457 195.549 327.227 195.268 326.91 195.037C326.299 194.627 325.529 194.418 324.803 194.656C324.048 194.908 323.429 195.397 322.99 196.081Z" fill="black"></path><path d="M322.796 196.334C322.645 196.535 322.487 196.737 322.328 196.939C323.94 197.796 325.551 198.653 327.155 199.517C327.212 199.279 327.299 199.049 327.407 198.825C327.284 199.085 327.155 199.344 327.033 199.61C327.083 199.509 327.133 199.409 327.191 199.308C327.443 198.941 327.594 198.537 327.658 198.105C327.781 197.702 327.809 197.284 327.745 196.86C327.709 196.463 327.586 196.096 327.371 195.772C327.22 195.427 326.989 195.146 326.673 194.915C326.062 194.505 325.292 194.296 324.565 194.534C323.832 194.771 323.112 195.261 322.738 195.952C322.523 196.355 322.321 196.766 322.141 197.184C322.062 197.356 322.005 197.536 321.962 197.724C321.803 198.134 321.746 198.552 321.782 198.984C321.753 199.387 321.818 199.776 321.983 200.158C322.105 200.381 322.228 200.597 322.343 200.82C322.559 201.144 322.839 201.374 323.184 201.518C323.393 201.67 323.623 201.749 323.875 201.756C324.235 201.857 324.601 201.85 324.968 201.727C325.198 201.626 325.429 201.526 325.659 201.432C326.126 201.151 326.5 200.777 326.795 200.309C326.953 200.107 327.104 199.905 327.263 199.704C327.514 199.337 327.666 198.933 327.73 198.501C327.853 198.098 327.881 197.68 327.817 197.256C327.781 196.86 327.658 196.492 327.443 196.168C327.291 195.823 327.061 195.542 326.745 195.311C326.133 194.901 325.364 194.692 324.637 194.93C324.407 195.031 324.177 195.131 323.947 195.225C323.465 195.499 323.091 195.873 322.796 196.334Z" fill="black"></path><path d="M407.102 78.7803C406.382 79.9037 405.663 81.0198 404.944 82.1359C404.124 83.396 404.088 85.6067 405.462 86.5284C406.864 87.4717 408.533 86.8308 409.396 85.4915C410.115 84.3754 410.842 83.252 411.554 82.1359C412.367 80.8686 412.417 78.6651 411.036 77.7434C409.641 76.8073 407.965 77.4338 407.102 78.7803Z" fill="black"></path><path d="M415.136 66.6615C412.684 70.3843 410.224 74.0928 407.757 77.8012C405.592 81.0559 409.878 84.6636 412.216 81.1568C414.683 77.4483 417.143 73.7327 419.596 70.0171C421.746 66.7551 417.452 63.1403 415.136 66.6615Z" fill="black"></path><path d="M416.165 65.1063C410.965 67.2954 405.283 68.7284 399.938 70.5574C388.121 74.6042 376.332 78.7303 364.521 82.8131C340.095 91.2669 315.654 99.6846 291.213 108.095C285.113 110.191 279.014 112.264 272.878 114.273C270.419 115.08 270.476 118.342 271.577 120.135C277.626 129.957 283.891 139.772 289.134 150.047C290.012 151.761 292.536 152.38 294.04 151.214C295.823 149.838 295.435 147.469 294.55 145.748C289.292 135.48 283.006 125.68 276.942 115.872C276.511 117.823 276.079 119.782 275.641 121.734C291.04 116.664 306.325 111.242 321.638 105.928C347.424 96.9843 373.268 88.1849 398.96 78.9751C405.405 76.6636 412.468 74.7842 418.56 71.5799C421.891 69.8229 419.783 63.5798 416.165 65.1063Z" fill="black"></path><path d="M410.432 67.2374C400.233 73.6677 390.595 81.0918 380.554 87.7885C370.772 94.3125 360.853 100.635 350.869 106.849C330.284 119.667 309.669 132.441 289.069 145.237C285.372 147.534 289.501 154.367 293.486 151.89C314.086 139.094 334.693 126.313 355.278 113.488C365.262 107.274 375.188 100.966 384.956 94.4277C394.932 87.7525 405.34 81.1782 414.575 73.4877C417.755 70.845 414.158 64.89 410.432 67.2374Z" fill="black"></path><path d="M327.42 198.098C326.91 195.441 325.428 193.173 324.004 190.912C322.652 188.766 321.242 186.303 319.336 184.611C316.653 182.227 312.87 185.252 314.416 188.471C315.495 190.732 317.099 192.69 318.487 194.771C319.818 196.773 320.918 199.113 322.738 200.719C324.781 202.519 327.96 200.914 327.42 198.098Z" fill="black"></path><path d="M321.257 188.125C320.113 183.905 316.509 180.074 314.057 176.496C311.381 172.593 308.749 168.668 306.037 164.794C303.109 160.603 298.039 165.082 300.721 169.014C303.512 173.118 306.389 177.165 309.216 181.241C311.741 184.877 313.978 189.356 317.66 191.905C320.243 193.691 321.811 190.163 321.257 188.125Z" fill="black"></path><path d="M294.78 143.127C291.702 142.458 288.235 145.864 288.292 148.809C288.328 150.731 288.738 152.733 288.968 154.641C289.997 163.181 290.838 171.743 291.903 180.276C292.493 185.007 299.053 185.101 298.693 179.988C297.952 169.482 296.413 158.962 294.982 148.528C294.78 149.428 294.572 150.335 294.37 151.235C295.046 150.4 297.298 149.327 297.398 147.174C297.485 145.496 296.578 143.516 294.78 143.127Z" fill="black"></path><path d="M303.124 163.412C300.009 164.017 299.232 166.724 297.931 169.324C296.42 172.334 294.866 175.315 293.248 178.26C292.248 180.075 292.442 182.336 294.011 183.805C295.276 184.986 297.873 185.338 298.858 183.531C300.491 180.514 302.095 177.475 303.591 174.386C305.023 171.448 306.842 168.611 305.677 165.313C305.354 164.413 304.217 163.196 303.124 163.412Z" fill="black"></path><path d="M309.353 173.637C306.734 172.838 304.296 174.638 301.98 175.74C299.477 176.935 296.916 178.037 294.464 179.326C290.752 181.27 293.025 188.118 297.146 186.555C299.873 185.526 302.541 184.193 305.152 182.897C307.626 181.666 310.496 180.715 311.518 177.979C312.179 176.222 311.1 174.17 309.353 173.637Z" fill="black"></path><path d="M296.175 185.454C296.873 185.101 297.42 184.791 297.794 184.071C298.139 183.401 298.34 182.732 298.463 181.976C298.65 180.824 298.758 179.484 298.599 178.332C298.412 176.906 297.333 175.265 295.823 174.962C294.485 174.696 292.86 175.365 292.5 176.813C291.845 179.398 291.723 182.948 293.816 184.885C294.384 185.411 295.406 185.843 296.175 185.454Z" fill="black"></path><path d="M412.792 69.4339C384.646 113.445 353.38 155.318 322.832 197.659C320.537 200.834 324.839 204.413 327.291 201.014C357.839 158.674 389.099 116.794 417.251 72.7895C419.351 69.5059 415.057 65.8839 412.792 69.4339Z" fill="black"></path><path d="M258.5 226.786C265.132 242.297 273.036 257.368 280.308 272.576C291.565 296.123 302.836 319.669 314.078 343.223C316.855 349.041 319.811 354.817 322.393 360.728C324.04 364.502 328.989 360.937 327.565 357.661C320.811 342.193 313.014 327.101 305.735 311.878C294.478 288.331 283.207 264.785 271.965 241.231C269.188 235.413 266.196 229.652 263.664 223.726C262.053 219.938 257.097 223.502 258.5 226.786Z" fill="black"></path><path d="M232.433 237.306C242.151 234.426 251.832 231.423 261.485 228.348C264.801 227.297 264.434 220.96 260.679 222.156C251.019 225.231 241.345 228.226 231.628 231.114C228.29 232.1 228.657 238.43 232.433 237.306Z" fill="black"></path><path d="M226.334 234.614C226.305 234.585 226.276 234.556 226.248 234.527C226.42 234.7 226.593 234.873 226.766 235.053C226.564 234.83 226.406 234.585 226.226 234.34C225.622 236.104 225.011 237.868 224.406 239.632C225.061 239.445 225.708 239.265 226.363 239.078C227.111 238.862 227.78 238.308 228.19 237.659C228.614 236.99 228.88 235.996 228.736 235.211C228.607 234.484 228.305 233.699 227.665 233.267C227.039 232.849 226.298 232.669 225.557 232.885C224.903 233.073 224.255 233.26 223.601 233.44C221.465 234.045 220.493 236.939 221.781 238.732C222.133 239.215 222.486 239.625 222.917 240.05C223.407 240.533 224.414 240.597 225.025 240.432C225.737 240.237 226.478 239.654 226.852 239.013C227.269 238.286 227.55 237.407 227.399 236.565C227.334 236.313 227.269 236.061 227.204 235.802C227.025 235.326 226.737 234.93 226.334 234.614Z" fill="black"></path><path d="M226.6 234.923C226.478 234.729 226.355 234.534 226.226 234.347C225.622 236.111 225.01 237.876 224.406 239.64C224.989 239.452 225.571 239.28 226.168 239.128C226.909 238.941 227.593 238.344 227.995 237.71C228.42 237.04 228.686 236.047 228.542 235.262C228.412 234.534 228.11 233.749 227.47 233.317C226.83 232.893 226.118 232.741 225.363 232.936C224.773 233.087 224.183 233.26 223.601 233.447C221.436 234.153 220.536 236.853 221.781 238.74C221.91 238.934 222.033 239.121 222.155 239.316C222.529 239.913 223.37 240.302 224.054 240.317C224.773 240.331 225.6 239.964 226.089 239.445C227.276 238.178 227.513 236.392 226.6 234.923Z" fill="black"></path><path d="M226.679 234.988C226.528 234.772 226.384 234.556 226.226 234.347C225.377 236.14 224.529 237.94 223.68 239.733C223.737 239.74 223.795 239.748 223.853 239.762C223.608 239.719 223.363 239.675 223.126 239.632C223.385 239.683 223.63 239.769 223.86 239.892C223.644 239.776 223.421 239.661 223.205 239.546C223.356 239.632 223.5 239.726 223.637 239.841C224.198 240.295 225.068 240.41 225.744 240.223C226.456 240.028 227.197 239.445 227.571 238.804C228.384 237.393 228.391 235.499 227.053 234.412C226.248 233.756 225.334 233.49 224.327 233.36C224.083 233.389 223.845 233.425 223.601 233.454C223.371 233.555 223.14 233.656 222.91 233.749C222.313 234.102 221.882 234.649 221.587 235.261C221.062 236.363 221.047 237.717 221.781 238.739C221.932 238.955 222.083 239.164 222.234 239.38C222.637 239.971 223.428 240.367 224.133 240.381C224.852 240.396 225.679 240.028 226.169 239.51C227.312 238.286 227.65 236.414 226.679 234.988Z" fill="black"></path><path d="M226.88 235.204C226.636 234.937 226.441 234.635 226.226 234.347C225.132 236.097 224.039 237.854 222.946 239.604C223.075 239.654 223.205 239.712 223.327 239.776C223.111 239.661 222.888 239.546 222.672 239.431C222.831 239.517 222.982 239.618 223.126 239.719C223.723 240.158 224.521 240.295 225.233 240.1C225.614 240.007 225.952 239.827 226.233 239.56C226.571 239.337 226.851 239.042 227.06 238.682C227.477 237.955 227.758 237.076 227.607 236.234C227.477 235.485 227.168 234.75 226.535 234.289C226.398 234.189 226.254 234.095 226.103 234.016C225.758 233.821 225.413 233.62 225.039 233.483C224.794 233.44 224.55 233.396 224.312 233.353C223.931 233.339 223.572 233.418 223.241 233.598C222.989 233.67 222.773 233.8 222.586 233.987C222.248 234.21 221.968 234.505 221.759 234.865C221.471 235.369 221.277 235.917 221.198 236.493C221.14 236.903 221.176 237.306 221.306 237.695C221.371 238.077 221.522 238.423 221.766 238.739C221.982 239.027 222.183 239.33 222.421 239.596C222.637 239.92 222.917 240.151 223.262 240.295C223.579 240.504 223.931 240.604 224.32 240.597C224.701 240.612 225.06 240.532 225.391 240.352C225.765 240.23 226.082 240.014 226.355 239.726C226.931 239.114 227.377 238.307 227.427 237.458C227.427 237.184 227.42 236.91 227.42 236.637C227.369 236.104 227.189 235.629 226.88 235.204Z" fill="black"></path><path d="M226.687 234.952C226.536 234.75 226.384 234.548 226.226 234.347C224.917 235.981 223.608 237.616 222.299 239.258C222.615 239.438 222.889 239.668 223.148 239.92C223.45 240.165 223.788 240.302 224.169 240.331C224.529 240.431 224.896 240.424 225.262 240.302C225.644 240.208 225.982 240.028 226.262 239.762C226.6 239.539 226.881 239.243 227.089 238.883C227.212 238.624 227.341 238.365 227.463 238.098C227.65 237.558 227.708 236.997 227.643 236.428C227.578 236.176 227.514 235.924 227.449 235.665C227.269 235.189 226.974 234.793 226.571 234.484C226.313 234.232 226.032 234.001 225.723 233.821C225.421 233.576 225.083 233.439 224.701 233.411C224.342 233.31 223.975 233.317 223.608 233.439C223.378 233.54 223.148 233.641 222.918 233.735C222.558 233.936 222.27 234.203 222.04 234.534C221.839 234.736 221.688 234.973 221.594 235.247C221.378 235.629 221.249 236.039 221.22 236.485C221.17 237.27 221.299 238.084 221.788 238.732C221.939 238.934 222.09 239.135 222.249 239.337C222.464 239.661 222.745 239.891 223.09 240.035C223.407 240.244 223.759 240.345 224.148 240.338C224.529 240.352 224.888 240.273 225.219 240.093C225.593 239.971 225.91 239.755 226.183 239.467C226.758 238.854 227.204 238.048 227.255 237.198C227.298 236.406 227.176 235.593 226.687 234.952Z" fill="black"></path><path d="M318.013 347.306C317.121 346.32 316.229 345.326 315.337 344.332C314.827 343.763 314.244 343.353 313.438 343.331C312.719 343.317 311.892 343.684 311.403 344.203C310.381 345.283 309.763 347.45 310.892 348.718C311.784 349.711 312.676 350.705 313.568 351.692C314.086 352.26 314.661 352.671 315.467 352.692C316.186 352.707 317.013 352.34 317.502 351.821C318.516 350.748 319.149 348.566 318.013 347.306Z" fill="black"></path><path d="M327.615 358.273C324.666 354.925 321.724 351.569 318.789 348.199C316.192 345.225 312.042 349.942 314.344 352.584C317.279 355.947 320.22 359.303 323.169 362.658C325.773 365.618 329.923 360.901 327.615 358.273Z" fill="black"></path><path d="M328.356 360.339C327.622 354.824 327.795 349.027 327.485 343.475C326.795 331.169 326.054 318.863 325.342 306.549C323.868 281.102 322.429 255.647 320.998 230.192C320.645 223.855 320.314 217.533 320.055 211.196C319.955 208.769 317.495 207.012 315.243 207.61C304.274 210.526 293.248 213.68 282.078 215.725C277.496 216.568 278.827 224.41 283.077 223.618C294.852 221.436 306.461 218.159 318.02 215.063C316.416 213.868 314.812 212.672 313.208 211.477C313.877 227.398 314.927 243.312 315.855 259.218C317.423 286.113 318.861 313.016 320.688 339.896C321.149 346.665 321.019 353.909 322.415 360.577C323.249 364.552 328.96 364.876 328.356 360.339Z" fill="black"></path><path d="M327.773 354.176C324.271 342.971 319.883 332.019 316.193 320.872C312.532 309.812 309.101 298.679 305.807 287.504C298.945 264.259 292.133 241.001 285.3 217.749C283.855 212.838 277.453 215.287 278.877 220.14C285.717 243.391 292.529 266.65 299.391 289.887C302.628 300.84 305.972 311.756 309.569 322.6C313.316 333.906 316.92 345.521 321.746 356.423C323.681 360.793 329.212 358.77 327.773 354.176Z" fill="black"></path><path d="M224.068 239.849C226.715 240.137 229.132 239.452 231.678 238.754C234.21 238.063 236.785 237.371 239.043 236.003C241.776 234.347 239.626 228.73 236.519 229.199C234.073 229.566 231.764 230.545 229.398 231.258C227.031 231.971 224.658 232.417 222.543 233.742C220.392 235.096 221.608 239.575 224.068 239.849Z" fill="black"></path><path d="M235.339 236.803C239.619 237.134 244.503 234.621 248.559 233.332C253.105 231.884 257.672 230.495 262.204 229.004C266.376 227.636 263.65 220.306 259.456 221.616C254.903 223.042 250.386 224.568 245.848 226.045C241.798 227.362 236.447 228.169 233.167 230.963C230.88 232.907 232.627 236.587 235.339 236.803Z" fill="black"></path><path d="M285.71 224.784C287.156 221.99 285.509 216.597 282.286 215.524C280.546 214.941 278.445 214.869 276.64 214.581C267.944 213.162 259.277 211.542 250.574 210.21C245.826 209.483 245.596 216.878 249.775 217.785C260.212 220.046 270.929 221.472 281.502 222.991C280.762 222.444 280.014 221.89 279.273 221.342C278.784 220.665 279.381 221.522 279.503 221.861C279.675 222.343 279.92 222.84 280.157 223.294C280.776 224.46 281.538 225.591 282.963 225.814C283.926 225.965 285.192 225.778 285.71 224.784Z" fill="black"></path><path d="M263.952 226.203C264.009 222.588 261.132 220.716 258.687 218.505C256.176 216.237 253.688 213.933 251.257 211.578C247.531 207.97 243.884 214.242 247.178 217.396C249.624 219.736 252.098 222.041 254.652 224.266C256.658 226.008 259.579 229.472 262.535 228.205C263.297 227.859 263.937 227.081 263.952 226.203Z" fill="black"></path><path d="M252.3 229.364C253.45 226.995 252.458 224.273 252.026 221.803C251.544 219.052 251.142 216.287 250.602 213.551C249.717 209.094 243.438 208.755 243.97 213.832C244.28 216.777 244.812 219.729 245.373 222.638C245.898 225.375 246.128 228.226 248.243 230.206C249.681 231.553 251.494 231.02 252.3 229.364Z" fill="black"></path><path d="M245.323 213.962C245.668 214.667 245.927 215.337 246.524 215.884C246.991 216.316 247.574 216.712 248.157 216.972C249.092 217.396 250.35 217.994 251.379 218.102C253.055 218.282 254.407 217.562 254.803 215.827C255.191 214.127 254.407 212.313 252.904 211.413C251.998 210.865 250.739 210.505 249.696 210.246C249.149 210.109 248.545 210.037 247.984 210.052C247.495 210.066 247.042 210.174 246.617 210.412C246.373 210.505 246.179 210.656 246.028 210.872C245.69 211.24 245.682 211.24 245.999 210.872C245.164 211.521 244.862 213.018 245.323 213.962Z" fill="black"></path><path d="M325.558 355.277C290.464 316.494 258.241 275.269 225.384 234.613C222.903 231.538 218.738 236.276 220.939 238.998C253.796 279.654 286.019 320.879 321.112 359.662C323.759 362.593 327.902 357.877 325.558 355.277Z" fill="black"></path></svg> 