<?xml version="1.0" encoding="UTF-8"?> <svg xmlns="http://www.w3.org/2000/svg" width="512" height="407" viewBox="0 0 512 407" fill="none"><g clip-path="url(#clip0)"><rect width="512" height="407" fill="#EE8019"></rect><path d="M277.844 116.603H250.731V348.7H277.844V116.603Z" fill="black" stroke="black" stroke-width="8"></path><path d="M58.9013 146.229L67.7211 280.439L448.676 261.024L452.455 209.673L455.81 110.391L58.9013 146.229Z" fill="#E679A6" stroke="black" stroke-width="8"></path><circle cx="186" cy="52" r="3" fill="#E7BD40"></circle><circle cx="80" cy="52" r="3" fill="black"></circle><circle cx="90" cy="330" r="4" fill="#028B3F"></circle><circle cx="312" cy="53" r="4" fill="#E7E5C2"></circle><path d="M64.0802 112.573C64.0802 112.573 62.2947 100.17 75.5741 101.279C75.5741 101.279 76.015 89.5427 89.5981 92.4206C89.5981 92.4206 93.7764 80.4667 104.518 85.3382C104.518 85.3382 107.952 69.8395 120.48 76.7044C120.48 76.7044 125.54 57.2259 138.986 61.6552C152.431 66.0844 150.913 83.5694 150.913 83.5694C150.913 83.5694 163 87.5564 163 99.9525C163 112.349 154.528 124.302 140.33 115.226C140.33 115.226 124.514 128.507 106.608 114.784C106.608 114.784 96.9788 119.989 92.4318 113.233C92.4318 113.233 79.897 128.507 64.0802 112.573Z" fill="#EDBCD2"></path><path d="M464.742 349.617C482.4 340.167 485.069 312.657 476.244 296.355C467.44 280.088 442.154 273.024 431.08 291.119C421.478 306.79 440.674 326.018 456.186 315.616C472.608 304.607 471.13 278.277 462.654 262.992C451.298 242.513 425.436 232.97 403.27 239.357C398.963 240.602 401.891 246.18 405.678 245.562C424.724 242.432 445.136 248.163 454.978 265.971C459.027 273.297 460.907 281.76 460.161 290.11C459.529 297.175 455.452 312.043 445.846 311.417C435.95 310.78 434.983 297.487 440.78 291.817C447.871 284.873 458.243 287.233 464.632 293.787C476.966 306.452 475.481 335.174 459.579 344.346C455.159 346.902 461.034 351.6 464.742 349.617Z" fill="#E9E7C4"></path><path d="M242 57.5155C242 57.5155 251.411 70.5285 266.211 68.3413C281.011 66.154 296.301 41.1493 316.014 46.5863C316.014 46.5863 322.644 33.5665 335.464 41.9014C335.464 41.9014 330.917 14.3023 354.211 13.0465C354.211 13.0465 374.393 11.4251 377.201 27.3222C377.201 27.3222 398.638 17.4693 398.694 39.9832C398.694 39.9832 435.2 32.9938 428.066 68.5483C428.066 68.5483 426.686 80.1606 414.77 83.3207C414.77 83.3207 410.734 97.6101 393.836 92.0213C393.836 92.0213 382.5 112.031 356.426 92.5871C356.426 92.5871 333.574 96.8856 316.573 83.9899C299.572 71.0943 292.962 73.9715 281.618 77.6629C270.275 81.3542 246.285 85.4389 242 57.5155Z" fill="#EDBCD2" stroke="#E679A6" stroke-width="5.84" stroke-miterlimit="10"></path><path d="M304.887 47.1523C307.34 45.755 310.123 45.0402 312.946 45.0823C315.964 45.093 318.919 45.9435 321.481 47.5386C323.751 49.5627 325.444 52.1532 326.386 55.0456C327.394 57.9009 327.394 61.0151 326.386 63.8704C325.845 65.2732 324.977 66.5267 323.854 67.5273C322.743 68.4981 321.388 69.147 319.935 69.404C318.57 69.6557 317.174 69.6999 315.795 69.5351C314.413 69.405 313.116 68.8089 312.118 67.8446C313.187 68.647 314.501 69.0563 315.837 69.0038C317.145 68.9824 318.442 68.7661 319.687 68.3621C320.871 68.0013 321.93 67.3152 322.743 66.3819C323.532 65.4694 324.091 64.381 324.372 63.208C324.86 60.8355 324.524 58.3674 323.419 56.2116C322.39 54.0624 320.809 52.2245 318.838 50.885C317.177 49.092 315.047 47.7991 312.69 47.1523C310.137 46.4497 307.44 46.4497 304.887 47.1523Z" fill="#E679A6"></path><path d="M427.301 73.0125C426.313 76.583 424.234 79.7553 421.354 82.0857C419.831 83.3142 418.082 84.233 416.206 84.7904C415.247 85.0856 414.26 85.2776 413.26 85.3631C412.244 85.47 411.22 85.47 410.204 85.3631C408.183 84.9083 406.287 84.0156 404.649 82.748C403.105 81.5005 401.802 79.9805 400.806 78.2632C399.761 76.6626 398.934 74.9292 398.35 73.1091C398.064 72.13 397.927 71.1136 397.943 70.0939C397.973 69.078 398.176 68.0748 398.543 67.127C399.243 65.236 400.593 63.6558 402.352 62.6697C404.077 61.7427 406.083 61.48 407.989 61.9314C408.909 62.1417 409.776 62.5387 410.537 63.0977C411.298 63.6567 411.936 64.3658 412.411 65.1812C412.88 65.9585 413.187 66.8221 413.315 67.7205C413.443 68.619 413.389 69.5341 413.157 70.4113C413.299 69.5509 413.267 68.6707 413.062 67.8231C412.857 66.9755 412.483 66.1779 411.963 65.4779C411.477 64.797 410.855 64.2241 410.137 63.7955C409.418 63.3668 408.619 63.0916 407.789 62.9871C406.2 62.7448 404.579 63.1063 403.245 64.0003C401.91 64.8944 400.959 66.2561 400.578 67.817C400.175 69.2951 400.285 70.8662 400.889 72.2742C401.557 73.7748 402.42 75.1807 403.456 76.4555C404.37 77.7371 405.511 78.8408 406.823 79.7121C408.869 80.6242 411.023 81.2711 413.233 81.6372C414.008 81.72 414.789 81.72 415.565 81.6372C417.179 81.4829 418.747 81.0141 420.181 80.2572C423.25 78.6423 425.74 76.1097 427.301 73.0125V73.0125Z" fill="#E679A6"></path><path d="M339.84 93.7666C344.995 94.4804 350.242 93.4559 354.75 90.8549C359.035 88.3546 362.374 84.5105 364.251 79.9187C366.549 75.7444 367.549 70.6592 366.28 66.0847C365.642 63.795 364.403 61.7177 362.692 60.0681C361.841 59.2459 360.863 58.5678 359.794 58.0603C358.723 57.5548 357.572 57.2419 356.392 57.1357C353.985 56.8724 351.568 57.528 349.624 58.971C348.675 59.7392 347.897 60.698 347.342 61.7856C346.787 62.8731 346.467 64.0651 346.402 65.2843C346.335 66.5276 346.572 67.7683 347.091 68.8998C347.655 70.0184 348.502 70.9699 349.548 71.6597C350.607 72.4107 351.848 72.866 353.142 72.9788C354.436 73.0916 355.736 72.8578 356.91 72.3014C355.733 72.9498 354.405 73.2742 353.062 73.2414C351.719 73.2087 350.409 72.82 349.265 72.1151C348.066 71.4286 347.07 70.4356 346.381 69.2379C345.71 68.0123 345.352 66.64 345.339 65.2429C345.316 63.8381 345.589 62.4442 346.141 61.1519C346.692 59.8597 347.51 58.6981 348.54 57.7429C350.74 55.8552 353.572 54.8692 356.468 54.983C357.917 55.0182 359.348 55.3054 360.698 55.8316C362.044 56.3673 363.297 57.1125 364.41 58.0396C366.641 59.9084 368.326 62.3445 369.288 65.0911C370.225 67.8229 370.562 70.7248 370.275 73.5985C370.005 76.4485 369.247 79.2307 368.032 81.8231C365.208 86.7369 360.843 90.5829 355.613 92.7661C350.611 94.8358 345.063 95.1877 339.84 93.7666V93.7666Z" fill="#E679A6"></path><path d="M371.399 15.5581C373.245 16.9786 374.847 18.6917 376.139 20.6294C376.815 21.6568 377.375 22.756 377.809 23.9068C378.255 25.1202 378.54 26.3867 378.658 27.6741C378.403 30.3062 377.338 32.7943 375.608 34.7947C373.865 36.7413 371.443 37.9483 368.839 38.1686C367.577 38.2756 366.307 38.0915 365.127 37.6305C363.98 37.1596 362.97 36.4046 362.195 35.4363C361.429 34.5498 360.91 33.4775 360.69 32.327C360.469 31.1765 360.555 29.9883 360.939 28.8816C360.734 29.9455 360.814 31.0449 361.172 32.0678C361.529 33.0907 362.151 34.0006 362.975 34.705C363.723 35.3828 364.633 35.8579 365.617 36.0849C366.579 36.2934 367.575 36.2769 368.529 36.0366C370.399 35.5763 372.025 34.4219 373.076 32.8075C374.051 31.2045 374.507 29.3392 374.38 27.4671C374.819 25.4981 374.755 23.4503 374.194 21.5126C373.592 19.3891 372.648 17.3779 371.399 15.5581V15.5581Z" fill="#E679A6"></path><path d="M190.943 88.6778L166.002 75.3578" stroke="#0154D5" stroke-width="14" stroke-miterlimit="10"></path><path d="M212.207 72.3045L196.141 49.2109" stroke="#0154D5" stroke-width="14" stroke-miterlimit="10"></path><path d="M240.811 65.1183L235.297 38.8071" stroke="#0154D5" stroke-width="14" stroke-miterlimit="10"></path><path d="M274.031 70.1946L276.301 41.8662" stroke="#0154D5" stroke-width="14" stroke-miterlimit="10"></path><path d="M300.165 81.0256L316.379 58.0801" stroke="#0154D5" stroke-width="14" stroke-miterlimit="10"></path><path d="M327.693 100.606L346.664 85.307" stroke="#0154D5" stroke-width="14" stroke-miterlimit="10"></path><path d="M115.416 174.202C115.416 174.258 115.389 174.438 115.347 174.743C115.291 175.159 115.235 175.644 115.18 176.213C115.082 177.558 114.971 179.013 114.831 180.622C114.706 182.216 114.567 183.686 114.414 185.017C114.358 185.585 114.33 186.07 114.33 186.486C114.274 186.791 114.26 186.972 114.26 187.027V187.568C114.205 187.873 114.177 188.219 114.177 188.566C114.121 189.495 114.065 190.507 114.024 191.589C113.968 192.67 113.912 193.641 113.87 194.514V195.526C113.87 195.623 113.843 195.734 113.787 195.831V197.231C113.731 198.049 113.689 198.964 113.634 199.963C113.578 200.975 113.55 201.918 113.55 202.791C113.55 203.152 113.536 203.457 113.48 203.72V203.872L112.31 201.626L110.918 199.228C110.764 198.923 110.639 198.646 110.528 198.382C110.43 198.23 110.374 198.133 110.374 198.077H110.291C110.291 198.022 110.277 197.952 110.221 197.841C110.068 197.633 109.915 197.384 109.748 197.065V196.913L109.678 196.843V196.76H109.594V196.691L109.525 196.607V196.524L109.441 196.455V196.372L109.372 196.302L109.288 196.219V196.067H109.204V195.984L109.135 195.914V195.831L109.051 195.762V195.679L108.982 195.609V195.526L108.898 195.443V195.374L108.828 195.29L108.745 195.221V195.138L108.661 194.985L108.592 194.902L108.508 194.75V194.68L108.438 194.514L108.355 194.445V194.361L108.285 194.292L108.202 194.209V194.14L108.118 194.056V193.987L108.048 193.904V193.821L107.965 193.751V193.668H107.895V193.516L107.812 193.433L107.728 193.363V193.28L107.658 193.211V193.128L107.575 193.058V192.975L107.505 192.892V192.822L107.352 192.67V192.587L107.268 192.434V192.351L107.199 192.282L106.725 191.505C106.67 191.297 106.628 191.2 106.572 191.2L106.488 191.117V190.965L106.419 190.812L106.335 190.729V190.66L106.266 190.576V190.507L106.182 190.424L106.098 190.271V190.188L106.029 190.036L104.636 187.415L104.552 187.263V187.18L104.483 187.11V187.027L104.399 186.944V186.875L104.316 186.791V186.722H104.246V186.57L104.162 186.486V186.403H104.093V186.251L104.009 186.181L103.94 186.098V186.029L103.856 185.946V185.793H103.772V185.71L103.703 185.641V185.558L103.619 185.488V185.405L103.55 185.322V185.252L103.466 185.169V185.1L103.382 185.017L103.313 184.864V184.781L103.229 184.712C103.076 184.351 102.923 184.046 102.77 183.783C102.658 183.63 102.616 183.519 102.616 183.478L101.6 182.078C101.558 182.036 101.446 181.953 101.293 181.856C101.084 181.648 100.847 181.412 100.597 181.162L98.4936 179.069L96.3208 176.989L96.2512 176.837H96.1676L96.098 176.754L96.0144 176.67L95.9448 176.601L95.8612 176.518L95.7776 176.449L95.708 176.365L95.6244 176.282C95.4712 176.185 95.4016 176.102 95.4016 176.06L86.1532 179.845V180.15C86.1532 180.455 86.1393 180.802 86.0836 181.162V184.088L86 186.944V197.689L86.0836 200.462V203.332C86.1393 203.54 86.1532 203.72 86.1532 203.872V208.503C86.2089 209.529 86.2368 210.458 86.2368 211.29V213.827L86.3203 216.697L86.39 219.623V222.326C86.39 222.895 86.3761 223.477 86.3482 224.073C86.3203 224.669 86.3203 225.293 86.3203 225.959V228.898L86.2368 228.981V231.296L97.1008 231.449V229.05L97.1844 228.981V226.111C97.1844 224.836 97.2122 223.616 97.254 222.492V219.401C97.2122 218.527 97.1844 217.557 97.1844 216.503C97.1844 215.449 97.1565 214.479 97.1008 213.605V211.124C97.1008 210.306 97.0869 209.391 97.059 208.392C97.0312 207.38 97.0312 206.465 97.0312 205.647V204.025C97.0312 203.762 97.0033 203.457 96.9476 203.096C96.9476 202.223 96.9337 201.28 96.9058 200.282C96.878 199.269 96.864 198.327 96.864 197.453V195.984C96.9197 196.095 96.9476 196.164 96.9476 196.219L97.0312 196.302C97.0312 196.344 97.0729 196.455 97.1844 196.607C97.2819 196.815 97.4351 197.065 97.644 197.384V197.536L97.7276 197.606V197.689H97.7972V197.758L97.8808 197.841V197.925L97.9504 197.994V198.077L98.034 198.146V198.23L98.1176 198.313V198.382H98.1872V198.465L98.2708 198.535V198.687L98.3404 198.77V198.854L98.424 198.923L98.4936 199.006V199.075L98.5772 199.159V199.228L98.6608 199.311L98.7304 199.464L98.814 199.547V199.699L98.8836 199.769L98.9672 199.935L99.0368 200.004V200.087L99.1204 200.157L99.204 200.24V200.309L99.2736 200.393V200.545H99.3572V200.628L99.4268 200.698V200.781L99.5104 200.85V200.933L99.58 201.016V201.086L99.6636 201.169L99.7472 201.238V201.391L99.8168 201.474L99.9004 201.557V201.626L99.97 201.71V201.779L100.054 201.862L100.123 202.015V202.098L100.207 202.167L100.666 202.944C100.722 203.152 100.778 203.249 100.834 203.249V203.332L100.987 203.554C101.084 203.817 101.237 204.094 101.446 204.413L102.77 206.798L102.853 206.964V207.034L102.923 207.117V207.186L103.076 207.339V207.422L103.16 207.505V207.657H103.229V207.727L103.313 207.81V207.879L103.382 207.963V208.046H103.466V208.198L103.55 208.268L103.619 208.351V208.503L103.703 208.586L103.772 208.656L103.856 208.739V208.808L103.94 208.961V209.044L104.009 209.127L104.093 209.196C104.246 209.501 104.371 209.793 104.483 210.056H104.552V210.125C104.65 210.333 104.761 210.611 104.859 210.971L105.945 213.522L106.029 213.605V213.758L106.098 213.827V213.91L106.182 213.994V214.146L106.266 214.215V214.299L106.335 214.382V214.534H106.419V214.687L106.488 214.756V214.909H106.572V215.075L106.656 215.144V215.227L106.725 215.297V215.463L106.809 215.533V215.685L106.878 215.768V215.838L106.962 215.921V216.004L107.032 216.156C107.199 216.461 107.296 216.739 107.352 217.002C107.449 217.155 107.519 217.266 107.547 217.349C107.561 217.432 107.603 217.515 107.658 217.626C107.756 217.82 107.867 218.111 107.965 218.472L108.048 218.541V218.624L108.118 218.707V218.86H108.202V219.013L108.285 219.082V219.234H108.355V219.401L108.438 219.47V219.553L108.508 219.623V219.789L108.592 219.858V219.941L108.661 220.011V220.094L108.745 220.246V220.33L108.828 220.399V220.482L108.898 220.551V220.704L108.982 220.787V220.94L109.051 221.023L110.138 223.643C110.291 224.004 110.402 224.295 110.458 224.489L110.611 224.808V224.919C110.611 224.946 110.639 224.96 110.681 224.96C110.681 225.057 110.709 225.182 110.764 225.307C110.806 225.432 110.862 225.598 110.918 225.806C111.071 226.167 111.224 226.555 111.377 226.971C111.544 227.387 111.698 227.844 111.851 228.357L111.92 228.44V228.51L112.004 228.593V228.745L112.088 228.829V228.981L112.157 229.05V229.203L112.241 229.286V229.355L112.31 229.439V229.591L112.394 229.674V229.827L112.464 229.896V230.062L112.547 230.132V230.284L112.631 230.368V230.52L112.7 230.603V230.673L112.784 230.756V230.908C112.937 231.213 113.035 231.504 113.09 231.754C113.146 231.906 113.188 232.017 113.244 232.059L123.718 230.451C123.718 230.395 123.746 230.27 123.801 230.062V229.05C123.857 228.121 123.885 227.109 123.913 226C123.941 224.891 123.982 223.879 124.038 222.95C124.038 222.534 124.052 222.201 124.108 221.952V211.595C124.163 210.722 124.205 209.737 124.233 208.656C124.247 207.574 124.289 206.604 124.344 205.716V203.554L124.428 203.484V203.179C124.428 202.347 124.442 201.432 124.498 200.434C124.553 199.422 124.609 198.493 124.651 197.606V196.302C124.651 196.247 124.679 196.164 124.734 196.067V195.055C124.776 194.14 124.832 193.128 124.888 192.046C124.943 190.965 124.985 189.994 125.041 189.107V188.109C125.097 187.901 125.124 187.776 125.124 187.72V187.415C125.166 186.999 125.222 186.514 125.278 185.946C125.375 184.601 125.514 183.145 125.668 181.537C125.821 179.942 125.946 178.473 126.058 177.142C126.099 176.573 126.155 176.088 126.211 175.672V175.131L115.416 174.202ZM167.034 166.549C166.979 166.397 166.909 166.23 166.839 166.05C166.756 165.87 166.686 165.731 166.644 165.634V165.399L163.845 163.236C163.789 163.18 163.664 163.153 163.455 163.153C163.204 163.153 162.94 163.139 162.689 163.111C162.424 163.097 162.16 163.055 161.909 163H161.589L158.956 163.846L158.803 164.012C158.691 164.109 158.566 164.234 158.413 164.386C158.26 164.553 158.106 164.678 157.953 164.775L157.786 164.927L157.87 165.094L156.936 169.1L157.02 169.253L157.243 169.724C157.354 169.877 157.424 170.029 157.48 170.182L157.633 170.334L160.279 172.123H160.586C160.85 172.123 161.115 172.137 161.407 172.151C161.686 172.178 161.951 172.22 162.215 172.275H162.522L165.238 171.263C165.293 171.222 165.377 171.138 165.475 171.041C165.586 170.93 165.711 170.806 165.864 170.653L166.171 170.265C166.282 170.154 166.352 170.085 166.408 170.029L167.104 166.716C167.048 166.716 167.034 166.66 167.034 166.549ZM154.917 166.549C154.875 166.397 154.819 166.244 154.764 166.092V165.939L154.694 165.856V165.787L154.61 165.704V165.551L154.527 165.399L151.741 163.153H151.435C151.17 163.153 150.892 163.139 150.613 163.111C150.335 163.097 150.084 163.055 149.875 163H149.485L146.922 163.846C146.88 163.846 146.825 163.901 146.769 164.012C146.616 164.109 146.462 164.234 146.309 164.386C146.156 164.553 146.017 164.678 145.919 164.775L145.766 164.927C145.766 164.983 145.794 165.038 145.836 165.094L144.833 169.031C144.889 169.073 144.93 169.156 144.986 169.253C145.042 169.419 145.111 169.572 145.223 169.724L145.46 170.182L145.529 170.334L148.176 172.123H148.552C148.761 172.123 149.025 172.137 149.332 172.151C149.638 172.178 149.903 172.22 150.112 172.275H150.502L153.218 171.263C153.218 171.222 153.259 171.138 153.371 171.041C153.468 170.93 153.608 170.806 153.761 170.653L153.914 170.501V170.417H153.984L154.067 170.334L154.151 170.265C154.193 170.21 154.248 170.154 154.304 170.112V170.029L155 166.716L154.917 166.549ZM164.388 176.213V197.994L164.235 213.605L163.608 218.707L161.212 221.411C159.499 221.453 157.814 221.508 156.157 221.564L151.351 219.082L149.178 214.534L147.786 208.198C147.786 205.675 147.758 203.152 147.702 200.628V200.545L147.549 192.517V192.351L147.242 185.017L147.786 177.599L136.922 176.837L136.378 184.947V185.558L136.685 192.822L136.838 200.781L136.922 208.808L137.075 209.89L138.704 217.39L139.094 218.541L142.27 225.349L144.68 227.9L152.438 231.837L155.07 232.378L163.845 232.142L167.731 230.368L172.926 224.572L174.249 221.564L175.015 214.299V213.827L175.252 205.716V176.213H164.388ZM220.728 226.583L220.658 226.499L220.575 226.347L220.421 226.194V226.111L220.338 226.042V225.959L220.268 225.889V225.806H220.185V225.737L220.115 225.654V225.501L219.962 225.349L219.878 225.196L219.795 225.113L217.552 221.411L215.296 217.695L215.226 217.543L215.143 217.46V217.39L215.073 217.307V217.238H214.989V217.085L214.906 217.002L214.836 216.919V216.85H214.753V216.766L214.683 216.697V216.614L214.599 216.531V216.461C214.446 216.198 214.335 216.046 214.293 216.004V215.921C214.237 215.865 214.182 215.824 214.14 215.768L213.666 214.909L212.19 212.288L210.713 209.737L210.644 209.585L210.491 209.432V209.349L210.407 209.28V209.196L210.337 209.127V209.044H210.254V208.961L210.17 208.808C210.073 208.656 210.017 208.559 210.017 208.503L209.794 208.198C209.738 208.143 209.655 208.046 209.557 207.879C209.446 207.727 209.376 207.602 209.321 207.505C209.738 207.242 210.156 206.992 210.56 206.729C210.56 206.673 210.616 206.618 210.713 206.576L211.103 206.188L212.427 205.176L213.666 204.094C213.875 203.997 214.028 203.9 214.14 203.789L214.293 203.637L215.923 201.238C215.964 201.197 216.048 200.989 216.145 200.628C216.313 200.212 216.466 199.769 216.619 199.311L217.079 197.994C217.19 197.689 217.26 197.481 217.315 197.384L217.622 194.985C217.58 194.874 217.552 194.68 217.552 194.361C217.496 194.001 217.441 193.585 217.399 193.086C217.343 192.601 217.288 192.171 217.246 191.81C217.19 191.505 217.162 191.297 217.162 191.2L216.856 189.966C216.856 189.855 216.772 189.675 216.619 189.426C216.508 189.065 216.368 188.649 216.187 188.192C216.006 187.72 215.867 187.304 215.769 186.944C215.658 186.694 215.588 186.514 215.533 186.403L214.056 184.24L213.903 184.088C213.792 183.991 213.666 183.88 213.513 183.783C213.095 183.422 212.677 183.034 212.232 182.618C211.786 182.216 211.368 181.856 210.95 181.537C210.797 181.384 210.672 181.26 210.56 181.162C210.463 181.107 210.407 181.052 210.407 180.996L208.861 180.067L208.777 179.998H208.624C208.471 179.901 208.262 179.79 207.997 179.693C207.44 179.485 206.814 179.235 206.145 178.958C205.462 178.667 204.85 178.403 204.279 178.14C204.014 178.043 203.819 177.96 203.652 177.918L203.429 177.835L201.479 177.364H200.518C200.225 177.364 199.947 177.364 199.654 177.336C199.376 177.308 199.153 177.294 199 177.294V177.211L188.136 176.449V177.142L188.052 177.211V178.293L187.983 178.376V179.374L187.899 179.457V180.455L187.829 180.539V180.927L187.593 183.935V184.947C187.537 185.142 187.509 185.28 187.509 185.322V195.914C187.565 196.164 187.593 196.51 187.593 196.913L187.746 199.935L187.829 202.944C187.871 203.36 187.899 203.692 187.899 203.942V205.716L188.052 209.044L188.136 212.371V214.909L188.219 214.992V215.38L188.289 218.472L188.373 221.564C188.414 221.924 188.442 222.257 188.442 222.562V223.338C188.442 223.699 188.47 224.115 188.526 224.572L188.595 228.44C188.595 229.827 188.623 231.088 188.679 232.225V234L199.543 233.681V231.99C199.487 230.797 199.459 229.536 199.432 228.163C199.404 226.804 199.362 225.529 199.306 224.336V222.174C199.306 221.924 199.278 221.591 199.237 221.175L199.153 218.084L199.083 214.992C199.028 214.576 199 214.243 199 213.994V212.136L198.93 211.983V211.512L200.003 213.134C200.212 213.453 200.393 213.702 200.56 213.91L200.783 214.215L201.256 215.075L202.733 217.695L204.195 220.246L204.738 221.175L204.905 221.48L204.975 221.564C205.031 221.605 205.128 221.772 205.281 222.021C205.49 222.382 205.727 222.798 205.992 223.255L206.061 223.408L206.145 223.491V223.574H206.215L206.298 223.643V223.726L206.368 223.796V223.879L206.451 223.948V224.031L206.535 224.115V224.184H206.605V224.267L206.688 224.336V224.42L206.841 224.572V224.725H206.911V224.808L206.995 224.877V224.96L207.078 225.03L207.148 225.113V225.196L207.231 225.265V225.349L207.301 225.418L207.385 225.501V225.57L207.454 225.654V225.737L207.538 225.806L207.691 225.959V226.042L207.775 226.194L207.844 226.277L207.928 226.347L207.997 226.499V226.583L208.081 226.735L208.165 226.818L208.234 226.971L210.491 230.673L210.56 230.825L210.644 230.908V230.978L210.713 231.061L210.797 231.144V231.213L210.881 231.296L210.95 231.366V231.449L211.034 231.532V231.601L211.103 231.685V231.754L211.257 231.906C211.424 232.17 211.493 232.322 211.493 232.378L220.811 226.818V226.735L220.728 226.583ZM205.351 202.32L196.158 203.526L195.448 185.072H202.426L207.287 185.96L209.418 189.828V198.271L205.351 202.32ZM394.51 226.583L394.441 226.499L394.357 226.347L394.204 226.194V226.111L394.12 226.042V225.959L394.051 225.889V225.806H393.967V225.737L393.898 225.654V225.501L393.744 225.349L393.661 225.196L393.577 225.113L391.335 221.411L389.078 217.695L389.009 217.543L388.925 217.46V217.39L388.856 217.307V217.238H388.772V217.085L388.688 217.002L388.619 216.919V216.85H388.535V216.766L388.466 216.697V216.614L388.382 216.531V216.461C388.229 216.198 388.117 216.046 388.076 216.004V215.921C388.02 215.865 387.964 215.824 387.922 215.768L387.449 214.909L385.972 212.288L384.496 209.737L384.426 209.585L384.273 209.432V209.349L384.19 209.28V209.196L384.12 209.127V209.044H384.036V208.961L383.953 208.808C383.855 208.656 383.8 208.559 383.8 208.503L383.577 208.198C383.521 208.143 383.437 208.046 383.34 207.879C383.229 207.727 383.159 207.602 383.103 207.505C383.521 207.242 383.939 206.992 384.343 206.729C384.343 206.673 384.398 206.618 384.496 206.576L384.886 206.188L386.209 205.176L387.449 204.094C387.658 203.997 387.811 203.9 387.922 203.789L388.076 203.637L389.705 201.238C389.747 201.197 389.831 200.989 389.928 200.628C390.095 200.212 390.248 199.769 390.402 199.311L390.861 197.994C390.973 197.689 391.042 197.481 391.098 197.384L391.404 194.985C391.363 194.874 391.335 194.68 391.335 194.361C391.279 194.001 391.223 193.585 391.182 193.086C391.126 192.601 391.07 192.171 391.028 191.81C390.973 191.505 390.945 191.297 390.945 191.2L390.638 189.966C390.638 189.855 390.555 189.675 390.402 189.426C390.29 189.065 390.151 188.649 389.97 188.192C389.789 187.72 389.649 187.304 389.552 186.944C389.441 186.694 389.371 186.514 389.315 186.403L387.839 184.24L387.686 184.088C387.574 183.991 387.449 183.88 387.296 183.783C386.878 183.422 386.46 183.034 386.014 182.618C385.568 182.216 385.151 181.856 384.733 181.537C384.58 181.384 384.454 181.26 384.343 181.162C384.245 181.107 384.19 181.052 384.19 180.996L382.644 180.067L382.56 179.998H382.407C382.254 179.901 382.045 179.79 381.78 179.693C381.223 179.485 380.596 179.235 379.928 178.958C379.245 178.667 378.632 178.403 378.061 178.14C377.797 178.043 377.602 177.96 377.434 177.918L377.212 177.835L375.262 177.364H374.301C374.008 177.364 373.729 177.364 373.437 177.336C373.158 177.308 372.936 177.294 372.782 177.294V177.211L361.918 176.449V177.142L361.835 177.211V178.293L361.765 178.376V179.374L361.682 179.457V180.455L361.612 180.539V180.927L361.375 183.935V184.947C361.319 185.142 361.292 185.28 361.292 185.322V195.914C361.347 196.164 361.375 196.51 361.375 196.913L361.528 199.935L361.612 202.944C361.654 203.36 361.682 203.692 361.682 203.942V205.716L361.835 209.044L361.918 212.371V214.909L362.002 214.992V215.38L362.072 218.472L362.155 221.564C362.197 221.924 362.225 222.257 362.225 222.562V223.338C362.225 223.699 362.253 224.115 362.308 224.572L362.378 228.44C362.378 229.827 362.406 231.088 362.462 232.225V234L373.326 233.681V231.99C373.27 230.797 373.242 229.536 373.214 228.163C373.186 226.804 373.144 225.529 373.089 224.336V222.174C373.089 221.924 373.061 221.591 373.019 221.175L372.936 218.084L372.866 214.992C372.81 214.576 372.782 214.243 372.782 213.994V212.136L372.713 211.983V211.512L373.785 213.134C373.994 213.453 374.175 213.702 374.342 213.91L374.565 214.215L375.039 215.075L376.515 217.695L377.978 220.246L378.521 221.175L378.688 221.48L378.758 221.564C378.813 221.605 378.911 221.772 379.064 222.021C379.273 222.382 379.51 222.798 379.774 223.255L379.844 223.408L379.928 223.491V223.574H379.997L380.081 223.643V223.726L380.15 223.796V223.879L380.234 223.948V224.031L380.318 224.115V224.184H380.387V224.267L380.471 224.336V224.42L380.624 224.572V224.725H380.694V224.808L380.777 224.877V224.96L380.861 225.03L380.93 225.113V225.196L381.014 225.265V225.349L381.084 225.418L381.167 225.501V225.57L381.237 225.654V225.737L381.32 225.806L381.474 225.959V226.042L381.557 226.194L381.627 226.277L381.71 226.347L381.78 226.499V226.583L381.864 226.735L381.947 226.818L382.017 226.971L384.273 230.673L384.343 230.825L384.426 230.908V230.978L384.496 231.061L384.58 231.144V231.213L384.663 231.296L384.733 231.366V231.449L384.816 231.532V231.601L384.886 231.685V231.754L385.039 231.906C385.206 232.17 385.276 232.322 385.276 232.378L394.594 226.818V226.735L394.51 226.583ZM379.134 202.32L369.941 203.526L369.231 185.072H376.209L381.07 185.96L383.201 189.828V198.271L379.134 202.32ZM261.398 174.202C261.398 174.258 261.37 174.438 261.315 174.743C261.273 175.159 261.217 175.644 261.161 176.213C261.064 177.558 260.939 179.013 260.813 180.622C260.688 182.216 260.549 183.686 260.381 185.017C260.34 185.585 260.312 186.07 260.312 186.486C260.256 186.791 260.228 186.972 260.228 187.027V187.568C260.186 187.873 260.159 188.219 260.159 188.566C260.103 189.495 260.047 190.507 260.005 191.589C259.95 192.67 259.894 193.641 259.838 194.514V195.526C259.838 195.623 259.824 195.734 259.769 195.831V197.231C259.713 198.049 259.657 198.964 259.615 199.963C259.56 200.975 259.532 201.918 259.532 202.791C259.532 203.152 259.504 203.457 259.462 203.72V203.872L258.292 201.626L256.899 199.228C256.746 198.923 256.607 198.646 256.509 198.382C256.398 198.23 256.356 198.133 256.356 198.077H256.273C256.273 198.022 256.245 197.952 256.203 197.841C256.036 197.633 255.883 197.384 255.729 197.065V196.913L255.66 196.843V196.76H255.576V196.691L255.493 196.607V196.524L255.423 196.455V196.372L255.339 196.302L255.27 196.219V196.067H255.186V195.984L255.117 195.914V195.831L255.033 195.762V195.679L254.949 195.609V195.526L254.88 195.443V195.374L254.727 195.221V195.138L254.643 194.985L254.573 194.902L254.49 194.75V194.68L254.406 194.514L254.337 194.445V194.361L254.253 194.292L254.183 194.209V194.14L254.1 194.056V193.987L254.03 193.904V193.821L253.947 193.751V193.668H253.863V193.516L253.793 193.433L253.71 193.363V193.28L253.64 193.211V193.128L253.557 193.058V192.975L253.487 192.892V192.822L253.403 192.739L253.32 192.67V192.587L253.25 192.434V192.351L253.167 192.282L252.707 191.505C252.651 191.297 252.596 191.2 252.554 191.2L252.47 191.117V190.965L252.401 190.812L252.317 190.729V190.66L252.233 190.576V190.507L252.164 190.424L252.08 190.271V190.188L252.011 190.036L250.604 187.415L250.534 187.263V187.18L250.451 187.11V187.027L250.381 186.944V186.875L250.297 186.791V186.722H250.228V186.57L250.144 186.486V186.403H250.061V186.251L249.907 186.098V186.029L249.838 185.946V185.793H249.754V185.71L249.685 185.641V185.558L249.601 185.488V185.405L249.517 185.322V185.252L249.448 185.169V185.1L249.364 185.017L249.295 184.864V184.781L249.211 184.712C249.058 184.351 248.905 184.046 248.751 183.783C248.64 183.63 248.598 183.519 248.598 183.478L247.581 182.078C247.526 182.036 247.428 181.953 247.275 181.856C247.066 181.648 246.829 181.412 246.579 181.162L244.475 179.069L242.303 176.989L242.233 176.837H242.149L242.08 176.754L241.996 176.67L241.913 176.601L241.843 176.518L241.759 176.449L241.69 176.365L241.606 176.282C241.453 176.185 241.369 176.102 241.369 176.06L232.135 179.845V180.15C232.135 180.455 232.107 180.802 232.065 181.162V184.088L231.982 186.944V197.689L232.065 200.462V203.332C232.107 203.54 232.135 203.72 232.135 203.872V208.503C232.191 209.529 232.219 210.458 232.219 211.29V213.827L232.288 216.697L232.372 219.623V222.326C232.372 222.895 232.358 223.477 232.33 224.073C232.302 224.669 232.288 225.293 232.288 225.959V228.898L232.219 228.981V231.296L243.083 231.449V229.05L243.152 228.981V226.111C243.152 224.836 243.18 223.616 243.236 222.492V219.401C243.18 218.527 243.152 217.557 243.152 216.503C243.152 215.449 243.138 214.479 243.083 213.605V211.124C243.083 210.306 243.069 209.391 243.041 208.392C243.013 207.38 242.999 206.465 242.999 205.647V204.025C242.999 203.762 242.971 203.457 242.929 203.096C242.929 202.223 242.915 201.28 242.888 200.282C242.86 199.269 242.846 198.327 242.846 197.453V195.984C242.902 196.095 242.929 196.164 242.929 196.219L242.999 196.302C242.999 196.344 243.055 196.455 243.152 196.607C243.264 196.815 243.417 197.065 243.626 197.384V197.536L243.709 197.606V197.689H243.779V197.758L243.863 197.841V197.925L243.932 197.994V198.077L244.016 198.146V198.23L244.085 198.313V198.382H244.169V198.465L244.239 198.535V198.687L244.322 198.77V198.854L244.406 198.923L244.475 199.006V199.075L244.559 199.159V199.228L244.629 199.311L244.712 199.464L244.796 199.547V199.699L244.865 199.769L244.949 199.935L245.019 200.004V200.087L245.102 200.157L245.172 200.24V200.309L245.255 200.393V200.545H245.325V200.628L245.409 200.698V200.781L245.492 200.85V200.933L245.562 201.016V201.086L245.715 201.238V201.391L245.882 201.557V201.626L245.952 201.71V201.779L246.035 201.862L246.105 202.015V202.098L246.189 202.167L246.648 202.944C246.704 203.152 246.76 203.249 246.801 203.249V203.332L246.955 203.554C247.066 203.817 247.219 204.094 247.428 204.413L248.751 206.798L248.821 206.964V207.034L248.905 207.117V207.186L248.974 207.269L249.058 207.339V207.422L249.141 207.505V207.657H249.211V207.727L249.295 207.81V207.879L249.364 207.963V208.046H249.448V208.198L249.517 208.268L249.601 208.351V208.503L249.685 208.586L249.754 208.656L249.838 208.739V208.808L249.907 208.961V209.044L250.061 209.196C250.228 209.501 250.353 209.793 250.451 210.056H250.534V210.125C250.632 210.333 250.743 210.611 250.841 210.971L251.927 213.522L252.011 213.605V213.758L252.08 213.827V213.91L252.164 213.994V214.146L252.233 214.215V214.299L252.317 214.382V214.534H252.401V214.687L252.47 214.756V214.909H252.554V215.075L252.623 215.144V215.227L252.707 215.297V215.463L252.777 215.533V215.685L252.86 215.768V215.838L252.944 215.921V216.004L253.013 216.156C253.167 216.461 253.278 216.739 253.32 217.002C253.431 217.155 253.487 217.266 253.515 217.349C253.543 217.432 253.585 217.515 253.64 217.626C253.738 217.82 253.849 218.111 253.947 218.472L254.03 218.541V218.624L254.1 218.707V218.86H254.183V219.013L254.253 219.082V219.234H254.337V219.401L254.406 219.47V219.553L254.49 219.623V219.789L254.573 219.858V219.941L254.643 220.011V220.094L254.727 220.246V220.33L254.796 220.399V220.482L254.88 220.551V220.704L254.949 220.787V220.94L255.033 221.023L256.119 223.643C256.273 224.004 256.384 224.295 256.426 224.489L256.579 224.808V224.919C256.579 224.946 256.607 224.96 256.663 224.96C256.663 225.057 256.691 225.182 256.746 225.307C256.788 225.432 256.844 225.598 256.899 225.806C257.053 226.167 257.206 226.555 257.359 226.971C257.512 227.387 257.665 227.844 257.833 228.357L257.902 228.44V228.51L257.986 228.593V228.745L258.055 228.829V228.981L258.139 229.05V229.203L258.209 229.286V229.355L258.292 229.439V229.591L258.376 229.674V229.827L258.445 229.896V230.062L258.529 230.132V230.284L258.599 230.368V230.52L258.682 230.603V230.673L258.752 230.756V230.908C258.919 231.213 259.017 231.504 259.072 231.754C259.114 231.906 259.17 232.017 259.225 232.059L269.699 230.451C269.699 230.395 269.727 230.27 269.783 230.062V229.05C269.825 228.121 269.867 227.109 269.894 226C269.922 224.891 269.964 223.879 270.006 222.95C270.006 222.534 270.034 222.201 270.089 221.952V211.595C270.145 210.722 270.173 209.737 270.201 208.656C270.229 207.574 270.271 206.604 270.326 205.716V203.554L270.396 203.484V203.179C270.396 202.347 270.424 201.432 270.479 200.434C270.521 199.422 270.577 198.493 270.633 197.606V196.302C270.633 196.247 270.661 196.164 270.716 196.067V195.055C270.758 194.14 270.814 193.128 270.869 192.046C270.911 190.965 270.967 189.994 271.023 189.107V188.109C271.078 187.901 271.092 187.776 271.092 187.72V187.415C271.148 186.999 271.204 186.514 271.259 185.946C271.357 184.601 271.482 183.145 271.636 181.537C271.803 179.942 271.928 178.473 272.025 177.142C272.081 176.573 272.137 176.088 272.179 175.672V175.131L261.398 174.202ZM317.125 214.756C317.014 214.035 316.888 213.273 316.735 212.441V212.288L316.652 212.205V211.831L316.582 211.748V211.359L316.498 211.29V210.819L316.415 210.749V210.361L316.345 210.278V210.056C316.289 209.737 316.234 209.488 316.192 209.28V208.961L315.106 206.576C315.106 206.521 315.05 206.437 314.952 206.34C314.799 206.188 314.632 205.98 314.479 205.716L314.326 205.564L314.242 205.495V205.411L314.089 205.259L314.019 205.176L313.936 205.106V205.023L313.866 204.954L313.782 204.871L313.699 204.801V204.718L313.629 204.635L313.546 204.566L313.476 204.483L313.392 204.413V204.33L313.156 204.094L313.086 204.025L313.002 203.872L311.61 202.015C311.401 201.807 311.247 201.599 311.15 201.391C311.038 201.294 310.969 201.211 310.913 201.169L308.894 199.616C308.894 199.574 308.81 199.519 308.657 199.464H308.587L308.504 199.394H308.434L308.35 199.311H308.197L308.044 199.159H307.891L306.414 198.465L307.027 197.689L307.264 197.453L307.348 197.384V197.301L307.417 197.231H307.501L307.57 197.065L307.654 196.996L307.724 196.913L308.81 192.434V192.129C308.768 192.018 308.726 191.907 308.699 191.783C308.671 191.644 308.657 191.478 308.657 191.284C308.559 190.965 308.462 190.604 308.392 190.188C308.309 189.786 308.239 189.343 308.197 188.885L307.654 186.486C307.598 186.181 307.542 185.918 307.501 185.71V185.405L305.941 182.618C305.941 182.577 305.871 182.493 305.718 182.396C305.551 182.244 305.37 182.064 305.161 181.856L303.462 180.15L303.378 180.067L303.225 179.915L303.155 179.845H303.072L303.002 179.762V179.693L302.918 179.61L302.835 179.54H302.765V179.457L302.682 179.374L302.612 179.305H302.528V179.221L302.445 179.152H302.375L302.292 179.069V178.986L302.069 178.764L301.985 178.681L301.832 178.611L301.748 178.528C301.651 178.376 301.539 178.265 301.442 178.182C301.344 178.098 301.261 178.029 301.205 177.946C301.163 177.877 301.108 177.807 301.052 177.752H300.982L298.656 176.365C298.601 176.365 298.489 176.338 298.336 176.282L298.183 176.213H298.03L297.946 176.13H297.723L297.64 176.06C296.915 175.908 296.149 175.714 295.355 175.478C294.547 175.242 293.809 175.034 293.141 174.826C292.834 174.715 292.57 174.646 292.361 174.591C292.263 174.591 292.18 174.563 292.124 174.508H292.054L289.882 174.355C289.826 174.41 289.728 174.438 289.575 174.438C289.366 174.48 289.102 174.508 288.795 174.508C288.113 174.618 287.374 174.743 286.539 174.896C285.87 174.951 285.229 175.034 284.603 175.131L281.427 175.367V175.589L281.497 175.741V176.754L281.58 176.837V177.835L281.65 177.918V178.916L281.733 178.986V179.915L281.803 179.998V180.996L281.887 181.162V181.689L282.193 186.098V186.403L282.277 186.486V187.485L282.346 187.568V210.209C282.346 212.468 282.374 217.626 282.43 225.654V232.683H295.314L296.093 232.6C296.135 232.6 296.247 232.586 296.4 232.53H296.637L296.706 232.447H297.096L297.18 232.378L299.576 232.059L302.069 231.685L302.835 231.532H303.155L304.701 230.978C304.757 230.978 304.854 230.964 305.008 230.908L305.161 230.756H305.328L305.398 230.673H305.481L305.551 230.603L305.718 230.52L307.807 229.522L309.896 228.51L309.98 228.44L310.064 228.357H310.217V228.274H310.37V228.205H310.44L310.523 228.121L310.676 228.052H310.83L313.156 225.737C313.211 225.737 313.267 225.654 313.323 225.501C313.42 225.293 313.546 225.03 313.699 224.725C314.117 224.059 314.534 223.324 314.952 222.52C315.356 221.73 315.774 220.995 316.192 220.33V220.246L316.262 220.163V220.094L316.345 220.011V219.941L316.415 219.858V219.789L316.498 219.706V219.623L316.582 219.553C316.624 219.401 316.679 219.318 316.735 219.318L317.278 215.838V215.533C317.223 215.325 317.167 215.075 317.125 214.756ZM289.645 184.019L292.124 182.965L296.01 184.019L299.353 188.414L300.773 190.438L299.353 194.292L298.127 196.857H289.645V184.019ZM306.261 217.626L303.434 223.255L296.01 225.543L291.051 227.29L291.414 218.153L290.703 205.217H295.216L300.773 206.008L303.782 208.115L306.261 211.11V217.626ZM353.91 219.941H353.52C353.255 219.983 352.921 220.038 352.503 220.094C351.584 220.191 350.539 220.316 349.411 220.441C348.269 220.565 347.238 220.69 346.305 220.787C345.887 220.843 345.553 220.884 345.288 220.94H344.675C344.564 220.995 344.438 221.023 344.285 221.023H343.742C342.809 221.12 341.792 221.231 340.706 221.328C339.731 221.383 339.104 221.439 338.853 221.48L338.77 220.94C338.77 220.066 338.742 219.082 338.7 218C338.644 216.919 338.589 215.921 338.533 214.992V212.371C338.491 211.442 338.463 210.403 338.463 209.28V208.656H339.313L339.396 208.586H339.55C340.998 208.586 342.293 208.559 343.422 208.503H344.745C345.009 208.448 345.163 208.42 345.218 208.42L344.898 197.606C344.856 197.606 344.689 197.633 344.438 197.689H343.115C341.973 197.744 340.692 197.758 339.243 197.758C339.187 197.758 338.895 197.786 338.38 197.841V195.138C338.338 194.874 338.31 194.569 338.31 194.209C338.254 193.28 338.212 192.296 338.185 191.242C338.157 190.188 338.129 189.19 338.073 188.261V187.11H338.157C339.076 187.11 340.093 187.124 341.179 187.138C342.266 187.166 343.268 187.18 344.202 187.18H345.525C345.622 187.235 345.776 187.263 345.957 187.263C346.138 187.263 346.319 187.291 346.528 187.332C346.945 187.388 347.405 187.443 347.893 187.485C348.38 187.54 348.909 187.596 349.48 187.651C350.567 187.748 351.584 187.845 352.503 187.956C352.865 187.956 353.185 187.984 353.436 188.025H353.826L354.912 177.294H354.606L354.453 177.211H353.826L353.673 177.142H353.589C352.67 177.031 351.653 176.934 350.567 176.837C349.48 176.726 348.505 176.629 347.614 176.518C347.21 176.518 346.876 176.49 346.611 176.449H346.221L345.762 176.365H344.438C343.505 176.365 342.488 176.351 341.374 176.324C340.26 176.296 339.257 176.282 338.38 176.282C337.976 176.241 337.627 176.213 337.377 176.213H335.274C334.299 176.268 333.184 176.282 331.945 176.282C330.705 176.282 329.591 176.31 328.602 176.365H327.056L327.209 187.18V188.732L327.362 191.658V193.058L327.446 193.128V194.597C327.446 194.958 327.46 195.29 327.516 195.609V206.424C327.516 207.339 327.53 208.365 327.557 209.474C327.585 210.583 327.627 211.595 327.669 212.524V214.451C327.669 214.715 327.697 215.02 327.752 215.38L327.836 218.389V219.401L327.906 219.47V221.411C327.961 221.772 327.989 222.077 327.989 222.326V223.033L328.059 224.031L328.142 226.888V227.581L327.906 232.059H328.296L329.298 232.142L332.251 232.225L335.274 232.378C335.636 232.419 335.956 232.447 336.207 232.447H337.293C337.349 232.447 337.474 232.419 337.683 232.378C337.948 232.378 338.282 232.35 338.7 232.295L341.639 232.059L344.592 231.837C345.009 231.782 345.344 231.754 345.608 231.754H345.984L346.138 231.685H346.528L347.544 231.532L350.65 231.213L353.756 230.825L354.759 230.673H355.149L353.91 219.941ZM439.93 216.004C439.875 215.685 439.819 215.325 439.777 214.909C439.61 213.994 439.429 212.954 439.234 211.831C439.123 211.151 439.039 210.583 438.997 210.125C438.844 208.323 438.691 206.521 438.524 204.718C438.426 204.718 438.217 204.746 437.911 204.801L436.351 204.954L431.615 205.342H431.392L431.309 205.411H430.459L430.376 205.495H429.526V205.564H428.746L428.676 205.647H427.813L427.743 205.716H426.894C426.322 205.827 425.807 205.883 425.334 205.883H425.264C424.944 205.883 424.581 205.855 424.178 205.8C423.244 205.744 422.186 205.675 420.988 205.564C420.375 205.522 419.804 205.481 419.289 205.453C418.759 205.425 418.272 205.384 417.812 205.342C417.603 205.342 417.408 205.328 417.227 205.301C417.046 205.273 416.879 205.259 416.726 205.259H416.336L415.556 216.004C415.612 216.046 415.737 216.073 415.946 216.073C416.211 216.073 416.545 216.101 416.949 216.156C417.422 216.198 417.924 216.24 418.467 216.267C419.01 216.295 419.581 216.337 420.18 216.378C420.765 216.434 421.336 216.475 421.879 216.503C422.423 216.531 422.924 216.558 423.398 216.614C423.815 216.669 424.178 216.697 424.484 216.697H426.35C426.754 216.642 427.27 216.586 427.896 216.531H428.203L428.286 216.461H428.983V216.614C428.983 216.669 429.011 216.697 429.066 216.697C428.857 217.266 428.593 217.987 428.286 218.86C428.022 219.623 427.841 220.163 427.743 220.482L426.03 221.633L424.247 222.867C423.732 222.825 422.952 222.77 421.921 222.714C420.932 222.714 419.999 222.687 419.122 222.645H418.968L416.642 221.48L414.233 220.246L414.163 220.163L412.38 218L410.584 215.838H410.514V215.768C410.403 215.352 410.291 214.922 410.166 214.493C410.04 214.049 409.915 213.578 409.818 213.065L409.734 212.981V212.76L409.664 212.676V212.524L409.581 212.441V212.205H409.497V211.983L409.428 211.9V211.595H409.344V211.359L409.274 211.29V211.054L409.191 210.971V210.819L409.121 210.749V210.583L409.038 210.43C409.038 210.278 409.01 210.098 408.954 209.89C408.954 209.737 408.94 209.501 408.884 209.196V203.179C408.884 202.971 408.87 202.805 408.843 202.666C408.815 202.541 408.801 202.458 408.801 202.403C408.856 202.139 408.912 201.862 408.954 201.557L409.038 201.391V201.086L409.121 201.016V200.545L409.191 200.462V200.087L409.274 200.004V199.699L409.344 199.616V199.311L409.428 199.228V198.923C409.581 197.994 409.734 197.148 409.887 196.372V196.067C409.943 196.011 410.026 195.887 410.124 195.679L411.517 193.128L412.924 190.576C413.021 190.368 413.105 190.216 413.146 190.119L413.314 189.966L413.383 189.883L413.467 189.814L413.536 189.731L415.709 187.568L417.659 185.71L419.902 185.252H420.292L420.375 185.169H420.751L420.835 185.1H421.225V185.017H421.615L421.684 184.947H422.005L422.074 184.864H422.381C422.436 184.864 422.492 184.892 422.548 184.947L425.96 186.098L429.289 187.332C429.763 187.485 430.153 187.623 430.459 187.72C430.668 187.831 430.793 187.873 430.849 187.873L434.498 177.682H434.415L434.262 177.599L434.108 177.53L433.022 177.142C431.977 176.781 430.849 176.393 429.61 175.977L426.183 174.743C425.779 174.591 425.417 174.466 425.097 174.355C424.902 174.258 424.763 174.202 424.721 174.202L421.921 173.967C421.865 173.967 421.768 173.995 421.615 174.05C421.35 174.05 421.044 174.105 420.682 174.202C419.846 174.3 418.968 174.466 418.035 174.66H417.659L417.576 174.743H417.186L417.116 174.826H416.796L416.726 174.896H416.336L416.252 174.979H415.862L415.793 175.048H415.403L415.319 175.131C414.957 175.187 414.678 175.228 414.47 175.284H414.08L411.21 176.837L411.127 176.906L410.974 177.059C410.765 177.267 410.542 177.502 410.277 177.752L410.208 177.835L410.124 177.918L410.04 177.988L409.971 178.071L409.887 178.14L409.818 178.223L409.734 178.293H409.664V178.376L409.581 178.459L409.497 178.528H409.428L409.344 178.611V178.681L409.274 178.764L409.191 178.833H409.121L409.038 178.916L408.954 178.986L408.884 179.069L408.731 179.221L408.648 179.374L408.578 179.457L408.411 179.54L408.341 179.61L408.188 179.762L408.104 179.915L407.951 179.998L407.868 180.067L407.798 180.15L407.714 180.234L407.645 180.303V180.386L407.561 180.455H407.492L407.324 180.622V180.691H407.255L407.171 180.774L407.102 180.844V180.927H407.018L406.948 180.996L406.475 181.467L406.405 181.537L406.322 181.62L406.238 181.689L406.168 181.773L405.235 182.701C405.082 182.854 404.97 182.937 404.929 182.937L403.996 184.24C403.996 184.296 403.94 184.407 403.842 184.559C403.689 184.809 403.522 185.1 403.369 185.405L403.299 185.558V185.641H403.216V185.71L403.146 185.793V185.863L403.062 185.946V186.029L402.979 186.098V186.181H402.909V186.334L402.826 186.403L402.756 186.486V186.57L402.672 186.639V186.722L402.603 186.791L402.519 186.875V186.944L402.436 187.027V187.11L402.366 187.263V187.332L402.213 187.485L402.129 187.651V187.72L402.046 187.873L401.976 187.956L401.892 188.109L401.823 188.192V188.261L401.739 188.344V188.414L401.67 188.497V188.566L401.586 188.649V188.732L401.516 188.802V188.885L401.433 188.954V189.037L401.349 189.107L401.28 189.19V189.343H401.196V189.426L401.126 189.495V189.578L401.043 189.648V189.731L400.973 189.814V189.883H400.89V189.966L400.806 190.036V190.188L400.736 190.271L400.653 190.355V190.424L400.583 190.507L400.11 191.353C400.012 191.561 399.956 191.686 399.956 191.741L399.33 193.363V193.668L399.26 193.821V194.209L399.176 194.292V194.514L399.107 194.68V195.138H399.023V195.526L398.954 195.609V195.984L398.87 196.067V196.455L398.8 196.524V196.913L398.717 196.996V197.148L398.257 199.699V200.087L398.174 200.157V200.462L398.09 200.545V200.933L398.02 201.862V206.299C398.02 207.408 398.048 208.406 398.09 209.28V210.666L398.257 212.053C398.257 212.108 398.271 212.205 398.327 212.371L398.41 212.524V212.676L398.48 212.76V212.981L398.564 213.134V213.217L399.26 215.921L399.956 218.541L400.04 218.624V218.777L400.11 218.86V219.082L400.193 219.165V219.401L400.263 219.47V219.623L400.346 219.706L401.349 221.785L401.586 222.021C401.739 222.229 401.948 222.492 402.213 222.798L403.996 224.877L405.778 227.04L405.862 227.193L405.932 227.276L406.168 227.511L406.238 227.581L406.322 227.664L406.405 227.733C406.503 227.9 406.558 227.997 406.558 228.052L408.341 229.439C408.397 229.439 408.494 229.494 408.648 229.591H408.731L408.801 229.674H408.884L408.954 229.744H409.038L409.121 229.827H409.191L409.274 229.896L409.428 229.979L411.754 231.144L414.163 232.295C414.47 232.447 414.734 232.586 414.929 232.683C415.096 232.78 415.194 232.835 415.25 232.835L417.422 233.376C417.464 233.376 417.603 233.404 417.812 233.459H419.748L419.832 233.529H421.531L424.331 233.681H425.64L428.899 232.766L429.136 232.6L429.289 232.53L429.373 232.447H429.442L429.526 232.378L429.679 232.225H429.763L429.916 232.059L429.986 231.99H430.069L430.222 231.837H430.306L430.376 231.754H430.459L430.543 231.685L430.612 231.601H430.696L430.766 231.532V231.449H430.849L430.919 231.366H431.002L431.072 231.296H431.156L431.239 231.213L431.309 231.144H431.392L431.462 231.061L431.615 230.908L431.782 230.825L431.852 230.756L432.005 230.673L432.089 230.603L434.331 229.134C434.596 228.926 434.833 228.773 435.042 228.662C435.195 228.565 435.292 228.482 435.348 228.44L437.368 225.737C437.409 225.681 437.465 225.57 437.521 225.418C437.577 225.21 437.646 224.96 437.758 224.655C438.008 223.976 438.287 223.227 438.565 222.368C438.858 221.522 439.123 220.732 439.387 220.011C439.485 219.706 439.568 219.442 439.61 219.234C439.666 219.082 439.721 218.985 439.777 218.929L440 216.378C439.944 216.337 439.93 216.198 439.93 216.004Z" fill="#0154D5"></path></g><defs><clipPath id="clip0"><rect width="512" height="407" fill="white"></rect></clipPath></defs></svg> 