<?xml version="1.0" encoding="UTF-8"?> <svg xmlns="http://www.w3.org/2000/svg" width="512" height="407" viewBox="0 0 512 407" fill="none"><rect width="512" height="407" fill="#E679A6"></rect><path d="M68.3929 0C68.3929 0 0 0 0 69.5363V337.471C0 337.471 0 407 68.3929 407H441.357C441.357 407 509.757 407 509.757 337.471V69.5058C509.757 69.5058 509.757 0 441.357 0H68.3929Z" fill="#E679A6"></path><path d="M430.416 218.453L457.01 203.385C458.752 206.306 460.323 208.853 461.804 211.445C467.174 220.878 472.483 230.341 477.883 239.751C480.388 244.113 483.118 248.353 485.624 252.714C489.612 259.577 493.526 266.473 497.365 273.402C497.818 274.368 498.014 275.438 497.934 276.506C497.769 281.081 497.425 285.618 497.253 290.171C497.264 290.846 497.073 291.509 496.705 292.072C496.338 292.634 495.812 293.069 495.196 293.32C483.701 299.535 472.252 305.826 460.794 312.063C456.569 314.351 452.306 316.562 448.08 318.85C445.186 320.413 444.887 320.062 443.548 317.775C439.532 310.912 435.322 304.186 431.223 297.361C425.958 288.551 420.741 279.713 415.57 270.848C412.317 265.334 409.071 259.814 405.93 254.239C405.262 253.077 404.87 251.771 404.786 250.427C404.644 245.745 404.786 241.063 404.659 236.388C404.563 235.616 404.702 234.832 405.056 234.142C405.411 233.452 405.963 232.89 406.641 232.53C410.435 230.278 414.224 228.028 418.008 225.781C420.484 224.325 422.967 222.899 425.539 221.397C425.008 219.109 424.694 217.004 424.044 215.007C421.8 208.472 419.482 201.99 415.697 196.134C412.444 191.116 408.458 187.143 403.028 184.627C397.988 182.286 393.082 182.576 388.071 184.695C385.08 185.977 382.088 187.288 379.657 189.591C370.317 198.475 367.161 209.577 368.97 222.159C369.449 225.53 371.214 228.77 372.71 231.905C374.811 236.274 377.332 240.43 379.485 244.769C383.038 251.921 386.104 259.257 385.902 267.523C385.768 273.151 385.154 278.664 381.041 283.025C380.061 284.07 379.067 285.1 377.885 286.327L374.722 283.575C375.223 283.064 375.948 282.21 376.771 281.478C381.026 277.711 381.258 272.823 380.802 267.576C380.121 260.142 377.459 253.439 374.138 246.911C370.825 240.644 368.071 234.085 365.912 227.314C365.216 225.026 364.214 222.785 363.705 220.451C362.15 213.253 363.474 206.352 366.143 199.634C367.729 195.653 369.397 191.749 372.194 188.432C376.359 183.483 381.236 179.785 387.675 178.572C389.088 178.305 390.479 177.939 391.885 177.604C396.772 176.454 401.906 177.273 406.214 179.891C413.506 184.078 418.562 190.331 422.608 197.689C426.093 204.14 428.135 211.11 430.416 218.453ZM421.95 234.558L417.066 237.814L448.125 290.918C459.037 283.254 470.965 277.573 482.176 270.749C472.566 252.676 463.128 234.909 453.615 217.05L449.225 219.429C451.162 225.133 454.684 229.922 455.903 235.649C455.155 236.198 454.662 236.648 454.093 236.991C447.998 240.636 441.91 244.303 435.77 247.88C431.507 250.373 431.493 250.305 428.957 246.088C426.684 242.283 424.35 238.501 421.95 234.558ZM492.998 272.373L493.349 271.839C481.443 250.724 469.529 229.617 457.391 208.098C456.681 211.148 456.045 213.687 455.552 216.234C455.519 216.904 455.691 217.568 456.045 218.133C457.474 220.886 458.962 223.6 460.45 226.323C468.039 240.196 475.644 254.056 483.268 267.904C483.843 269.003 484.75 269.883 485.855 270.413C488.195 271.194 490.575 271.848 492.983 272.373H492.998ZM493.97 275.133C491.965 274.371 490.043 273.768 488.256 272.899C485.923 271.77 483.941 272.281 481.817 273.517C470.913 279.853 460.009 286.038 448.761 292.481C448.626 295.531 448.477 298.97 448.312 302.905L493.97 275.133ZM408.75 235.786L408.279 236.243L446.046 303.347C446.51 301.449 446.27 299.588 446.532 297.804C447.131 293.808 445.919 290.559 443.795 287.197C438.889 279.442 434.379 271.42 429.72 263.497C425.442 256.237 420.985 249.077 417.006 241.657C415.017 238.058 411.734 237.326 408.735 235.786H408.75ZM455.499 206.809L441.2 214.671C442.965 215.563 444.034 215.998 444.984 216.616C445.975 217.325 447.161 217.696 448.372 217.675L455.499 206.809ZM421.172 232.675C419.183 231.729 417.5 230.898 415.78 230.151C415.345 229.975 414.861 229.975 414.426 230.151C412.519 231.119 410.425 231.775 408.712 233.407L415.982 236.579L421.172 232.675Z" fill="black"></path><path d="M421.95 234.558C424.351 238.501 426.684 242.283 428.973 246.088C431.508 250.305 431.523 250.373 435.786 247.88C441.926 244.304 448.013 240.636 454.109 236.991C454.677 236.648 455.185 236.228 455.918 235.649C454.699 229.922 451.177 225.133 449.24 219.429L453.607 217.05C463.12 234.924 472.559 252.676 482.169 270.749C470.951 277.573 459.03 283.254 448.118 290.918L417.066 237.814L421.95 234.558Z" fill="#028B3F"></path><path d="M492.984 272.373C490.57 271.849 488.186 271.195 485.841 270.413C484.736 269.883 483.829 269.003 483.254 267.904C475.605 254.072 468.002 240.211 460.444 226.323C458.948 223.601 457.452 220.886 456.039 218.133C455.684 217.568 455.512 216.904 455.545 216.234C456.039 213.688 456.674 211.164 457.385 208.098C469.523 229.617 481.436 250.724 493.342 271.839L492.984 272.373Z" fill="#E7E5C2"></path><path d="M493.956 275.133L448.336 302.905C448.5 298.971 448.65 295.531 448.785 292.481C460.003 286.038 470.952 279.823 481.826 273.517C483.95 272.281 485.931 271.771 488.265 272.899C490.03 273.753 491.952 274.363 493.956 275.133Z" fill="#E7E5C2"></path><path d="M408.733 235.786C411.725 237.311 415.016 238.074 416.96 241.673C420.969 249.093 425.426 256.253 429.674 263.512C434.333 271.435 438.843 279.457 443.749 287.212C445.873 290.575 447.084 293.823 446.486 297.819C446.224 299.603 446.486 301.464 446 303.363L408.232 236.259L408.733 235.786Z" fill="#E7E5C2"></path><path d="M441.186 214.687L455.485 206.825C455.261 209.356 453.855 213.405 452.965 215.518C452.965 215.518 450.444 216.662 448.358 217.691" fill="#E7E5C2"></path><path d="M421.157 232.69L415.967 236.579L408.697 233.407C410.41 231.775 412.504 231.12 414.411 230.151C414.846 229.976 415.33 229.976 415.765 230.151C417.485 230.914 419.167 231.745 421.157 232.69Z" fill="#E7E5C2"></path><path d="M95.9603 68.3618L85.4303 145.501L83.6055 307.435L180.881 387.227L218.716 379.167L212.464 337.418L149.164 222.266L141.087 76.7422L95.9603 68.3618Z" fill="black" stroke="black" stroke-width="9.98" stroke-miterlimit="10"></path><path d="M358.657 78.2142L356.66 255.978L132.051 270.139L134.093 88.5695L103.617 66.8371L328.876 56.4131L358.657 78.2142Z" fill="#E7E5C2" stroke="black" stroke-width="9.98" stroke-miterlimit="10"></path><path d="M356.661 255.978L441.844 337.502L423.663 362.399L188.36 386.464L204.836 364.404L132.053 270.138L356.661 255.978Z" fill="#E7E5C2" stroke="black" stroke-width="9.98" stroke-miterlimit="10"></path><path d="M441.842 337.502L204.834 364.404" stroke="black" stroke-width="9.98" stroke-miterlimit="10"></path><path d="M164.083 246.027L325.309 236.823C326.358 236.835 327.399 236.636 328.373 236.238C329.347 235.839 330.234 235.248 330.983 234.5C331.733 233.751 332.33 232.859 332.741 231.875C333.152 230.89 333.369 229.833 333.378 228.763L334.732 109.806C334.754 107.65 333.937 105.573 332.459 104.031C330.981 102.489 328.964 101.607 326.85 101.579L165.661 109.967C163.545 109.944 161.507 110.779 159.994 112.287C158.481 113.795 157.617 115.854 157.591 118.011L156.2 237.777C156.185 238.846 156.377 239.909 156.766 240.902C157.154 241.896 157.731 242.802 158.463 243.569C159.195 244.335 160.068 244.947 161.033 245.369C161.997 245.791 163.033 246.014 164.083 246.027Z" fill="#025BC7" stroke="black" stroke-width="9.98" stroke-miterlimit="10"></path><path d="M353.722 283.132L379.823 312.422L356.003 314.686L363.669 330.029L268.793 340.613L263.454 327.329L230.996 331.02L225.155 319.62L212.651 320.52L191.389 295.341L353.722 283.132Z" fill="#1026B0" stroke="black" stroke-width="9.98" stroke-miterlimit="10"></path><path d="M110.438 65.9754C109.241 66.2881 108.8 67.9199 109.256 69.0943C109.833 70.2187 110.709 71.1544 111.784 71.7937L127.056 82.942C129.172 84.4671 131.341 86.0609 133.831 86.8158C136.322 87.5707 138.865 87.4639 141.407 87.3648L202.733 85.0772L249.812 83.3004L352.726 79.4115C353.609 79.4115 354.603 79.2818 355.142 78.5727C355.957 77.5051 355.142 75.9724 354.267 74.9353C350.714 70.6253 346.528 66.9008 341.86 63.8937C338.245 61.5454 334.332 59.7111 330.23 58.4415C320.919 55.6277 310.995 56.1996 301.31 56.8021L192.308 63.5582C182.406 64.1682 172.511 64.7859 162.602 65.2129C144.858 65.9805 127.096 66.1635 109.316 65.7619" fill="#028B3F"></path><path d="M128.646 65.9375L155.151 87.426" stroke="black" stroke-width="9.98" stroke-miterlimit="10"></path><path d="M159.336 65.312L184.517 85.7329" stroke="black" stroke-width="9.98" stroke-miterlimit="10"></path><path d="M187.371 62.5513L214.863 84.8404" stroke="black" stroke-width="9.98" stroke-miterlimit="10"></path><path d="M217.607 61.5601L245.466 84.1542" stroke="black" stroke-width="9.98" stroke-miterlimit="10"></path><path d="M248.271 60.0576L275.397 82.0494" stroke="black" stroke-width="9.98" stroke-miterlimit="10"></path><path d="M278.191 59.6841L304.135 80.7303" stroke="black" stroke-width="9.98" stroke-miterlimit="10"></path><path d="M308.504 58.2583L334.485 79.3274" stroke="black" stroke-width="9.98" stroke-miterlimit="10"></path><path d="M358.657 78.2142L356.66 255.978L132.036 270.863L134.093 88.5695L103.617 66.8371L328.876 56.4131L358.657 78.2142Z" stroke="black" stroke-width="9.98" stroke-miterlimit="10"></path><path d="M358.657 78.2139L134.094 88.5692" stroke="black" stroke-width="9.98" stroke-miterlimit="10"></path><path d="M132.718 270.863L110.11 271.397L83.6055 307.435" stroke="black" stroke-width="11.79" stroke-miterlimit="10"></path><path d="M308.549 46.8202L303.568 23.8447" stroke="black" stroke-width="10" stroke-miterlimit="10"></path><path d="M333.109 45.3028L337.641 24.4243" stroke="black" stroke-width="10" stroke-miterlimit="10"></path><path d="M352.867 54.0493L367.167 32.4541" stroke="black" stroke-width="10" stroke-miterlimit="10"></path><path d="M369.223 69.3841L389.31 61.4766" stroke="black" stroke-width="10" stroke-miterlimit="10"></path><path d="M373.412 97.3767L393.859 95.0586" stroke="black" stroke-width="10" stroke-miterlimit="10"></path><path d="M372.223 126.902L395.564 128.641" stroke="black" stroke-width="10" stroke-miterlimit="10"></path><path d="M283.132 48.7415L273.268 28.0918" stroke="black" stroke-width="10" stroke-miterlimit="10"></path><path d="M63.4575 139.629L72.0506 148.193L66.98 155.864C63.7118 153.698 60.9147 151.159 57.6316 149.237C54.7897 153.271 51.3569 155.864 46.4135 154.621C43.1079 153.797 40.4305 151.571 39.0619 144.975C33.4828 147.606 28.7787 146.408 25.2263 141.391C23.4762 138.913 23.2893 134.177 27.081 129.953C26.5494 129.068 26.0916 128.14 25.7124 127.177C25.3442 126.013 25.2119 124.785 25.3238 123.567C25.4356 122.349 25.7892 121.167 26.363 120.093C27.4465 117.961 29.0743 116.167 31.0746 114.9C32.4192 113.972 34.0349 113.542 35.6528 113.68C37.2707 113.819 38.7932 114.519 39.9668 115.663C40.2634 115.919 40.5757 116.156 40.9017 116.372C44.0278 114 47.3558 113.848 50.8334 115.449C54.311 117.05 56.5098 119.422 56.4126 123.707C58.1486 123.916 59.8048 124.568 61.2273 125.604C62.6499 126.64 63.7926 128.026 64.5494 129.632C66.1648 133.064 66.09 136.427 63.4575 139.629Z" fill="#EDBCD2"></path><path d="M51.304 197.537L63.2102 199.542C63.2849 202.699 63.3597 205.688 63.4345 208.762C59.5231 208.884 55.7838 208.434 52.007 208.762C52.007 213.71 50.6384 217.821 45.8595 219.696C42.6885 220.939 39.2259 220.711 34.3572 216.082C31.2909 221.466 26.7514 223.235 20.9853 221.191C18.1434 220.184 15.3014 216.41 16.0044 210.775C15.0695 210.354 14.167 209.862 13.3046 209.303C12.3426 208.568 11.5365 207.641 10.9349 206.58C10.3334 205.518 9.9489 204.343 9.80458 203.126C9.47684 200.758 9.78707 198.344 10.702 196.141C11.2785 194.597 12.3568 193.3 13.7571 192.468C15.1574 191.635 16.7952 191.317 18.3976 191.566C18.785 191.61 19.1748 191.625 19.5643 191.612C20.7759 187.86 23.4084 185.794 27.1702 185.085C30.932 184.375 34.0805 185.039 36.4363 188.592C37.9942 187.75 39.7348 187.321 41.4979 187.345C43.261 187.369 44.9898 187.845 46.5251 188.73C49.7784 190.59 51.6331 193.381 51.304 197.537Z" fill="#EDBCD2"></path><path d="M52.7308 262.551L63.6946 257.427L69.0194 264.915C65.8634 267.203 62.5204 269.002 59.5887 271.427C62.326 275.537 63.5151 279.693 60.6133 283.956C58.6838 286.792 55.6998 288.577 49.0886 287.524C49.5598 293.724 46.8001 297.758 40.862 299.359C37.9528 300.122 33.503 298.657 30.9303 293.602C29.9233 293.793 28.9029 293.9 27.879 293.922C26.6731 293.863 25.4911 293.558 24.403 293.025C23.315 292.492 22.3429 291.742 21.5445 290.819C19.9757 289.05 18.9058 286.881 18.4483 284.543C18.0608 282.944 18.2283 281.257 18.9222 279.77C19.6161 278.282 20.7938 277.086 22.255 276.384C22.5969 276.194 22.9267 275.983 23.2421 275.751C22.1428 271.938 23.1748 268.758 25.8821 266.036C28.5894 263.314 31.566 262.055 35.4998 263.649C36.3175 262.067 37.5142 260.722 38.9787 259.738C40.4431 258.754 42.1277 258.164 43.8759 258.022C47.6153 257.694 50.6891 258.937 52.7308 262.551Z" fill="#EDBCD2"></path><path d="M122.74 39.0501C130.481 38.0206 131.647 47.0949 139.388 46.0655C147.128 45.0361 145.962 35.9542 153.702 34.9247C161.443 33.8953 162.609 42.9696 170.357 41.9401C178.105 40.9107 176.931 31.8364 184.679 30.807C192.427 29.7776 193.586 38.8442 201.327 37.8148C209.067 36.7853 207.908 27.7034 215.648 26.674C223.389 25.6446 224.556 34.7112 232.341 33.6742C240.126 32.6371 238.915 23.5704 246.663 22.541" stroke="#DC0816" stroke-width="6" stroke-miterlimit="10"></path><path d="M416.266 102.272C420.887 108.693 413.648 114.107 418.27 120.52C422.892 126.933 430.124 121.527 434.723 127.94C439.323 134.353 432.113 139.774 436.727 146.195C441.342 152.616 448.581 147.194 453.181 153.615C457.78 160.035 450.615 165.472 455.207 171.862C459.799 178.252 467.061 172.869 471.661 179.289C476.26 185.71 469.043 191.124 473.665 197.545C478.287 203.965 485.526 198.544 490.118 204.964" stroke="#DC0816" stroke-width="6" stroke-miterlimit="10"></path><path d="M340.471 388.5C348.226 387.624 349.221 396.713 356.984 395.836C364.747 394.959 363.752 385.862 371.507 384.978C379.263 384.093 380.265 393.19 388.02 392.313C395.776 391.436 394.789 382.339 402.552 381.455C410.315 380.57 411.302 389.667 419.065 388.79C426.828 387.913 425.833 378.816 433.596 377.932C441.359 377.047 442.353 386.144 450.109 385.267C457.864 384.39 456.885 375.293 464.64 374.409" stroke="#DC0816" stroke-width="6" stroke-miterlimit="10"></path><path d="M130.51 394.441C126.704 379.953 119.756 365.777 108.074 356.619C96.3924 347.461 79.4755 344.38 66.7393 351.868C65.0192 352.882 63.3215 354.156 62.5138 355.994C61.7061 357.831 62.095 360.371 63.8301 361.331C65.4455 362.246 67.5694 361.514 68.9605 360.31C72.9915 356.909 73.3505 350.275 70.6058 345.73C67.8611 341.185 62.7456 338.562 57.5853 337.67C45.3127 335.557 32.0829 342.962 27.2441 354.651" stroke="#DC0816" stroke-width="6" stroke-miterlimit="10"></path><path d="M430.349 19.75C423.544 29.2612 419.529 40.5477 418.772 52.2954C418.203 62.2084 420.32 72.6171 427.066 80.6086C433.811 88.6001 445.845 93.5718 456.831 91.1012C460.249 90.3387 463.659 88.6916 465.215 85.9235C465.607 85.2323 465.844 84.461 465.909 83.6651C465.973 82.8691 465.864 82.0685 465.589 81.3209C465.313 80.5733 464.878 79.8972 464.316 79.3416C463.753 78.7859 463.077 78.3644 462.335 78.1075C461.019 77.766 459.633 77.8236 458.349 78.2733C457.064 78.723 455.936 79.5452 455.103 80.6391C453.608 82.698 453.353 85.3059 453.69 87.7384C454.909 96.4161 463.285 103.752 473.082 105.445C482.879 107.137 493.462 103.279 499.609 96.3933" stroke="#DC0816" stroke-width="6" stroke-miterlimit="10"></path><path d="M469.045 319.803L464.588 346.126" stroke="black" stroke-width="10" stroke-miterlimit="10"></path><path d="M482.168 316.624L490.469 337.898" stroke="black" stroke-width="10" stroke-miterlimit="10"></path><path d="M488.518 305.559L502.436 311.872" stroke="black" stroke-width="10" stroke-miterlimit="10"></path><path d="M108.607 12.2769C103.192 32.2631 87.0678 48.879 67.5184 54.5828C63.7193 55.6885 59.4863 56.3748 55.9414 54.5828C52.3965 52.7908 50.3772 47.6055 52.9499 44.5553C55.1935 41.9093 59.6807 42.3821 62.1412 44.7765C64.6017 47.1709 65.5366 50.8234 65.7909 54.3006C66.165 60.4641 64.9251 66.6182 62.1982 72.1321C59.4712 77.6461 55.3554 82.3215 50.2725 85.6793C45.1068 88.9045 39.1927 90.6706 33.1367 90.7966C27.0808 90.9225 21.101 89.4038 15.8105 86.3961" stroke="#DC0816" stroke-width="6" stroke-miterlimit="10"></path><path d="M300.436 114.252C302.978 113.514 305.563 112.941 308.176 112.536C309.492 112.328 310.816 112.168 312.147 112.056C313.513 111.912 314.888 111.861 316.261 111.903C317.748 112.153 319.174 112.697 320.456 113.505C321.752 114.383 322.786 115.607 323.448 117.043C324.038 118.351 324.446 119.737 324.659 121.161C324.869 122.512 325.007 123.874 325.07 125.24C325.325 130.692 324.539 136 323.769 141.254C324.016 135.916 324.255 130.578 323.485 125.385C323.081 122.831 322.55 120.192 321.346 118.187C320.807 117.219 320.011 116.427 319.05 115.899C318.045 115.408 316.955 115.126 315.842 115.068C314.623 114.774 313.386 114.565 312.14 114.443C310.861 114.282 309.575 114.176 308.281 114.107C305.665 113.987 303.045 114.035 300.436 114.252Z" fill="#E7E5C2"></path><path d="M450.158 280.669C452.222 279.047 454.309 277.441 456.418 275.85C461.294 274.147 466.198 272.558 471.129 271.084C466.606 273.565 462.147 276.135 457.749 278.793C455.216 279.388 452.686 280.013 450.158 280.669Z" fill="#E7E5C2"></path><path d="M170.177 130.204C170.92 133.956 171.596 137.728 172.204 141.52C171.83 149.146 171.179 156.725 170.252 164.259C170.112 156.675 169.703 149.118 169.025 141.589C169.519 137.814 169.856 134.017 170.177 130.204Z" fill="#E7E5C2"></path><path d="M284.332 138.226L271.618 207.29H270.952L247.663 172.136H247.192L224.487 207.168H224.008L207.211 138.661" stroke="black" stroke-width="22.63" stroke-miterlimit="10"></path><path d="M188.547 145.844L227.092 136.648" stroke="black" stroke-width="22.63" stroke-miterlimit="10"></path><path d="M262.93 133.438L304.205 139.637" stroke="black" stroke-width="22.63" stroke-miterlimit="10"></path><path d="M206.361 214.893L240.367 215.175" stroke="black" stroke-width="22.63" stroke-miterlimit="10"></path><path d="M256.455 217.272L289.623 211.873" stroke="black" stroke-width="22.63" stroke-miterlimit="10"></path><path d="M298.455 166.524L317.66 160.851" stroke="black" stroke-width="10" stroke-miterlimit="10"></path><path d="M300.436 181.844L316.545 182.416" stroke="black" stroke-width="10" stroke-miterlimit="10"></path><path d="M297.348 195.463L311.797 205.765" stroke="black" stroke-width="10" stroke-miterlimit="10"></path><path d="M193.827 177.07L175.459 169.079" stroke="black" stroke-width="10" stroke-miterlimit="10"></path><path d="M191.388 189.507L174.344 190.644" stroke="black" stroke-width="10" stroke-miterlimit="10"></path><path d="M196.608 203.485L178.24 215.037" stroke="black" stroke-width="10" stroke-miterlimit="10"></path></svg> 